<?xml version="1.0" encoding="UTF-8" standalone="no"?>
<!DOCTYPE svg PUBLIC "-//W3C//DTD SVG 1.1//EN" "http://www.w3.org/Graphics/SVG/1.1/DTD/svg11.dtd">
<svg width="100%" height="100%" viewBox="0 0 405 322" version="1.1" xmlns="http://www.w3.org/2000/svg" xmlns:xlink="http://www.w3.org/1999/xlink" xml:space="preserve" xmlns:serif="http://www.serif.com/" style="fill-rule:evenodd;clip-rule:evenodd;stroke-linejoin:round;stroke-miterlimit:2;">
    <g transform="matrix(1,0,0,1,-78.4366,-613.619)">
        <g>
            <g transform="matrix(1,0,0,1,-57.5579,-221.511)">
                <g transform="matrix(0.604001,0,0,0.604001,-115.006,187.26)">
                    <g transform="matrix(1,0,0,1,-39.5741,1.71283)">
                        <path d="M842.884,1430.39C842.884,1430.8 842.898,1431.21 842.913,1431.63C842.928,1431.86 842.943,1432.08 842.943,1432.32C842.957,1432.73 842.972,1433.14 843.001,1433.54C843.001,1433.73 843.016,1433.92 843.031,1434.11C843.075,1434.86 843.133,1435.62 843.192,1436.37C843.31,1437.68 843.442,1438.97 843.618,1440.26C843.662,1440.59 843.706,1440.91 843.75,1441.23C843.868,1441.98 843.985,1442.73 844.118,1443.45C844.176,1443.77 844.25,1444.1 844.309,1444.41C844.411,1444.93 844.529,1445.45 844.646,1445.96C844.749,1446.4 844.852,1446.84 844.97,1447.27C845.19,1448.14 845.44,1448.99 845.704,1449.81C845.733,1449.88 845.763,1449.97 845.792,1450.05C848.069,1456.85 854.003,1461.84 861.098,1462.9C861.583,1462.97 862.053,1463.05 862.537,1463.13C863.551,1463.3 864.565,1463.47 865.578,1463.68C866.562,1463.85 867.561,1464.06 868.545,1464.28C868.589,1464.28 868.619,1464.29 868.648,1464.31C869.632,1464.51 870.631,1464.75 871.615,1465C872.614,1465.23 873.613,1465.5 874.612,1465.78C875.596,1466.04 876.595,1466.34 877.579,1466.63C878.563,1466.92 879.547,1467.25 880.531,1467.57C881.501,1467.89 882.485,1468.23 883.455,1468.58C885.217,1469.21 886.965,1469.89 888.684,1470.62C889.154,1470.8 889.609,1471.01 890.065,1471.2C890.667,1471.46 891.269,1471.73 891.871,1472.01C893.061,1472.52 894.221,1473.08 895.382,1473.65C896.013,1473.94 896.63,1474.27 897.247,1474.59C897.468,1474.69 897.688,1474.81 897.908,1474.93C898.555,1475.25 899.186,1475.59 899.818,1475.94C900.112,1476.1 900.42,1476.27 900.714,1476.43C901.346,1476.78 901.963,1477.13 902.579,1477.48C902.8,1477.62 903.005,1477.73 903.226,1477.87C903.725,1478.15 904.224,1478.45 904.709,1478.75C905.914,1479.48 907.104,1480.23 908.279,1481.01C909.145,1481.57 909.997,1482.16 910.835,1482.74C913.185,1484.39 915.491,1486.12 917.709,1487.94C918.443,1488.53 919.178,1489.15 919.883,1489.76C920.485,1490.28 921.087,1490.79 921.675,1491.35C921.881,1491.51 922.086,1491.7 922.292,1491.89C922.909,1492.44 923.511,1493.01 924.099,1493.58C924.73,1494.17 925.347,1494.76 925.935,1495.38C926.082,1495.51 926.214,1495.65 926.375,1495.8C926.963,1496.39 927.55,1496.99 928.109,1497.61C928.77,1498.3 929.401,1498.99 930.033,1499.69C930.547,1500.25 931.032,1500.83 931.531,1501.4C932.016,1501.96 932.501,1502.53 932.971,1503.12C934.425,1504.88 935.835,1506.7 937.172,1508.57C935.159,1502.9 934.954,1496.89 936.217,1491.13C938.494,1480.28 945.78,1470.17 955.533,1464.53C967.857,1457.42 982.942,1456.64 996.853,1460.18C999.791,1460.93 1002.7,1461.87 1005.52,1463C961.232,1385.53 854.973,1413.31 854.973,1413.31C854.973,1413.31 854.15,1413.79 852.74,1414.65C852.505,1414.78 852.241,1414.94 851.976,1415.09C851.859,1415.17 851.726,1415.25 851.594,1415.31C850.595,1415.89 849.435,1416.58 848.113,1417.35C846.615,1418.23 844.911,1419.23 843.089,1420.27C842.898,1423.49 842.81,1426.91 842.884,1430.39Z" style="fill:rgb(25,148,149);fill-rule:nonzero;"/>
                    </g>
                    <g transform="matrix(1,0,0,1,-39.5741,1.71283)">
                        <path d="M843.089,1420.27C844.911,1419.23 846.615,1418.23 848.113,1417.35C849.435,1416.58 850.61,1415.89 851.594,1415.31C851.726,1415.25 851.859,1415.17 851.976,1415.09C852.241,1414.94 852.505,1414.78 852.74,1414.65C854.15,1413.79 854.973,1413.31 854.973,1413.31C854.973,1413.31 961.232,1385.53 1005.52,1463C1005.03,1462.06 1004.58,1461.12 1004.15,1460.15C1004.04,1459.89 1003.92,1459.62 1003.82,1459.36C1003.76,1459.21 1003.7,1459.08 1003.64,1458.93C1003.62,1458.9 1003.62,1458.89 1003.61,1458.86C1003.58,1458.76 1003.54,1458.65 1003.51,1458.57C1003.49,1458.54 1003.48,1458.51 1003.46,1458.48C1003.32,1458.14 1003.18,1457.8 1003.07,1457.46C1002.85,1456.89 1002.64,1456.32 1002.45,1455.76C1002.29,1455.26 1002.13,1454.75 1001.98,1454.25C1001.85,1453.84 1001.73,1453.42 1001.61,1453C1001.45,1452.41 1001.29,1451.82 1001.14,1451.22C1000.57,1448.94 1000.16,1446.65 999.864,1444.33C999.717,1443.17 999.614,1442 999.541,1440.84C999.512,1440.28 999.482,1439.72 999.468,1439.16C999.409,1437.62 999.423,1436.06 999.512,1434.52C999.541,1433.98 999.57,1433.43 999.614,1432.87C999.658,1432.15 999.732,1431.45 999.82,1430.73C999.967,1429.45 1000.16,1428.16 1000.39,1426.9C1000.44,1426.54 1000.51,1426.21 1000.58,1425.87C1000.98,1423.83 1001.49,1421.81 1002.13,1419.83C1002.76,1417.82 1003.51,1415.82 1004.37,1413.88C1005.92,1410.39 1007.83,1407.07 1010.09,1403.98C1010.7,1403.14 1011.34,1402.32 1012.01,1401.53C1012.34,1401.13 1012.67,1400.74 1013.03,1400.34C1013.36,1399.94 1013.72,1399.56 1014.07,1399.19C1014.42,1398.81 1014.79,1398.43 1015.16,1398.06C1015.85,1397.36 1016.57,1396.67 1017.31,1396.01C1017.92,1395.45 1018.53,1394.9 1019.18,1394.39C1019.56,1394.07 1019.96,1393.74 1020.36,1393.45C1021.52,1392.52 1022.72,1391.66 1023.95,1390.85C1024.25,1390.64 1024.54,1390.45 1024.85,1390.26C1026.17,1389.41 1027.54,1388.62 1028.93,1387.88C1030.3,1387.15 1031.69,1386.49 1033.12,1385.87C1033.18,1385.84 1033.24,1385.81 1033.3,1385.8C1033.8,1385.58 1034.32,1385.36 1034.84,1385.17C1035.35,1384.96 1035.87,1384.77 1036.38,1384.58C1036.91,1384.39 1037.42,1384.2 1037.95,1384.03C1038.48,1383.86 1039.01,1383.68 1039.54,1383.53C1040.07,1383.36 1040.61,1383.21 1041.14,1383.08C1041.67,1382.92 1042.21,1382.79 1042.74,1382.67C1043.05,1382.59 1043.37,1382.52 1043.68,1382.46C1044.14,1382.34 1044.59,1382.26 1045.03,1382.17C1045.43,1382.08 1045.83,1382.01 1046.22,1381.93C1046.69,1381.86 1047.16,1381.79 1047.63,1381.71C1048.09,1381.64 1048.56,1381.58 1049.03,1381.52C1049.66,1381.45 1050.29,1381.38 1050.92,1381.32C1051.47,1381.27 1052.02,1381.23 1052.57,1381.2C1052.64,1381.2 1052.7,1381.18 1052.76,1381.18L1052.85,1381.18C1053.3,1381.15 1053.77,1381.14 1054.23,1381.13C1054.76,1381.11 1055.31,1381.1 1055.84,1381.1L1055.87,1381.1C1058.93,1381.1 1061.97,1381.36 1064.97,1381.87C1063.79,1379.6 1062.78,1377.29 1061.94,1374.93L1061.91,1374.88L1061.88,1374.88C1053.63,1352.79 1057.05,1326.91 1068.27,1305.9C1079.54,1284.74 1097.9,1268.09 1118.34,1255.4C1120.33,1254.14 1122.37,1252.95 1124.41,1251.77C1097.6,1237.5 1052.19,1241.67 1022.44,1247.82C976.979,1257.21 944.193,1278.41 908.984,1308.25C904.577,1311.98 900.244,1315.94 896.028,1320.06C895.176,1320.89 894.339,1321.71 893.516,1322.56C892.62,1323.46 891.739,1324.35 890.858,1325.28C890.094,1326.07 889.33,1326.88 888.581,1327.69C887.758,1328.55 886.95,1329.44 886.157,1330.32C885.408,1331.14 884.659,1331.98 883.925,1332.83C882.25,1334.72 880.605,1336.65 879.004,1338.62C878.284,1339.48 877.579,1340.36 876.889,1341.25C876.139,1342.17 875.405,1343.11 874.685,1344.07C873.393,1345.74 872.144,1347.43 870.91,1349.15C870.19,1350.15 869.471,1351.16 868.78,1352.17C868.222,1352.98 867.679,1353.79 867.135,1354.6C864.667,1358.28 862.332,1362.06 860.143,1365.91C859.144,1367.64 858.19,1369.39 857.279,1371.15C856.721,1372.21 856.192,1373.27 855.663,1374.32C855.208,1375.23 854.752,1376.16 854.312,1377.09C854.238,1377.26 854.15,1377.45 854.062,1377.63C853.651,1378.51 853.254,1379.39 852.857,1380.27C852.769,1380.48 852.667,1380.69 852.578,1380.89C852.182,1381.79 851.8,1382.68 851.433,1383.58C851.345,1383.78 851.256,1384 851.168,1384.22C850.83,1385.03 850.493,1385.86 850.184,1386.68C850.067,1386.96 849.949,1387.25 849.832,1387.54C849.464,1388.5 849.112,1389.45 848.774,1390.42C848.715,1390.56 848.671,1390.69 848.627,1390.82C848.289,1391.75 847.966,1392.69 847.658,1393.61C847.584,1393.79 847.525,1393.96 847.481,1394.14C847.129,1395.18 846.791,1396.23 846.482,1397.27C846.468,1397.33 846.438,1397.39 846.424,1397.46C846.101,1398.5 845.807,1399.55 845.513,1400.6C845.498,1400.65 845.484,1400.71 845.469,1400.75L845.469,1400.76C845.469,1400.76 845.469,1400.78 845.454,1400.81C845.454,1400.82 845.44,1400.85 845.44,1400.88C845.366,1401.32 845.014,1403.09 844.617,1405.79C844.074,1409.33 843.427,1414.47 843.089,1420.27Z" style="fill:rgb(135,234,235);fill-rule:nonzero;"/>
                    </g>
                    <g transform="matrix(1,0,0,1,-39.5741,1.71283)">
                        <path d="M843.089,1420.27C844.911,1419.23 846.615,1418.23 848.113,1417.35C849.435,1416.58 850.61,1415.89 851.594,1415.31C851.726,1415.25 851.859,1415.17 851.976,1415.09C852.241,1414.94 852.505,1414.78 852.74,1414.65C854.15,1413.79 854.973,1413.31 854.973,1413.31C854.973,1413.31 961.232,1385.53 1005.52,1463C1005.03,1462.06 1004.58,1461.12 1004.15,1460.15C1004.04,1459.89 1003.92,1459.62 1003.82,1459.36C1003.65,1459.01 1003.51,1458.64 1003.37,1458.27C1003.33,1458.17 1003.3,1458.08 1003.26,1457.98C1003.18,1457.8 1003.13,1457.63 1003.07,1457.46C1002.83,1456.91 1002.63,1456.33 1002.45,1455.76C1001.92,1454.25 1001.47,1452.72 1001.1,1451.16C1000.54,1448.91 1000.13,1446.64 999.864,1444.33C999.703,1443.17 999.6,1442.01 999.541,1440.84C999.512,1440.28 999.482,1439.72 999.468,1439.16C999.409,1437.62 999.423,1436.06 999.512,1434.52C999.541,1433.98 999.57,1433.43 999.614,1432.87C999.658,1432.15 999.732,1431.45 999.82,1430.73C999.967,1429.45 1000.16,1428.16 1000.39,1426.9C1000.44,1426.54 1000.51,1426.21 1000.58,1425.87C1000.98,1423.83 1001.49,1421.81 1002.13,1419.83C1002.76,1417.82 1003.51,1415.82 1004.37,1413.88C1005.92,1410.39 1007.83,1407.07 1010.09,1403.98C1010.7,1403.14 1011.34,1402.32 1012.01,1401.53C1012.34,1401.13 1012.67,1400.74 1013.03,1400.34C1013.36,1399.94 1013.72,1399.56 1014.07,1399.19C1014.42,1398.81 1014.79,1398.43 1015.16,1398.06C1015.85,1397.36 1016.57,1396.67 1017.31,1396.01C1017.92,1395.45 1018.53,1394.9 1019.18,1394.39C1019.56,1394.07 1019.96,1393.74 1020.36,1393.45C1021.52,1392.52 1022.72,1391.66 1023.95,1390.85C1024.25,1390.64 1024.56,1390.44 1024.85,1390.26C1026.17,1389.41 1027.54,1388.62 1028.93,1387.88C1030.3,1387.15 1031.69,1386.49 1033.12,1385.87C1033.18,1385.84 1033.24,1385.81 1033.3,1385.8C1033.81,1385.58 1034.32,1385.37 1034.84,1385.17C1035.35,1384.96 1035.87,1384.77 1036.38,1384.58C1036.91,1384.39 1037.42,1384.2 1037.95,1384.03C1038.48,1383.86 1039.01,1383.68 1039.54,1383.53C1040.07,1383.37 1040.6,1383.21 1041.14,1383.08C1041.67,1382.93 1042.21,1382.8 1042.74,1382.67C1043.05,1382.59 1043.37,1382.52 1043.68,1382.46C1044.14,1382.34 1044.59,1382.26 1045.03,1382.17C1045.43,1382.08 1045.83,1382.01 1046.22,1381.93C1046.69,1381.86 1047.16,1381.79 1047.63,1381.71C1048.09,1381.64 1048.56,1381.58 1049.03,1381.52C1049.66,1381.45 1050.29,1381.38 1050.92,1381.32C1051.47,1381.27 1052.02,1381.23 1052.57,1381.2C1052.64,1381.2 1052.7,1381.18 1052.76,1381.18L1052.85,1381.18C1053.3,1381.15 1053.77,1381.14 1054.23,1381.13C1054.76,1381.11 1055.31,1381.1 1055.84,1381.1L1055.87,1381.1C1058.93,1381.1 1061.97,1381.36 1064.97,1381.87C1064.97,1381.87 951.684,1326.31 850.801,1401.19C848.656,1402.79 846.585,1404.33 844.617,1405.79C844.074,1409.33 843.427,1414.47 843.089,1420.27Z" style="fill:rgb(35,209,211);fill-rule:nonzero;"/>
                    </g>
                    <g transform="matrix(1,0,0,1,-39.5741,1.71283)">
                        <path d="M842.884,1430.39C842.884,1430.8 842.898,1431.21 842.913,1431.63C842.928,1431.86 842.943,1432.08 842.943,1432.32C842.957,1432.73 842.972,1433.14 843.001,1433.54C843.001,1433.73 843.016,1433.92 843.031,1434.11C843.075,1434.86 843.133,1435.62 843.192,1436.37C843.31,1437.68 843.442,1438.97 843.618,1440.26C843.662,1440.59 843.706,1440.91 843.75,1441.23C843.868,1441.98 843.985,1442.73 844.118,1443.45C844.176,1443.77 844.25,1444.1 844.309,1444.41C844.411,1444.93 844.529,1445.45 844.646,1445.96C844.749,1446.4 844.852,1446.84 844.97,1447.27C845.19,1448.14 845.44,1448.99 845.704,1449.81C845.733,1449.88 845.763,1449.97 845.792,1450.05C848.069,1456.85 854.003,1461.84 861.098,1462.9C861.583,1462.97 862.053,1463.05 862.537,1463.13C863.551,1463.3 864.565,1463.47 865.578,1463.68C866.577,1463.85 867.561,1464.06 868.545,1464.28C868.589,1464.28 868.619,1464.29 868.648,1464.31C869.647,1464.51 870.631,1464.75 871.615,1465C872.614,1465.23 873.613,1465.5 874.612,1465.78C875.596,1466.04 876.595,1466.34 877.579,1466.63C878.563,1466.92 879.547,1467.25 880.531,1467.57C881.501,1467.89 882.485,1468.23 883.455,1468.58C885.217,1469.21 886.965,1469.89 888.684,1470.62C889.154,1470.8 889.609,1471.01 890.065,1471.2C890.681,1471.46 891.284,1471.73 891.871,1472.01C893.061,1472.52 894.221,1473.08 895.382,1473.65C896.013,1473.94 896.63,1474.25 897.247,1474.59C897.468,1474.69 897.688,1474.81 897.908,1474.93C898.555,1475.25 899.186,1475.59 899.818,1475.94C900.112,1476.1 900.42,1476.27 900.714,1476.43C901.346,1476.78 901.963,1477.13 902.579,1477.48C902.8,1477.62 903.005,1477.73 903.226,1477.87C903.725,1478.16 904.21,1478.45 904.709,1478.75C905.914,1479.48 907.104,1480.23 908.279,1481.01C909.145,1481.57 909.997,1482.16 910.835,1482.74C913.185,1484.39 915.491,1486.12 917.709,1487.94C918.443,1488.53 919.178,1489.15 919.883,1489.76C920.485,1490.28 921.087,1490.81 921.675,1491.35C921.881,1491.51 922.086,1491.7 922.292,1491.89C922.909,1492.45 923.511,1493.01 924.099,1493.58C924.716,1494.17 925.333,1494.76 925.935,1495.38C926.082,1495.51 926.214,1495.65 926.375,1495.8C926.948,1496.39 927.536,1496.99 928.109,1497.61C928.77,1498.3 929.401,1498.99 930.033,1499.69C930.547,1500.25 931.032,1500.83 931.531,1501.4C932.016,1501.96 932.501,1502.53 932.971,1503.12C934.425,1504.88 935.835,1506.7 937.172,1508.57C935.159,1502.9 934.954,1496.89 936.217,1491.13C921.455,1471.43 880.825,1460.78 875.42,1458.51C869.573,1456.05 871.41,1453.29 871.41,1437.9C871.41,1430.63 871.336,1425.15 871.263,1421.39C871.204,1417.76 873.921,1414.72 877.52,1414.32C957.619,1405.41 989.729,1448.55 996.853,1460.18C999.791,1460.93 1002.7,1461.87 1005.52,1463C1005.03,1462.06 1004.58,1461.12 1004.15,1460.15C1004.04,1459.89 1003.92,1459.62 1003.82,1459.36C1003.76,1459.21 1003.7,1459.08 1003.64,1458.93C1003.62,1458.9 1003.62,1458.89 1003.61,1458.86C1003.58,1458.76 1003.54,1458.65 1003.51,1458.57C1003.49,1458.54 1003.48,1458.51 1003.46,1458.48C1003.45,1458.46 1003.45,1458.45 1003.43,1458.43C1003.42,1458.37 1003.4,1458.33 1003.37,1458.27C1003.33,1458.17 1003.3,1458.08 1003.26,1457.98C1003.18,1457.8 1003.13,1457.63 1003.07,1457.46C1002.85,1456.89 1002.64,1456.32 1002.45,1455.76C1002.29,1455.26 1002.13,1454.75 1001.98,1454.25C1001.85,1453.84 1001.73,1453.42 1001.61,1453C1001.45,1452.41 1001.29,1451.82 1001.14,1451.22C996.618,1445.4 990.008,1438.12 980.989,1431.1C971.984,1424.08 960.586,1417.3 946.47,1412.53C901.581,1397.3 874.318,1409.92 867.708,1406.54C865.152,1405.22 864.256,1403.14 864.109,1401.12C863.874,1397.83 865.71,1394.67 868.531,1392.94C950.392,1342.44 1049.76,1380.01 1052.76,1381.18L1052.85,1381.18C1053.3,1381.15 1053.77,1381.14 1054.23,1381.13C1054.76,1381.11 1055.31,1381.1 1055.84,1381.1L1055.87,1381.1C1058.93,1381.1 1061.97,1381.36 1064.97,1381.87C1063.79,1379.6 1062.78,1377.29 1061.94,1374.93L1061.91,1374.88L1061.88,1374.88C957.692,1328.55 873.863,1382.54 865.519,1386.85C861.362,1389 860.437,1386.27 860.569,1383.01C860.716,1379.23 862.097,1375.56 864.271,1372.46C969.825,1221.88 1118.34,1255.4 1118.34,1255.4C1120.33,1254.14 1122.37,1252.95 1124.41,1251.77C1097.6,1237.5 1052.19,1241.67 1022.44,1247.82C976.979,1257.21 944.193,1278.41 908.984,1308.25C904.577,1311.98 900.244,1315.94 896.028,1320.06C895.176,1320.89 894.339,1321.71 893.516,1322.56C892.62,1323.46 891.739,1324.35 890.858,1325.28C890.094,1326.07 889.33,1326.88 888.581,1327.69C887.758,1328.55 886.95,1329.44 886.157,1330.32C885.408,1331.14 884.659,1331.98 883.925,1332.83C882.25,1334.72 880.605,1336.65 879.004,1338.62C878.284,1339.48 877.579,1340.36 876.889,1341.25C876.139,1342.17 875.405,1343.11 874.685,1344.07C873.393,1345.74 872.144,1347.43 870.91,1349.15C870.19,1350.15 869.471,1351.16 868.78,1352.17C868.222,1352.98 867.679,1353.79 867.135,1354.6C864.667,1358.28 862.332,1362.06 860.143,1365.91C859.159,1367.64 858.204,1369.39 857.279,1371.15C856.721,1372.21 856.192,1373.27 855.663,1374.32C855.208,1375.23 854.752,1376.16 854.312,1377.09C854.238,1377.26 854.15,1377.45 854.062,1377.63C853.651,1378.51 853.254,1379.39 852.857,1380.27C852.769,1380.48 852.667,1380.69 852.578,1380.89C852.182,1381.79 851.8,1382.68 851.433,1383.58C851.345,1383.78 851.256,1384 851.168,1384.22C850.83,1385.03 850.493,1385.86 850.184,1386.68C850.067,1386.96 849.949,1387.25 849.832,1387.54C849.464,1388.5 849.112,1389.45 848.774,1390.42C848.715,1390.56 848.671,1390.69 848.627,1390.82C848.289,1391.75 847.966,1392.69 847.658,1393.61C847.584,1393.79 847.525,1393.96 847.481,1394.14C847.129,1395.18 846.791,1396.23 846.482,1397.27C846.468,1397.33 846.438,1397.39 846.424,1397.46C846.101,1398.5 845.807,1399.55 845.513,1400.6C845.498,1400.65 845.484,1400.71 845.469,1400.75L845.469,1400.76C845.469,1400.76 845.469,1400.78 845.454,1400.81C845.454,1400.82 845.44,1400.85 845.44,1400.88C845.366,1401.32 845.014,1403.09 844.617,1405.79C844.074,1409.33 843.427,1414.47 843.089,1420.27C842.898,1423.49 842.81,1426.91 842.884,1430.39Z" style="fill:rgb(165,165,165);fill-rule:nonzero;"/>
                    </g>
                    <g transform="matrix(1,0,0,1,-39.5741,1.71283)">
                        <path d="M736.665,1430.39C736.665,1430.8 736.65,1431.21 736.635,1431.63C736.62,1431.86 736.606,1432.08 736.606,1432.32C736.591,1432.73 736.576,1433.14 736.547,1433.54C736.547,1433.73 736.532,1433.92 736.518,1434.11C736.474,1434.86 736.415,1435.62 736.356,1436.37C736.239,1437.68 736.106,1438.97 735.93,1440.26C735.886,1440.59 735.842,1440.91 735.798,1441.23C735.68,1441.98 735.563,1442.73 735.431,1443.45C735.372,1443.77 735.298,1444.1 735.24,1444.41C735.137,1444.93 735.019,1445.45 734.902,1445.96C734.799,1446.4 734.696,1446.84 734.579,1447.27C734.358,1448.14 734.109,1448.99 733.844,1449.81C733.815,1449.88 733.786,1449.97 733.756,1450.05C731.479,1456.85 725.545,1461.84 718.45,1462.9C717.966,1462.97 717.495,1463.05 717.011,1463.13C715.997,1463.3 714.984,1463.47 713.97,1463.68C712.986,1463.85 711.987,1464.06 711.003,1464.28C710.959,1464.28 710.93,1464.29 710.9,1464.31C709.916,1464.51 708.917,1464.75 707.933,1465C706.934,1465.23 705.935,1465.5 704.937,1465.78C703.952,1466.04 702.953,1466.34 701.969,1466.63C700.985,1466.92 700.001,1467.25 699.017,1467.57C698.047,1467.89 697.063,1468.23 696.094,1468.58C694.331,1469.21 692.583,1469.89 690.865,1470.62C690.394,1470.8 689.939,1471.01 689.484,1471.2C688.881,1471.46 688.279,1471.73 687.677,1472.01C686.487,1472.52 685.327,1473.08 684.166,1473.65C683.535,1473.94 682.918,1474.27 682.301,1474.59C682.081,1474.69 681.86,1474.81 681.64,1474.93C680.994,1475.25 680.362,1475.59 679.73,1475.94C679.437,1476.1 679.128,1476.27 678.834,1476.43C678.203,1476.78 677.586,1477.13 676.969,1477.48C676.748,1477.62 676.543,1477.73 676.323,1477.87C675.823,1478.15 675.324,1478.45 674.839,1478.75C673.634,1479.48 672.445,1480.23 671.27,1481.01C670.403,1481.57 669.551,1482.16 668.714,1482.74C666.363,1484.39 664.057,1486.12 661.839,1487.94C661.105,1488.53 660.37,1489.15 659.665,1489.76C659.063,1490.28 658.461,1490.79 657.873,1491.35C657.668,1491.51 657.462,1491.7 657.256,1491.89C656.639,1492.44 656.037,1493.01 655.449,1493.58C654.818,1494.17 654.201,1494.76 653.613,1495.38C653.467,1495.51 653.334,1495.65 653.173,1495.8C652.585,1496.39 651.998,1496.99 651.44,1497.61C650.779,1498.3 650.147,1498.99 649.515,1499.69C649.001,1500.25 648.516,1500.83 648.017,1501.4C647.532,1501.96 647.047,1502.53 646.577,1503.12C645.123,1504.88 643.713,1506.7 642.376,1508.57C644.389,1502.9 644.594,1496.89 643.331,1491.13C641.054,1480.28 633.769,1470.17 624.015,1464.53C611.691,1457.42 596.606,1456.64 582.695,1460.18C579.758,1460.93 576.849,1461.87 574.029,1463C618.316,1385.53 724.576,1413.31 724.576,1413.31C724.576,1413.31 725.398,1413.79 726.808,1414.65C727.043,1414.78 727.308,1414.94 727.572,1415.09C727.69,1415.17 727.822,1415.25 727.954,1415.31C728.953,1415.89 730.113,1416.58 731.435,1417.35C732.933,1418.23 734.637,1419.23 736.459,1420.27C736.65,1423.49 736.738,1426.91 736.665,1430.39Z" style="fill:rgb(25,148,149);fill-rule:nonzero;"/>
                    </g>
                    <g transform="matrix(1,0,0,1,-39.5741,1.71283)">
                        <path d="M736.459,1420.27C734.637,1419.23 732.933,1418.23 731.435,1417.35C730.113,1416.58 728.938,1415.89 727.954,1415.31C727.822,1415.25 727.69,1415.17 727.572,1415.09C727.308,1414.94 727.043,1414.78 726.808,1414.65C725.398,1413.79 724.576,1413.31 724.576,1413.31C724.576,1413.31 618.316,1385.53 574.029,1463C574.514,1462.06 574.969,1461.12 575.395,1460.15C575.513,1459.89 575.63,1459.62 575.733,1459.36C575.792,1459.21 575.85,1459.08 575.909,1458.93C575.924,1458.9 575.924,1458.89 575.938,1458.86C575.968,1458.76 576.012,1458.65 576.041,1458.57C576.056,1458.54 576.071,1458.51 576.085,1458.48C576.232,1458.14 576.364,1457.8 576.482,1457.46C576.702,1456.89 576.908,1456.32 577.099,1455.76C577.26,1455.26 577.422,1454.75 577.569,1454.25C577.701,1453.84 577.819,1453.42 577.936,1453C578.098,1452.41 578.259,1451.82 578.406,1451.22C578.979,1448.94 579.39,1446.65 579.684,1444.33C579.831,1443.17 579.934,1442 580.007,1440.84C580.037,1440.28 580.066,1439.72 580.081,1439.16C580.14,1437.62 580.125,1436.06 580.037,1434.52C580.007,1433.98 579.978,1433.43 579.934,1432.87C579.89,1432.15 579.816,1431.45 579.728,1430.73C579.581,1429.45 579.39,1428.16 579.155,1426.9C579.111,1426.54 579.038,1426.21 578.964,1425.87C578.568,1423.83 578.054,1421.81 577.422,1419.83C576.79,1417.82 576.041,1415.82 575.175,1413.88C573.632,1410.39 571.723,1407.07 569.461,1403.98C568.844,1403.14 568.212,1402.32 567.536,1401.53C567.213,1401.13 566.875,1400.74 566.523,1400.34C566.185,1399.94 565.832,1399.56 565.48,1399.19C565.127,1398.81 564.76,1398.43 564.393,1398.06C563.703,1397.36 562.983,1396.67 562.234,1396.01C561.631,1395.45 561.015,1394.9 560.368,1394.39C559.986,1394.07 559.59,1393.74 559.193,1393.45C558.033,1392.52 556.828,1391.66 555.594,1390.85C555.3,1390.64 555.007,1390.45 554.698,1390.26C553.376,1389.41 552.01,1388.62 550.615,1387.88C549.249,1387.15 547.853,1386.49 546.428,1385.87C546.37,1385.84 546.311,1385.81 546.252,1385.8C545.753,1385.58 545.224,1385.36 544.71,1385.17C544.196,1384.96 543.682,1384.77 543.167,1384.58C542.639,1384.39 542.125,1384.2 541.596,1384.03C541.067,1383.86 540.538,1383.68 540.009,1383.53C539.481,1383.36 538.937,1383.21 538.408,1383.08C537.88,1382.92 537.336,1382.79 536.807,1382.67C536.499,1382.59 536.176,1382.52 535.867,1382.46C535.412,1382.34 534.956,1382.26 534.516,1382.17C534.119,1382.08 533.722,1382.01 533.326,1381.93C532.856,1381.86 532.386,1381.79 531.916,1381.71C531.461,1381.64 530.99,1381.58 530.52,1381.52C529.889,1381.45 529.257,1381.38 528.625,1381.32C528.082,1381.27 527.524,1381.23 526.98,1381.2C526.907,1381.2 526.848,1381.18 526.789,1381.18L526.701,1381.18C526.246,1381.15 525.776,1381.14 525.32,1381.13C524.792,1381.11 524.234,1381.1 523.705,1381.1L523.675,1381.1C520.62,1381.1 517.578,1381.36 514.583,1381.87C515.758,1379.6 516.771,1377.29 517.609,1374.93L517.638,1374.88L517.668,1374.88C525.923,1352.79 522.5,1326.91 511.278,1305.9C500.011,1284.74 481.65,1268.09 461.203,1255.4C459.22,1254.14 457.179,1252.95 455.137,1251.77C481.944,1237.5 527.362,1241.67 557.107,1247.82C602.569,1257.21 635.355,1278.41 670.564,1308.25C674.971,1311.98 679.304,1315.94 683.52,1320.06C684.372,1320.89 685.209,1321.71 686.032,1322.56C686.928,1323.46 687.809,1324.35 688.69,1325.28C689.454,1326.07 690.218,1326.88 690.967,1327.69C691.79,1328.55 692.598,1329.44 693.391,1330.32C694.14,1331.14 694.889,1331.98 695.624,1332.83C697.298,1334.72 698.943,1336.65 700.544,1338.62C701.264,1339.48 701.969,1340.36 702.66,1341.25C703.409,1342.17 704.143,1343.11 704.863,1344.07C706.156,1345.74 707.404,1347.43 708.638,1349.15C709.358,1350.15 710.078,1351.16 710.768,1352.17C711.326,1352.98 711.87,1353.79 712.413,1354.6C714.881,1358.28 717.216,1362.06 719.405,1365.91C720.404,1367.64 721.359,1369.39 722.269,1371.15C722.828,1372.21 723.356,1373.27 723.885,1374.32C724.341,1375.23 724.796,1376.16 725.237,1377.09C725.31,1377.26 725.398,1377.45 725.486,1377.63C725.898,1378.51 726.294,1379.39 726.691,1380.27C726.779,1380.48 726.882,1380.69 726.97,1380.89C727.366,1381.79 727.748,1382.68 728.116,1383.58C728.204,1383.78 728.292,1384 728.38,1384.22C728.718,1385.03 729.056,1385.86 729.364,1386.68C729.482,1386.96 729.599,1387.25 729.717,1387.54C730.084,1388.5 730.436,1389.45 730.774,1390.42C730.833,1390.56 730.877,1390.69 730.921,1390.82C731.259,1391.75 731.582,1392.69 731.891,1393.61C731.964,1393.79 732.023,1393.96 732.067,1394.14C732.419,1395.18 732.757,1396.23 733.066,1397.27C733.08,1397.33 733.11,1397.39 733.124,1397.46C733.448,1398.5 733.741,1399.55 734.035,1400.6C734.05,1400.65 734.065,1400.71 734.079,1400.75L734.079,1400.76C734.079,1400.76 734.079,1400.78 734.094,1400.81C734.094,1400.82 734.109,1400.85 734.109,1400.88C734.182,1401.32 734.535,1403.09 734.931,1405.79C735.475,1409.33 736.121,1414.47 736.459,1420.27Z" style="fill:rgb(135,234,235);fill-rule:nonzero;"/>
                    </g>
                    <g transform="matrix(1,0,0,1,-39.5741,1.71283)">
                        <path d="M736.459,1420.27C734.637,1419.23 732.933,1418.23 731.435,1417.35C730.113,1416.58 728.938,1415.89 727.954,1415.31C727.822,1415.25 727.69,1415.17 727.572,1415.09C727.308,1414.94 727.043,1414.78 726.808,1414.65C725.398,1413.79 724.576,1413.31 724.576,1413.31C724.576,1413.31 618.316,1385.53 574.029,1463C574.514,1462.06 574.969,1461.12 575.395,1460.15C575.513,1459.89 575.63,1459.62 575.733,1459.36C575.894,1459.01 576.041,1458.64 576.174,1458.27C576.218,1458.17 576.247,1458.08 576.291,1457.98C576.364,1457.8 576.423,1457.63 576.482,1457.46C576.717,1456.91 576.923,1456.33 577.099,1455.76C577.628,1454.25 578.083,1452.72 578.45,1451.16C579.008,1448.91 579.42,1446.64 579.684,1444.33C579.846,1443.17 579.949,1442.01 580.007,1440.84C580.037,1440.28 580.066,1439.72 580.081,1439.16C580.14,1437.62 580.125,1436.06 580.037,1434.52C580.007,1433.98 579.978,1433.43 579.934,1432.87C579.89,1432.15 579.816,1431.45 579.728,1430.73C579.581,1429.45 579.39,1428.16 579.155,1426.9C579.111,1426.54 579.038,1426.21 578.964,1425.87C578.568,1423.83 578.054,1421.81 577.422,1419.83C576.79,1417.82 576.041,1415.82 575.175,1413.88C573.632,1410.39 571.723,1407.07 569.461,1403.98C568.844,1403.14 568.212,1402.32 567.536,1401.53C567.213,1401.13 566.875,1400.74 566.523,1400.34C566.185,1399.94 565.832,1399.56 565.48,1399.19C565.127,1398.81 564.76,1398.43 564.393,1398.06C563.703,1397.36 562.983,1396.67 562.234,1396.01C561.631,1395.45 561.015,1394.9 560.368,1394.39C559.986,1394.07 559.59,1393.74 559.193,1393.45C558.033,1392.52 556.828,1391.66 555.594,1390.85C555.3,1390.64 554.992,1390.44 554.698,1390.26C553.376,1389.41 552.01,1388.62 550.615,1387.88C549.249,1387.15 547.853,1386.49 546.428,1385.87C546.37,1385.84 546.311,1385.81 546.252,1385.8C545.738,1385.58 545.224,1385.37 544.71,1385.17C544.196,1384.96 543.682,1384.77 543.167,1384.58C542.639,1384.39 542.125,1384.2 541.596,1384.03C541.067,1383.86 540.538,1383.68 540.009,1383.53C539.481,1383.37 538.952,1383.21 538.408,1383.08C537.88,1382.93 537.336,1382.8 536.807,1382.67C536.499,1382.59 536.176,1382.52 535.867,1382.46C535.412,1382.34 534.956,1382.26 534.516,1382.17C534.119,1382.08 533.722,1382.01 533.326,1381.93C532.856,1381.86 532.386,1381.79 531.916,1381.71C531.461,1381.64 530.99,1381.58 530.52,1381.52C529.889,1381.45 529.257,1381.38 528.625,1381.32C528.082,1381.27 527.524,1381.23 526.98,1381.2C526.907,1381.2 526.848,1381.18 526.789,1381.18L526.701,1381.18C526.246,1381.15 525.776,1381.14 525.32,1381.13C524.792,1381.11 524.234,1381.1 523.705,1381.1L523.675,1381.1C520.62,1381.1 517.578,1381.36 514.583,1381.87C514.583,1381.87 627.864,1326.31 728.747,1401.19C730.892,1402.79 732.963,1404.33 734.931,1405.79C735.475,1409.33 736.121,1414.47 736.459,1420.27Z" style="fill:rgb(35,209,211);fill-rule:nonzero;"/>
                    </g>
                    <g transform="matrix(1,0,0,1,-39.5741,1.71283)">
                        <path d="M736.665,1430.39C736.665,1430.8 736.65,1431.21 736.635,1431.63C736.62,1431.86 736.606,1432.08 736.606,1432.32C736.591,1432.73 736.576,1433.14 736.547,1433.54C736.547,1433.73 736.532,1433.92 736.518,1434.11C736.474,1434.86 736.415,1435.62 736.356,1436.37C736.239,1437.68 736.106,1438.97 735.93,1440.26C735.886,1440.59 735.842,1440.91 735.798,1441.23C735.68,1441.98 735.563,1442.73 735.431,1443.45C735.372,1443.77 735.298,1444.1 735.24,1444.41C735.137,1444.93 735.019,1445.45 734.902,1445.96C734.799,1446.4 734.696,1446.84 734.579,1447.27C734.358,1448.14 734.109,1448.99 733.844,1449.81C733.815,1449.88 733.786,1449.97 733.756,1450.05C731.479,1456.85 725.545,1461.84 718.45,1462.9C717.966,1462.97 717.495,1463.05 717.011,1463.13C715.997,1463.3 714.984,1463.47 713.97,1463.68C712.971,1463.85 711.987,1464.06 711.003,1464.28C710.959,1464.28 710.93,1464.29 710.9,1464.31C709.901,1464.51 708.917,1464.75 707.933,1465C706.934,1465.23 705.935,1465.5 704.937,1465.78C703.952,1466.04 702.953,1466.34 701.969,1466.63C700.985,1466.92 700.001,1467.25 699.017,1467.57C698.047,1467.89 697.063,1468.23 696.094,1468.58C694.331,1469.21 692.583,1469.89 690.865,1470.62C690.394,1470.8 689.939,1471.01 689.484,1471.2C688.867,1471.46 688.265,1471.73 687.677,1472.01C686.487,1472.52 685.327,1473.08 684.166,1473.65C683.535,1473.94 682.918,1474.25 682.301,1474.59C682.081,1474.69 681.86,1474.81 681.64,1474.93C680.994,1475.25 680.362,1475.59 679.73,1475.94C679.437,1476.1 679.128,1476.27 678.834,1476.43C678.203,1476.78 677.586,1477.13 676.969,1477.48C676.748,1477.62 676.543,1477.73 676.323,1477.87C675.823,1478.16 675.338,1478.45 674.839,1478.75C673.634,1479.48 672.445,1480.23 671.27,1481.01C670.403,1481.57 669.551,1482.16 668.714,1482.74C666.363,1484.39 664.057,1486.12 661.839,1487.94C661.105,1488.53 660.37,1489.15 659.665,1489.76C659.063,1490.28 658.461,1490.81 657.873,1491.35C657.668,1491.51 657.462,1491.7 657.256,1491.89C656.639,1492.45 656.037,1493.01 655.449,1493.58C654.833,1494.17 654.216,1494.76 653.613,1495.38C653.467,1495.51 653.334,1495.65 653.173,1495.8C652.6,1496.39 652.012,1496.99 651.44,1497.61C650.779,1498.3 650.147,1498.99 649.515,1499.69C649.001,1500.25 648.516,1500.83 648.017,1501.4C647.532,1501.96 647.047,1502.53 646.577,1503.12C645.123,1504.88 643.713,1506.7 642.376,1508.57C644.389,1502.9 644.594,1496.89 643.331,1491.13C658.094,1471.43 698.723,1460.78 704.129,1458.51C709.975,1456.05 708.139,1453.29 708.139,1437.9C708.139,1430.63 708.212,1425.15 708.286,1421.39C708.344,1417.76 705.627,1414.72 702.028,1414.32C621.929,1405.41 589.819,1448.55 582.695,1460.18C579.758,1460.93 576.849,1461.87 574.029,1463C574.514,1462.06 574.969,1461.12 575.395,1460.15C575.513,1459.89 575.63,1459.62 575.733,1459.36C575.792,1459.21 575.85,1459.08 575.909,1458.93C575.924,1458.9 575.924,1458.89 575.938,1458.86C575.968,1458.76 576.012,1458.65 576.041,1458.57C576.056,1458.54 576.071,1458.51 576.085,1458.48C576.1,1458.46 576.1,1458.45 576.115,1458.43C576.129,1458.37 576.144,1458.33 576.174,1458.27C576.218,1458.17 576.247,1458.08 576.291,1457.98C576.364,1457.8 576.423,1457.63 576.482,1457.46C576.702,1456.89 576.908,1456.32 577.099,1455.76C577.26,1455.26 577.422,1454.75 577.569,1454.25C577.701,1453.84 577.819,1453.42 577.936,1453C578.098,1452.41 578.259,1451.82 578.406,1451.22C582.93,1445.4 589.54,1438.12 598.559,1431.1C607.564,1424.08 618.962,1417.3 633.078,1412.53C677.968,1397.3 705.23,1409.92 711.84,1406.54C714.396,1405.22 715.292,1403.14 715.439,1401.12C715.674,1397.83 713.838,1394.67 711.018,1392.94C629.156,1342.44 529.786,1380.01 526.789,1381.18L526.701,1381.18C526.246,1381.15 525.776,1381.14 525.32,1381.13C524.792,1381.11 524.234,1381.1 523.705,1381.1L523.675,1381.1C520.62,1381.1 517.578,1381.36 514.583,1381.87C515.758,1379.6 516.771,1377.29 517.609,1374.93L517.638,1374.88L517.668,1374.88C621.856,1328.55 705.686,1382.54 714.029,1386.85C718.186,1389 719.111,1386.27 718.979,1383.01C718.832,1379.23 717.452,1375.56 715.277,1372.46C609.723,1221.88 461.203,1255.4 461.203,1255.4C459.22,1254.14 457.179,1252.95 455.137,1251.77C481.944,1237.5 527.362,1241.67 557.107,1247.82C602.569,1257.21 635.355,1278.41 670.564,1308.25C674.971,1311.98 679.304,1315.94 683.52,1320.06C684.372,1320.89 685.209,1321.71 686.032,1322.56C686.928,1323.46 687.809,1324.35 688.69,1325.28C689.454,1326.07 690.218,1326.88 690.967,1327.69C691.79,1328.55 692.598,1329.44 693.391,1330.32C694.14,1331.14 694.889,1331.98 695.624,1332.83C697.298,1334.72 698.943,1336.65 700.544,1338.62C701.264,1339.48 701.969,1340.36 702.66,1341.25C703.409,1342.17 704.143,1343.11 704.863,1344.07C706.156,1345.74 707.404,1347.43 708.638,1349.15C709.358,1350.15 710.078,1351.16 710.768,1352.17C711.326,1352.98 711.87,1353.79 712.413,1354.6C714.881,1358.28 717.216,1362.06 719.405,1365.91C720.389,1367.64 721.344,1369.39 722.269,1371.15C722.828,1372.21 723.356,1373.27 723.885,1374.32C724.341,1375.23 724.796,1376.16 725.237,1377.09C725.31,1377.26 725.398,1377.45 725.486,1377.63C725.898,1378.51 726.294,1379.39 726.691,1380.27C726.779,1380.48 726.882,1380.69 726.97,1380.89C727.366,1381.79 727.748,1382.68 728.116,1383.58C728.204,1383.78 728.292,1384 728.38,1384.22C728.718,1385.03 729.056,1385.86 729.364,1386.68C729.482,1386.96 729.599,1387.25 729.717,1387.54C730.084,1388.5 730.436,1389.45 730.774,1390.42C730.833,1390.56 730.877,1390.69 730.921,1390.82C731.259,1391.75 731.582,1392.69 731.891,1393.61C731.964,1393.79 732.023,1393.96 732.067,1394.14C732.419,1395.18 732.757,1396.23 733.066,1397.27C733.08,1397.33 733.11,1397.39 733.124,1397.46C733.448,1398.5 733.741,1399.55 734.035,1400.6C734.05,1400.65 734.065,1400.71 734.079,1400.75L734.079,1400.76C734.079,1400.76 734.079,1400.78 734.094,1400.81C734.094,1400.82 734.109,1400.85 734.109,1400.88C734.182,1401.32 734.535,1403.09 734.931,1405.79C735.475,1409.33 736.121,1414.47 736.459,1420.27C736.65,1423.49 736.738,1426.91 736.665,1430.39Z" style="fill:rgb(165,165,165);fill-rule:nonzero;"/>
                    </g>
                </g>
                <g transform="matrix(1,0,0,1,-0.339411,0)">
                    <g transform="matrix(1,0,0,1,-544.688,-876.727)">
                        <path d="M885.907,2008.48C885.446,2014.55 884.889,2020.62 884.265,2026.67C884.102,2028.24 883.871,2029.95 882.731,2031.04C881.523,2032.19 879.704,2032.32 878.049,2032.36C869.782,2032.61 861.516,2032.87 853.25,2033.13C839.813,2033.55 826.266,2033.96 813.032,2031.62C811.309,2031.32 809.368,2030.81 808.58,2029.25C808.105,2028.3 808.187,2027.17 808.417,2026.14C808.445,2026 808.485,2025.87 808.526,2025.73C809.883,2020.66 814.838,2017.14 819.941,2015.8C825.194,2014.41 830.718,2014.82 836.148,2014.82C839.975,2014.83 844.251,2014.41 846.762,2011.53C848.133,2009.95 848.717,2007.9 848.784,2005.75C848.839,2004.41 848.689,2003.04 848.404,2001.73C847.685,1998.38 846.273,1995.17 845.893,1991.76L885.907,2008.48Z" style="fill:rgb(112,195,188);fill-rule:nonzero;"/>
                    </g>
                    <g transform="matrix(1,0,0,1,-544.688,-876.727)">
                        <path d="M885.907,2008.48C885.446,2014.55 884.889,2020.62 884.265,2026.67C884.102,2028.24 883.871,2029.95 882.731,2031.04C881.523,2032.19 879.704,2032.32 878.049,2032.36C869.782,2032.61 861.516,2032.87 853.25,2033.13C839.813,2033.55 826.266,2033.96 813.032,2031.62C811.309,2031.32 809.368,2030.81 808.58,2029.25C808.105,2028.3 808.187,2027.17 808.417,2026.14C808.445,2026 808.485,2025.87 808.526,2025.73C883.451,2031.12 880.465,2016.77 868.466,2015.74C861.462,2015.13 853.902,2009.99 848.784,2005.75C848.839,2004.41 848.689,2003.04 848.404,2001.73C847.685,1998.38 846.273,1995.17 845.893,1991.76L885.907,2008.48Z" style="fill:rgb(67,161,153);fill-rule:nonzero;"/>
                    </g>
                    <g transform="matrix(1,0,0,1,-544.688,-876.727)">
                        <path d="M902.202,2008.48C902.664,2014.55 903.22,2020.62 903.845,2026.67C904.007,2028.24 904.238,2029.95 905.378,2031.04C906.587,2032.19 908.405,2032.32 910.061,2032.36C918.327,2032.61 926.594,2032.87 934.86,2033.13C948.297,2033.55 961.843,2033.96 975.077,2031.62C976.801,2031.32 978.742,2030.81 979.529,2029.25C980.005,2028.3 979.923,2027.17 979.692,2026.14C979.665,2026 979.624,2025.87 979.584,2025.73C978.226,2020.66 973.272,2017.14 968.169,2015.8C962.916,2014.41 957.391,2014.82 951.962,2014.82C948.134,2014.83 943.859,2014.41 941.348,2011.53C939.977,2009.95 939.393,2007.9 939.325,2005.75C939.271,2004.41 939.42,2003.04 939.705,2001.73C940.425,1998.38 941.836,1995.17 942.216,1991.76L902.202,2008.48Z" style="fill:rgb(112,195,188);fill-rule:nonzero;"/>
                    </g>
                    <g transform="matrix(1,0,0,1,-544.688,-876.727)">
                        <path d="M902.202,2008.48C902.664,2014.55 903.22,2020.62 903.845,2026.67C904.007,2028.24 904.238,2029.95 905.378,2031.04C906.587,2032.19 908.405,2032.32 910.061,2032.36C918.327,2032.61 926.594,2032.87 934.86,2033.13C948.297,2033.55 961.843,2033.96 975.077,2031.62C976.801,2031.32 978.742,2030.81 979.529,2029.25C980.005,2028.3 979.923,2027.17 979.692,2026.14C979.665,2026 979.624,2025.87 979.584,2025.73C904.659,2031.12 907.645,2016.77 919.644,2015.74C926.648,2015.13 934.208,2009.99 939.325,2005.75C939.271,2004.41 939.42,2003.04 939.705,2001.73C940.425,1998.38 941.836,1995.17 942.216,1991.76L902.202,2008.48Z" style="fill:rgb(67,161,153);fill-rule:nonzero;"/>
                    </g>
                    <g transform="matrix(1,0,0,1,-544.688,-876.727)">
                        <path d="M997.534,1949.38C997.806,1954.5 993.354,1958.61 988.63,1960.73C988.454,1960.81 988.264,1960.88 988.087,1960.96C978.219,1965.07 966.451,1963.77 957.317,1958.22C948.182,1952.67 941.694,1943.17 939.156,1932.78C937.432,1925.74 937.852,1909.75 937.852,1909.75L951.494,1905.11C953.109,1909.44 955.294,1913.54 957.955,1917.3C963.913,1925.72 972.261,1932.48 981.816,1936.39C985.155,1937.75 988.671,1938.8 991.711,1940.75C994.738,1942.69 997.331,1945.79 997.534,1949.38Z" style="fill:rgb(178,223,219);fill-rule:nonzero;"/>
                    </g>
                    <g transform="matrix(1,0,0,1,-544.688,-876.727)">
                        <path d="M988.63,1960.73C988.454,1960.81 988.264,1960.88 988.087,1960.96C978.219,1965.07 966.451,1963.77 957.317,1958.22C948.182,1952.67 941.694,1943.17 939.156,1932.78C937.432,1925.74 937.852,1909.75 937.852,1909.75L951.494,1905.11C953.109,1909.44 955.294,1913.54 957.955,1917.3C957.466,1927.37 958.715,1956.18 988.63,1960.73Z" style="fill:rgb(67,161,153);fill-rule:nonzero;"/>
                    </g>
                    <g transform="matrix(1,0,0,1,-544.688,-876.727)">
                        <path d="M850.345,1913.43C848.893,1921.15 838.849,1947.73 838.849,1947.73C832.931,1956.25 826.036,1964.46 816.955,1969.47C814.648,1970.75 812.164,1971.76 809.612,1972.51C802.106,1974.71 793.894,1974.44 787.202,1970.53C783.633,1968.45 780.443,1965.01 780.28,1960.87C780.144,1957.5 782.072,1954.35 784.501,1952.02C786.945,1949.69 789.904,1948 792.618,1946.02C802.852,1938.54 809.34,1927.15 814.064,1915.27C814.81,1913.44 815.503,1911.59 816.154,1909.75L850.345,1913.43Z" style="fill:rgb(178,223,219);fill-rule:nonzero;"/>
                    </g>
                    <g transform="matrix(1,0,0,1,-544.688,-876.727)">
                        <path d="M850.345,1913.43C848.893,1921.15 838.849,1947.73 838.849,1947.73C832.931,1956.25 826.036,1964.46 816.955,1969.47C814.648,1970.75 812.164,1971.76 809.612,1972.51C827.949,1955.26 817.457,1923.93 814.064,1915.27C814.81,1913.44 815.503,1911.59 816.154,1909.75L850.345,1913.43Z" style="fill:rgb(67,161,153);fill-rule:nonzero;"/>
                    </g>
                    <g transform="matrix(1,0,0,1,-544.688,-876.727)">
                        <path d="M957.832,1964.96C957.819,1965.13 957.792,1965.3 957.778,1965.47C956.136,1979.43 949.851,1993.52 938.124,2001.26C932.41,2005.05 925.745,2007.12 919.067,2008.64C900.241,2012.96 880.003,2013.14 862.059,2005.96C844.142,1998.78 828.9,1983.52 824.746,1964.67C824.732,1964.65 824.732,1964.64 824.732,1964.64C823.674,1959.83 823.321,1954.89 823.28,1949.98C823.172,1938.75 825.018,1926.76 831.587,1917.88C832.564,1916.55 833.65,1915.3 834.845,1914.12L915.931,1907.74L937.73,1906.03C938.545,1906.87 939.332,1907.73 940.092,1908.61C942.929,1911.85 945.453,1915.35 947.652,1919.05C955.837,1932.73 959.583,1949.1 957.832,1964.96Z" style="fill:rgb(178,223,219);fill-rule:nonzero;"/>
                    </g>
                    <g transform="matrix(1,0,0,1,-544.688,-876.727)">
                        <path d="M937.948,1960.59C936.821,1964.3 935.246,1967.88 932.966,1971C927.116,1978.99 917.275,1982.99 907.625,1985.22C895.422,1988.03 882.229,1988.5 870.705,1983.6C858.435,1978.37 848.961,1967 846.056,1954C843.789,1943.87 845.54,1932.96 850.617,1923.93C852.056,1921.35 853.779,1918.92 855.748,1916.71L926.044,1910.21C929.844,1914.2 932.925,1918.83 935.219,1923.82C940.472,1935.23 941.639,1948.57 937.948,1960.59Z" style="fill:rgb(224,224,224);fill-rule:nonzero;"/>
                    </g>
                    <g transform="matrix(1,0,0,1,-544.688,-876.727)">
                        <path d="M1004.51,1826.86C1003.49,1840.19 1001.65,1853.45 999,1866.54C996.53,1878.67 992.865,1891.49 983.282,1899.3C980.486,1901.58 977.188,1903.5 973.822,1904.79C943.879,1916.36 911.33,1921.57 879.297,1920.89C863.702,1920.57 848.133,1918.82 832.863,1915.64C825.235,1914.06 817.674,1912.11 810.223,1909.82C803.409,1907.71 796.283,1905.59 790.813,1900.82C783.741,1894.63 780.036,1885.52 776.941,1876.64C770.792,1859.01 766.096,1840.88 762.92,1822.47C762.58,1820.5 762.255,1818.5 761.983,1816.47C761.983,1816.45 761.983,1816.43 761.97,1816.42L761.97,1816.4C760.952,1809.05 760.449,1801.49 761.182,1794.24C762.01,1786.14 764.386,1778.44 769.34,1771.94C775.38,1763.97 784.963,1758.8 794.939,1758.09C804.916,1757.4 815.123,1761.19 822.222,1768.23C824.746,1740.56 848.052,1716.18 875.565,1712.38C903.091,1708.59 932.111,1725.76 942.033,1751.73C950.829,1747.18 960.615,1744.11 970.51,1744.48C980.405,1744.85 990.422,1748.97 996.571,1756.74C1001.59,1763.1 1003.6,1771.11 1004.51,1779.28L1004.51,1779.3C1004.82,1782.15 1005.01,1785.01 1005.14,1787.83C1005.71,1800.84 1005.5,1813.88 1004.51,1826.86Z" style="fill:rgb(178,223,219);fill-rule:nonzero;"/>
                        <clipPath id="_clip1">
                            <path d="M1004.51,1826.86C1003.49,1840.19 1001.65,1853.45 999,1866.54C996.53,1878.67 992.865,1891.49 983.282,1899.3C980.486,1901.58 977.188,1903.5 973.822,1904.79C943.879,1916.36 911.33,1921.57 879.297,1920.89C863.702,1920.57 848.133,1918.82 832.863,1915.64C825.235,1914.06 817.674,1912.11 810.223,1909.82C803.409,1907.71 796.283,1905.59 790.813,1900.82C783.741,1894.63 780.036,1885.52 776.941,1876.64C770.792,1859.01 766.096,1840.88 762.92,1822.47C762.58,1820.5 762.255,1818.5 761.983,1816.47C761.983,1816.45 761.983,1816.43 761.97,1816.42L761.97,1816.4C760.952,1809.05 760.449,1801.49 761.182,1794.24C762.01,1786.14 764.386,1778.44 769.34,1771.94C775.38,1763.97 784.963,1758.8 794.939,1758.09C804.916,1757.4 815.123,1761.19 822.222,1768.23C824.746,1740.56 848.052,1716.18 875.565,1712.38C903.091,1708.59 932.111,1725.76 942.033,1751.73C950.829,1747.18 960.615,1744.11 970.51,1744.48C980.405,1744.85 990.422,1748.97 996.571,1756.74C1001.59,1763.1 1003.6,1771.11 1004.51,1779.28L1004.51,1779.3C1004.82,1782.15 1005.01,1785.01 1005.14,1787.83C1005.71,1800.84 1005.5,1813.88 1004.51,1826.86Z" clip-rule="nonzero"/>
                        </clipPath>
                        <g clip-path="url(#_clip1)">
                            <g transform="matrix(1,0,0,1,602.586,1098.24)">
                                <g transform="matrix(0.914392,0,0,0.801984,-93.6829,-686.134)">
                                    <path d="M301.113,1745.85C296.607,1754.64 286.794,1760.45 276.912,1760.17C273.41,1760.06 269.976,1759.21 266.827,1757.73C267.099,1754.4 267.424,1751.09 267.791,1747.78C268.578,1740.77 269.623,1733.62 272.976,1727.43C276.369,1721.19 281.866,1716.35 287.649,1712.21C290.133,1710.44 292.671,1708.77 295.277,1707.19C298.263,1711.47 300.747,1716.08 302.349,1721.05C304.941,1729.13 304.982,1738.29 301.113,1745.85Z" style="fill:rgb(224,224,224);fill-rule:nonzero;"/>
                                </g>
                                <g transform="matrix(0.914392,0,0,0.801984,-64.0546,-735.515)">
                                    <path d="M359.281,1711.69C348.905,1712.84 337.926,1721.23 344.37,1732.39C345.215,1733.85 346.298,1735.2 347.681,1736.17C351.034,1738.52 355.556,1738.27 359.528,1737.29C364.59,1736.02 369.607,1733.51 372.476,1729.16C377.432,1721.63 373.116,1713.12 364.573,1711.77C362.892,1711.51 361.095,1711.49 359.281,1711.69Z" style="fill:rgb(224,224,224);fill-rule:nonzero;"/>
                                </g>
                                <g transform="matrix(0.914392,0,0,0.801984,-44.3025,-685.037)">
                                    <path d="M466.26,1685.38C466.124,1685.52 465.988,1685.64 465.853,1685.77C462.133,1689.28 457.193,1691.33 452.13,1692.03C449.7,1692.37 447.176,1692.41 444.828,1691.71C440.389,1690.4 436.969,1686.45 435.815,1681.97C435.53,1680.85 435.381,1679.69 435.353,1678.54C446.008,1679.52 456.419,1681.65 466.26,1685.38Z" style="fill:rgb(224,224,224);fill-rule:nonzero;"/>
                                </g>
                                <g transform="matrix(0.914392,0,0,0.801984,-53.8128,-681.745)">
                                    <path d="M507.17,1754.21L507.17,1754.22C503.328,1755.49 499.311,1756.23 495.279,1756.41C492.334,1756.54 489.28,1756.37 486.565,1755.19C483.064,1753.65 480.485,1750.61 478.109,1747.61C474.051,1742.51 470.074,1736.93 469.192,1730.47C468.011,1721.97 472.666,1713.33 479.629,1708.29C483.891,1705.22 488.859,1703.35 494.058,1702.43C497.56,1705.96 500.492,1709.99 502.5,1714.54C505.595,1721.55 506.287,1729.37 506.681,1737.03C506.98,1742.77 507.143,1748.48 507.17,1754.21Z" style="fill:rgb(224,224,224);fill-rule:nonzero;"/>
                                </g>
                                <g transform="matrix(0.588497,0,0,0.368602,21.4898,24.9668)">
                                    <path d="M507.17,1754.21L507.17,1754.22C503.328,1755.49 499.311,1756.23 495.279,1756.41C492.334,1756.54 489.28,1756.37 486.565,1755.19C483.064,1753.65 480.485,1750.61 478.109,1747.61C474.051,1742.51 470.074,1736.93 469.192,1730.47C468.011,1721.97 472.666,1713.33 479.629,1708.29C483.891,1705.22 488.859,1703.35 494.058,1702.43C497.56,1705.96 500.492,1709.99 502.5,1714.54C505.595,1721.55 506.287,1729.37 506.681,1737.03C506.98,1742.77 507.143,1748.48 507.17,1754.21Z" style="fill:rgb(224,224,224);fill-rule:nonzero;"/>
                                </g>
                                <g transform="matrix(0.69307,0.596462,-0.523138,0.60787,974.473,-629.912)">
                                    <path d="M505.989,1787.04C504.794,1802.9 502.718,1818.7 499.949,1834.4C496.04,1833.32 492.443,1831.09 489.877,1827.94C488.71,1826.53 487.76,1824.95 486.945,1823.3C482.548,1814.42 482.969,1802.76 489.728,1795.51C493.949,1790.97 499.935,1788.69 505.989,1787.04Z" style="fill:rgb(224,224,224);fill-rule:nonzero;"/>
                                </g>
                            </g>
                        </g>
                    </g>
                    <g transform="matrix(1,0,0,1,-544.688,-876.727)">
                        <path d="M947.652,1919.05C943.567,1921.11 935.219,1923.82 935.219,1923.82C935.219,1923.82 855.625,1924.6 850.617,1923.93C846.586,1923.4 835.7,1919.43 831.587,1917.88C832.564,1916.55 833.65,1915.3 834.845,1914.12L915.931,1907.74C928.134,1908.17 937.975,1908.53 940.092,1908.61C942.929,1911.85 945.453,1915.35 947.652,1919.05Z" style="fill:rgb(67,161,153);fill-rule:nonzero;"/>
                    </g>
                    <g transform="matrix(1,0,0,1,-544.688,-876.727)">
                        <path d="M935.219,1923.82C926.709,1926.8 911.466,1930.96 893.196,1930.96C875.144,1930.96 859.548,1926.89 850.617,1923.93C852.056,1921.35 853.779,1918.92 855.748,1916.71L926.044,1910.21C929.844,1914.2 932.925,1918.83 935.219,1923.82Z" style="fill:rgb(150,150,150);fill-rule:nonzero;"/>
                    </g>
                    <g transform="matrix(1,0,0,1,-544.688,-876.727)">
                        <path d="M1004.51,1826.86C1003.49,1840.19 1001.65,1853.45 999,1866.54C996.53,1878.67 992.865,1891.49 983.282,1899.3C980.486,1901.58 977.188,1903.5 973.822,1904.79C943.879,1916.36 911.33,1921.57 879.297,1920.89C863.702,1920.57 848.133,1918.82 832.863,1915.64C825.235,1914.06 817.674,1912.11 810.223,1909.82C803.409,1907.71 796.283,1905.59 790.813,1900.82C783.741,1894.63 780.036,1885.52 776.941,1876.64C770.792,1859.01 766.096,1840.88 762.92,1822.47C762.58,1820.5 762.255,1818.5 761.983,1816.47C762.798,1819.24 790.012,1910.83 885.907,1905.11C958.769,1900.76 992.254,1851.42 1004.51,1826.86Z" style="fill:rgb(112,195,188);fill-rule:nonzero;"/>
                    </g>
                    <g transform="matrix(1,0,0,1,-544.688,-876.727)">
                        <path d="M957.832,1964.96C957.819,1965.13 957.792,1965.3 957.778,1965.47C956.136,1979.43 949.851,1993.52 938.124,2001.26C932.41,2005.05 925.745,2007.12 919.067,2008.64C900.241,2012.96 880.003,2013.14 862.059,2005.96C844.142,1998.78 828.9,1983.52 824.746,1964.67C825.533,1965.94 852.911,2010.14 897.187,2003.01C940.404,1996.03 953.896,1978.59 957.832,1964.96Z" style="fill:rgb(112,195,188);fill-rule:nonzero;"/>
                    </g>
                    <g transform="matrix(1,0,0,1,-544.688,-876.727)">
                        <path d="M1004.51,1779.28C986.431,1745.2 936.007,1772.2 936.007,1772.2C936.007,1772.2 927.768,1721.51 880.424,1724.43C833.08,1727.36 825.954,1792.58 825.954,1792.58C791.369,1757.99 761.196,1794.27 761.196,1794.27L761.182,1794.24C762.01,1786.14 764.386,1778.44 769.34,1771.94C775.38,1763.97 784.963,1758.8 794.939,1758.09C804.916,1757.4 815.123,1761.19 822.222,1768.23C824.746,1740.56 848.052,1716.18 875.565,1712.38C903.091,1708.59 932.111,1725.76 942.033,1751.73C950.829,1747.18 960.615,1744.11 970.51,1744.48C980.405,1744.85 990.422,1748.97 996.571,1756.74C1001.59,1763.1 1003.6,1771.11 1004.51,1779.28Z" style="fill:rgb(220,240,238);fill-rule:nonzero;"/>
                    </g>
                </g>
            </g>
            <g>
                <g transform="matrix(0.46688,0,0,0.46688,88.6289,384.701)">
                    <path d="M365.024,633.32C356.947,619.329 339.056,614.535 325.065,622.613C311.074,630.691 306.28,648.581 314.358,662.572C322.436,676.563 340.326,681.357 354.317,673.279C368.308,665.202 373.102,647.311 365.024,633.32Z" style="fill:rgb(25,148,149);fill-rule:nonzero;"/>
                </g>
                <g transform="matrix(0.46688,0,0,0.46688,88.6289,384.701)">
                    <path d="M312.953,645.642C312.953,660.409 324.924,672.38 339.691,672.38C354.458,672.38 366.429,660.409 366.429,645.642C366.429,630.875 354.458,618.904 339.691,618.904C324.924,618.904 312.953,630.875 312.953,645.642Z" style="fill:white;fill-rule:nonzero;"/>
                </g>
                <g transform="matrix(0.46688,0,0,0.46688,88.6289,384.701)">
                    <path d="M329.273,637.476C329.273,643.23 333.937,647.894 339.691,647.894C345.445,647.894 350.109,643.23 350.109,637.476C350.109,631.723 345.445,627.059 339.691,627.059C333.937,627.059 329.273,631.723 329.273,637.476Z" style="fill:rgb(11,64,64);fill-rule:nonzero;"/>
                </g>
                <g transform="matrix(0.46688,0,0,0.46688,88.6289,384.701)">
                    <path d="M523.331,654.375C515.253,640.383 497.363,635.589 483.372,643.667C469.38,651.745 464.587,669.636 472.664,683.627C480.742,697.618 498.633,702.412 512.624,694.334C526.615,686.256 531.409,668.366 523.331,654.375Z" style="fill:rgb(25,148,149);fill-rule:nonzero;"/>
                </g>
                <g transform="matrix(0.46688,0,0,0.46688,88.6289,384.701)">
                    <path d="M472.231,665.511C472.231,679.742 483.767,691.278 497.998,691.278C512.229,691.278 523.765,679.742 523.765,665.511C523.765,651.28 512.229,639.743 497.998,639.743C483.767,639.743 472.231,651.28 472.231,665.511Z" style="fill:white;fill-rule:nonzero;"/>
                </g>
                <g transform="matrix(0.46688,0,0,0.46688,88.6289,384.701)">
                    <path d="M486.203,675.928C486.203,681.682 490.867,686.346 496.62,686.346C502.374,686.346 507.038,681.682 507.038,675.928C507.038,670.175 502.374,665.511 496.62,665.511C490.867,665.511 486.203,670.175 486.203,675.928Z" style="fill:rgb(11,64,64);fill-rule:nonzero;"/>
                </g>
                <g transform="matrix(0.46688,0,0,0.46688,88.6289,384.701)">
                    <path d="M358.498,751.437C349.635,736.087 330.007,730.828 314.657,739.69C299.307,748.552 294.048,768.18 302.91,783.53C311.772,798.881 331.4,804.14 346.751,795.277C362.101,786.415 367.36,766.787 358.498,751.437Z" style="fill:rgb(25,148,149);fill-rule:nonzero;"/>
                </g>
                <g transform="matrix(0.46688,0,0,0.46688,88.6289,384.701)">
                    <path d="M302.673,763.569C302.673,778.775 315.001,791.103 330.207,791.103C345.414,791.103 357.742,778.775 357.742,763.569C357.742,748.362 345.414,736.034 330.207,736.034C315.001,736.034 302.673,748.362 302.673,763.569Z" style="fill:white;fill-rule:nonzero;"/>
                </g>
                <g transform="matrix(0.46688,0,0,0.46688,88.6289,384.701)">
                    <path d="M314.809,775.386C314.809,781.139 319.473,785.804 325.227,785.804C330.98,785.804 335.645,781.139 335.645,775.386C335.645,769.632 330.98,764.968 325.227,764.968C319.473,764.968 314.809,769.632 314.809,775.386Z" style="fill:rgb(11,64,64);fill-rule:nonzero;"/>
                </g>
                <g transform="matrix(0.46688,0,0,0.46688,88.6289,384.701)">
                    <path d="M536.909,750.66C528.831,736.669 510.941,731.875 496.949,739.953C482.958,748.031 478.165,765.922 486.242,779.913C494.32,793.904 512.211,798.698 526.202,790.62C540.193,782.542 544.987,764.652 536.909,750.66Z" style="fill:rgb(25,148,149);fill-rule:nonzero;"/>
                </g>
                <g transform="matrix(0.46688,0,0,0.46688,88.6289,384.701)">
                    <path d="M484.554,763.055C484.554,777.979 496.652,790.077 511.576,790.077C526.499,790.077 538.597,777.979 538.597,763.055C538.597,748.132 526.499,736.034 511.576,736.034C496.652,736.034 484.554,748.132 484.554,763.055Z" style="fill:white;fill-rule:nonzero;"/>
                </g>
                <g transform="matrix(0.46688,0,0,0.46688,88.6289,384.701)">
                    <path d="M505.54,754.551C505.54,760.304 510.204,764.968 515.956,764.968C521.711,764.968 526.375,760.304 526.375,754.551C526.375,748.797 521.711,744.133 515.956,744.133C510.204,744.133 505.54,748.797 505.54,754.551Z" style="fill:rgb(11,64,64);fill-rule:nonzero;"/>
                </g>
                <g transform="matrix(0.46688,0,0,0.46688,88.6289,384.701)">
                    <path d="M319.279,700.869C312.219,688.64 296.582,684.45 284.354,691.51C272.126,698.57 267.936,714.207 274.996,726.435C282.056,738.664 297.693,742.853 309.921,735.793C322.149,728.733 326.339,713.097 319.279,700.869Z" style="fill:rgb(25,148,149);fill-rule:nonzero;"/>
                </g>
                <g transform="matrix(0.46688,0,0,0.46688,88.6289,384.701)">
                    <path d="M275.869,710.431C275.869,722.178 285.391,731.701 297.138,731.701C308.884,731.701 318.406,722.178 318.406,710.431C318.406,698.685 308.884,689.162 297.138,689.162C285.391,689.162 275.869,698.685 275.869,710.431Z" style="fill:white;fill-rule:nonzero;"/>
                </g>
                <g transform="matrix(0.46688,0,0,0.46688,88.6289,384.701)">
                    <path d="M295.663,704.156C295.663,707.622 298.472,710.431 301.938,710.431C305.404,710.431 308.214,707.622 308.214,704.156C308.214,700.69 305.404,697.88 301.938,697.88C298.472,697.88 295.663,700.69 295.663,704.156Z" style="fill:rgb(11,64,64);fill-rule:nonzero;"/>
                </g>
                <g transform="matrix(0.46688,0,0,0.46688,88.6289,384.701)">
                    <path d="M575.164,703.394C568.271,691.454 553.004,687.363 541.064,694.257C529.124,701.15 525.033,716.418 531.927,728.358C538.82,740.297 554.087,744.388 566.027,737.495C577.967,730.601 582.058,715.334 575.164,703.394Z" style="fill:rgb(25,148,149);fill-rule:nonzero;"/>
                </g>
                <g transform="matrix(0.46688,0,0,0.46688,88.6289,384.701)">
                    <path d="M531.021,713.802C531.021,726.242 541.106,736.327 553.546,736.327C565.985,736.327 576.07,726.242 576.07,713.802C576.07,701.362 565.985,691.278 553.546,691.278C541.106,691.278 531.021,701.362 531.021,713.802Z" style="fill:white;fill-rule:nonzero;"/>
                </g>
                <g transform="matrix(0.46688,0,0,0.46688,88.6289,384.701)">
                    <path d="M536.95,715.936C536.95,719.402 539.759,722.212 543.225,722.212C546.692,722.212 549.501,719.402 549.501,715.936C549.501,712.47 546.692,709.66 543.225,709.66C539.759,709.66 536.95,712.47 536.95,715.936Z" style="fill:rgb(11,64,64);fill-rule:nonzero;"/>
                </g>
                <g transform="matrix(0.46688,0,0,0.46688,88.6289,384.701)">
                    <path d="M356.335,726.469C356.335,760.135 383.627,787.427 417.293,787.427C450.959,787.427 478.251,760.135 478.251,726.469C478.251,692.802 450.959,665.511 417.293,665.511C383.627,665.511 356.335,692.802 356.335,726.469Z" style="fill:rgb(25,148,149);fill-rule:nonzero;"/>
                </g>
                <g transform="matrix(0.46688,0,0,0.46688,88.6289,384.701)">
                    <path d="M362.355,720.448C362.355,750.79 386.952,775.386 417.293,775.386C447.634,775.386 472.231,750.79 472.231,720.448C472.231,690.107 447.634,665.511 417.293,665.511C386.952,665.511 362.355,690.107 362.355,720.448Z" style="fill:white;fill-rule:nonzero;"/>
                </g>
                <g transform="matrix(0.46688,0,0,0.46688,88.6289,384.701)">
                    <path d="M379.048,720.448C379.048,741.57 396.171,758.693 417.293,758.693C438.415,758.693 455.538,741.57 455.538,720.448C455.538,699.326 438.415,682.204 417.293,682.204C396.171,682.204 379.048,699.326 379.048,720.448Z" style="fill:rgb(25,148,149);fill-rule:nonzero;"/>
                </g>
                <g transform="matrix(0.46688,0,0,0.46688,88.6289,384.701)">
                    <path d="M388.123,720.448C388.123,736.559 401.183,749.619 417.293,749.619C433.403,749.619 446.463,736.559 446.463,720.448C446.463,704.338 433.403,691.278 417.293,691.278C401.183,691.278 388.123,704.338 388.123,720.448Z" style="fill:rgb(11,64,64);fill-rule:nonzero;"/>
                </g>
                <g transform="matrix(0.46688,0,0,0.46688,88.6289,384.701)">
                    <path d="M380.961,695.688C380.961,704.204 387.865,711.108 396.382,711.108C404.898,711.108 411.802,704.204 411.802,695.688C411.802,687.171 404.898,680.267 396.382,680.267C387.865,680.267 380.961,687.171 380.961,695.688Z" style="fill:white;fill-rule:nonzero;"/>
                </g>
                <g transform="matrix(0.46688,0,0,0.46688,88.6289,384.701)">
                    <path d="M417.293,732.956C417.293,737.214 420.745,740.666 425.003,740.666C429.261,740.666 432.713,737.214 432.713,732.956C432.713,728.698 429.261,725.246 425.003,725.246C420.745,725.246 417.293,728.698 417.293,732.956Z" style="fill:white;fill-rule:nonzero;"/>
                </g>
            </g>
            <g transform="matrix(0.252367,0,0,0.252367,150.793,529.642)">
                <g transform="matrix(1,0,0,1,-856.752,1.71283)">
                    <path d="M1521.31,961.814C1521.25,959.489 1520.95,956.866 1519.05,955.615C1517.44,954.541 1515.35,954.779 1513.5,955.137C1507.96,956.032 1502.42,956.926 1496.87,957.7C1481.25,960.026 1465.63,961.874 1449.96,963.245C1418.84,966.225 1387.54,967.478 1356.24,967.06C1356.06,967.06 1355.83,967.06 1355.53,967C1348.97,966.583 1324.53,964.616 1305.39,963.066C1293.65,962.112 1283.87,961.337 1281.55,961.278C1278.98,961.158 1276.12,961.099 1274.16,962.828C1271.53,965.152 1271.95,969.325 1272.67,972.723C1278.93,1002.95 1288.52,1033.05 1306.53,1058.03C1307,1058.63 1307.42,1059.28 1307.96,1059.88C1325.96,1083.96 1352.96,1102.44 1382.89,1105.01C1396.96,1106.2 1411.27,1103.87 1424.68,1099.46C1447.93,1091.89 1468.61,1077.64 1484.77,1059.4C1508.38,1032.75 1522.5,997.463 1521.31,961.814Z" style="fill:rgb(198,23,81);fill-rule:nonzero;"/>
                </g>
                <g transform="matrix(1,0,0,1,-856.752,1.71283)">
                    <path d="M1484.77,1059.4C1469.09,1051.53 1442.56,1043.01 1401.55,1043.01C1355.41,1043.01 1324.89,1052.43 1307.96,1059.88C1307.42,1059.28 1307,1058.63 1306.53,1058.03C1288.52,1033.05 1278.93,1002.95 1272.67,972.723C1271.95,969.325 1271.53,965.152 1274.16,962.828C1276.12,961.099 1278.98,961.158 1281.55,961.278C1283.87,961.337 1293.65,962.112 1305.39,963.066C1324.53,964.616 1348.97,966.583 1355.53,967C1355.83,967.06 1356.06,967.06 1356.24,967.06C1387.54,967.478 1418.84,966.225 1449.96,963.245C1465.63,961.874 1481.25,960.026 1496.87,957.7C1502.42,956.926 1507.96,956.032 1513.5,955.137C1515.35,954.779 1517.44,954.541 1519.05,955.615C1520.95,956.866 1521.25,959.489 1521.31,961.814C1522.5,997.463 1508.38,1032.75 1484.77,1059.4Z" style="fill:rgb(119,0,60);fill-rule:nonzero;"/>
                </g>
                <g transform="matrix(1,0,0,1,-856.752,1.71283)">
                    <path d="M1305.39,963.066C1324.53,964.616 1348.97,966.583 1355.53,967C1354.16,988.64 1350.04,1031.56 1338.72,1030.07C1326.74,1028.52 1311.3,982.262 1305.39,963.066Z" style="fill:white;fill-rule:nonzero;"/>
                </g>
                <g transform="matrix(1,0,0,1,-856.752,1.71283)">
                    <path d="M1496.87,957.7C1490.73,984.229 1475.89,1030.13 1460.21,1030.13C1446.8,1030.13 1448.58,982.858 1449.96,963.245C1465.63,961.874 1481.25,960.026 1496.87,957.7Z" style="fill:white;fill-rule:nonzero;"/>
                </g>
            </g>
        </g>
    </g>
</svg>
