<?xml version="1.0" encoding="UTF-8" standalone="no"?>
<!DOCTYPE svg PUBLIC "-//W3C//DTD SVG 1.1//EN" "http://www.w3.org/Graphics/SVG/1.1/DTD/svg11.dtd">
<svg width="100%" height="100%" viewBox="0 0 361 392" version="1.1" xmlns="http://www.w3.org/2000/svg" xmlns:xlink="http://www.w3.org/1999/xlink" xml:space="preserve" xmlns:serif="http://www.serif.com/" style="fill-rule:evenodd;clip-rule:evenodd;stroke-linejoin:round;stroke-miterlimit:2;">
    <g transform="matrix(1,0,0,1,-631.742,-688.537)">
        <g>
            <g>
                <g transform="matrix(1,0,0,1,417.652,-901.886)">
                    <path d="M454.085,1605.77C446.293,1616.37 439.005,1627.49 433.44,1639.39C431.648,1643.26 430.019,1647.2 428.621,1651.24C426.87,1656.31 425.472,1661.55 424.535,1666.85C422.418,1678.78 422.567,1691.07 425.934,1702.66L361.555,1702.06L357.266,1702.02C357.253,1701.61 357.253,1701.22 357.253,1700.83C357.117,1683.79 361.677,1666.87 369.591,1651.75C370.731,1649.57 371.939,1647.43 373.215,1645.33C379.554,1634.91 387.453,1625.54 396.425,1617.26C402.099,1612.03 408.193,1607.25 414.573,1602.94C425.431,1595.59 438.014,1589.38 451.071,1590.57C452.904,1590.73 454.831,1591.1 456.216,1592.31C459.975,1595.63 457.057,1601.73 454.085,1605.77Z" style="fill:rgb(139,69,19);fill-rule:nonzero;"/>
                </g>
                <g transform="matrix(1,0,0,1,417.652,-901.886)">
                    <path d="M425.934,1702.66L361.555,1702.06L357.253,1700.83C357.117,1683.79 361.677,1666.87 369.591,1651.75C377.45,1661.94 393.697,1674.13 424.535,1666.85C422.418,1678.78 422.567,1691.07 425.934,1702.66Z" style="fill:rgb(85,42,12);fill-rule:nonzero;"/>
                </g>
                <g transform="matrix(1,0,0,1,417.652,-901.886)">
                    <path d="M454.085,1605.77C446.293,1616.37 439.005,1627.49 433.44,1639.39C424.644,1646.78 413.84,1652.72 403.307,1650.33C388.973,1647.08 391.851,1630.22 396.425,1617.26C402.099,1612.03 408.193,1607.25 414.573,1602.94C425.431,1595.59 438.014,1589.38 451.071,1590.57C452.904,1590.73 454.831,1591.1 456.216,1592.31C459.975,1595.63 457.057,1601.73 454.085,1605.77Z" style="fill:rgb(231,142,78);fill-rule:nonzero;"/>
                </g>
            </g>
            <g>
                <g transform="matrix(1,0,0,1,-1061.44,-952.971)">
                    <path d="M1756.88,1895.28C1743.19,1951.23 1700.32,1946.98 1693.98,1930.26C1693.45,1928.91 1693.18,1927.48 1693.18,1925.98C1693.18,1910.69 1728.99,1863.57 1745.59,1842.56C1745.57,1842.55 1745.59,1842.55 1745.59,1842.55C1750.58,1836.22 1753.83,1832.27 1753.83,1832.27C1753.83,1832.27 1771.7,1834.81 1756.88,1895.28Z" style="fill:rgb(41,166,41);fill-rule:nonzero;"/>
                </g>
                <g transform="matrix(1,0,0,1,-1061.44,-952.971)">
                    <path d="M1756.88,1895.28C1743.19,1951.23 1700.32,1946.98 1693.98,1930.26C1746.44,1930.26 1746.74,1863.26 1745.59,1842.56C1745.57,1842.55 1745.59,1842.55 1745.59,1842.55C1750.58,1836.22 1753.83,1832.27 1753.83,1832.27C1753.83,1832.27 1771.7,1834.81 1756.88,1895.28Z" style="fill:rgb(28,114,28);fill-rule:nonzero;"/>
                </g>
                <g transform="matrix(1,0,0,1,-1061.44,-952.971)">
                    <path d="M1990.18,1895.28C2003.88,1951.23 2046.74,1946.98 2053.08,1930.26C2053.61,1928.91 2053.88,1927.48 2053.88,1925.98C2053.88,1910.69 2018.07,1863.57 2001.47,1842.56C2001.49,1842.55 2001.47,1842.55 2001.47,1842.55C1996.48,1836.22 1993.23,1832.27 1993.23,1832.27C1993.23,1832.27 1975.36,1834.81 1990.18,1895.28Z" style="fill:rgb(41,166,41);fill-rule:nonzero;"/>
                </g>
                <g transform="matrix(1,0,0,1,-1061.44,-952.971)">
                    <path d="M1990.18,1895.28C2003.88,1951.23 2046.74,1946.98 2053.08,1930.26C2000.62,1930.26 2000.32,1863.26 2001.47,1842.56C2001.49,1842.55 2001.47,1842.55 2001.47,1842.55C1996.48,1836.22 1993.23,1832.27 1993.23,1832.27C1993.23,1832.27 1975.36,1834.81 1990.18,1895.28Z" style="fill:rgb(28,114,28);fill-rule:nonzero;"/>
                </g>
                <g transform="matrix(1,0,0,1,-1061.44,-952.971)">
                    <path d="M1750.44,1988.16C1750.74,2001.73 1750.16,2024.83 1767.34,2028.36C1776.76,2030.3 1779.39,2028.45 1789,2028.36C1791.87,2028.32 1794.95,2028.13 1797.16,2026.32C1798.97,2024.84 1799.86,2022.58 1800.68,2020.39C1807,2003.34 1812.06,1985.83 1815.85,1968.05C1851.1,1978.99 1888.9,1981.53 1925.32,1975.61C1924.02,1992.38 1925.23,2009.33 1928.96,2025.73C1929.38,2027.59 1929.88,2029.53 1931.2,2030.92C1933.19,2033.04 1936.42,2033.27 1939.34,2033.37C1950.2,2033.71 1962.61,2033.42 1969.75,2025.24C1973.19,2021.29 1974.78,2016.09 1976.19,2011.04C1984.59,1981.26 1990.28,1950.73 1993.24,1919.94C1993.24,1919.91 1993.25,1919.88 1993.25,1919.87C1995.02,1901.53 1995.82,1883.1 1995.64,1864.67L1995.64,1864.62C1995.48,1846.31 1994.34,1828.02 1992.25,1809.83C1992.25,1809.83 1992.25,1809.82 1992.24,1809.77C1991.04,1799.38 1989.54,1789.02 1987.7,1778.72C1985.12,1764.14 1981.04,1748.29 1968.92,1739.78C1962.93,1735.56 1955.63,1733.68 1948.46,1732.16C1930.82,1728.44 1912.75,1726.99 1894.74,1726.42C1877.71,1725.88 1860.66,1726.23 1843.64,1726.83C1827.21,1727.41 1810.61,1726.46 1794.3,1728.81C1783.45,1730.37 1773.75,1732.65 1766.44,1741.6C1758.83,1750.89 1756.82,1763.54 1756.44,1775.54C1756.22,1782.79 1755.94,1790.04 1755.6,1797.27C1753.77,1838.56 1750.69,1879.81 1750.12,1921.24C1749.82,1943.55 1749.93,1965.85 1750.44,1988.16Z" style="fill:rgb(34,139,34);fill-rule:nonzero;"/>
                </g>
                <g transform="matrix(1,0,0,1,-1061.44,-952.971)">
                    <path d="M1750.44,1988.16C1750.48,1989.85 1750.5,1991.68 1750.55,1993.63L1750.55,1993.64C1750.88,2007.2 1752.3,2025.28 1767.34,2028.36C1776.76,2030.3 1779.39,2028.45 1789,2028.36C1791.87,2028.32 1794.95,2028.13 1797.16,2026.32C1798.97,2024.84 1799.86,2022.58 1800.68,2020.39C1804.22,2010.86 1807.35,2001.19 1810.1,1991.4C1812.27,1983.68 1814.18,1975.9 1815.85,1968.05C1851.1,1978.99 1888.9,1981.53 1925.32,1975.61C1924.71,1983.43 1924.65,1991.3 1925.14,1999.14C1925.7,2008.08 1926.96,2016.98 1928.96,2025.73C1929.38,2027.59 1929.88,2029.53 1931.2,2030.92C1933.19,2033.04 1936.42,2033.27 1939.34,2033.37C1950.2,2033.71 1962.61,2033.42 1969.75,2025.24C1973.19,2021.29 1974.78,2016.09 1976.19,2011.04C1977.75,2005.49 1979.23,1999.91 1980.6,1994.3C1980.64,1994.18 1980.66,1994.13 1980.66,1994.13C1986.64,1969.75 1990.84,1944.94 1993.24,1919.94C1992.4,1923.84 1974.27,2007.28 1956.38,2009.72C1938.07,2012.23 1934.73,1954.38 1934.73,1954.38C1934.73,1954.38 1860.32,1970.47 1811.28,1952.09C1811.28,1952.09 1795.44,2006.81 1778.84,2006.81C1762.24,2006.81 1750.12,1921.24 1750.12,1921.24C1749.82,1943.55 1749.93,1965.85 1750.44,1988.16Z" style="fill:rgb(28,114,28);fill-rule:nonzero;"/>
                </g>
                <g transform="matrix(1,0,0,1,-1061.44,-952.971)">
                    <path d="M1755.6,1797.27L1755.61,1797.29C1755.61,1797.29 1763.49,1735.76 1871.6,1738.68C1978.03,1741.57 1991.83,1807.71 1992.24,1809.77C1991.04,1799.38 1989.54,1789.02 1987.7,1778.72C1985.12,1764.14 1981.04,1748.29 1968.92,1739.78C1962.93,1735.56 1955.63,1733.68 1948.46,1732.16C1930.82,1728.44 1912.75,1726.99 1894.74,1726.42C1877.71,1725.88 1860.66,1726.23 1843.64,1726.83C1827.21,1727.41 1810.61,1726.46 1794.3,1728.81C1783.45,1730.37 1773.75,1732.65 1766.44,1741.6C1758.83,1750.89 1756.82,1763.54 1756.44,1775.54C1756.22,1782.79 1755.94,1790.04 1755.6,1797.27Z" style="fill:rgb(86,214,86);fill-rule:nonzero;"/>
                </g>
                <g transform="matrix(1,0,0,1,-1061.44,-952.971)">
                    <path d="M1925.14,1999.14C1925.7,2008.08 1926.96,2016.98 1928.96,2025.73C1929.38,2027.59 1929.88,2029.53 1931.2,2030.92C1933.19,2033.04 1936.42,2033.27 1939.34,2033.37C1950.2,2033.71 1962.61,2033.42 1969.75,2025.24C1973.19,2021.29 1974.78,2016.09 1976.19,2011.04C1977.75,2005.49 1979.23,1999.91 1980.6,1994.3C1979.78,1996.64 1970.26,2022.32 1950.59,2020.73C1934.36,2019.41 1927.38,2005.14 1925.14,1999.14Z" style="fill:rgb(17,69,17);fill-rule:nonzero;"/>
                </g>
                <g transform="matrix(1,0,0,1,-1061.44,-952.971)">
                    <path d="M1750.55,1993.64C1750.88,2007.2 1752.3,2025.28 1767.34,2028.36C1776.76,2030.3 1779.39,2028.45 1789,2028.36C1791.87,2028.32 1794.95,2028.13 1797.16,2026.32C1798.97,2024.84 1799.86,2022.58 1800.68,2020.39C1804.22,2010.86 1807.35,2001.19 1810.1,1991.4C1810.1,1991.4 1797.46,2017.95 1779.37,2017.95C1765.43,2017.95 1755.95,2004.09 1750.55,1993.64Z" style="fill:rgb(17,69,17);fill-rule:nonzero;"/>
                </g>
            </g>
            <g transform="matrix(0.594422,0,0,0.594422,493.883,354.122)">
                <g transform="matrix(1,0,0,1,-1333.53,1.71283)">
                    <path d="M1962.4,1012.64C1958.13,1014.4 1954,1020.69 1949.88,1022.04C1936.54,1026.37 1922.94,1029.83 1909.13,1032.26C1907.19,1000.9 1909.85,969.296 1917,938.694C1917.77,935.397 1921.65,933.785 1924.45,935.685C1926.82,937.292 1928.9,940.006 1930.32,942.523C1943.72,966.209 1954.48,986.584 1962.4,1012.64Z" style="fill:rgb(28,114,28);fill-rule:nonzero;"/>
                </g>
                <g transform="matrix(1,0,0,1,-1333.53,1.71283)">
                    <path d="M1841.12,1026.79C1831.9,1025.48 1822.74,1023.65 1813.65,1021.42C1804.29,1019.07 1794.87,1016.26 1785.97,1012.4C1794.29,988.452 1806.69,965.923 1822.56,946.121C1824.8,943.331 1829.36,944.522 1830.04,948.034C1835.03,974.084 1838.71,1000.38 1841.12,1026.79Z" style="fill:rgb(28,114,28);fill-rule:nonzero;"/>
                </g>
                <g transform="matrix(1,0,0,1,-1333.53,1.71283)">
                    <path d="M1955.01,1008.99C1951.69,1010.36 1948.47,1011.47 1945.25,1012.52C1934.86,1015.9 1924.26,1018.59 1913.49,1020.49C1911.97,996.045 1914.05,971.406 1919.62,947.552C1920.22,944.981 1923.25,943.725 1925.43,945.206C1927.28,946.459 1928.9,948.574 1930.01,950.536C1940.45,969 1948.84,988.678 1955.01,1008.99Z" style="fill:white;fill-rule:nonzero;"/>
                </g>
                <g transform="matrix(1,0,0,1,-1333.53,1.71283)">
                    <path d="M1835.78,1021.81C1828.35,1020.75 1820.96,1019.28 1813.63,1017.48C1806.08,1015.58 1798.49,1013.31 1791.31,1010.2C1798.02,990.894 1808.01,972.726 1820.82,956.757C1822.62,954.507 1826.3,955.468 1826.84,958.3C1830.87,979.307 1833.84,1000.52 1835.78,1021.81Z" style="fill:white;fill-rule:nonzero;"/>
                </g>
                <g transform="matrix(1,0,0,1,-1333.53,1.71283)">
                    <path d="M1982.34,992.213C1982.34,992.213 1956.33,1045.76 1873.56,1045.76C1837.58,1045.76 1812.31,1035.52 1795.22,1023.97C1792.84,1022.34 1790.57,1020.65 1788.52,1019.01C1772.32,1006.19 1765.51,993.321 1764.72,991.738C1771.95,999.968 1781.24,1005.88 1791.31,1010.2C1798.49,1013.31 1806.08,1015.58 1813.63,1017.48C1820.96,1019.28 1828.35,1020.75 1835.78,1021.81C1861.53,1025.61 1887.91,1025.18 1913.49,1020.49C1924.26,1018.59 1934.86,1015.9 1945.25,1012.52C1948.47,1011.47 1951.69,1010.36 1955.01,1008.99C1962.87,1005.88 1971.26,1001.34 1982.34,992.213Z" style="fill:rgb(17,69,17);fill-rule:nonzero;"/>
                </g>
            </g>
            <g transform="matrix(0.44128,0,0,0.44128,450.478,487.08)">
                <g transform="matrix(1,0,0,1,-1487.54,124.056)">
                    <path d="M2409.21,728.542C2409.21,781.506 2366.27,824.441 2313.31,824.441C2260.34,824.441 2217.41,781.506 2217.41,728.542C2217.41,675.578 2260.34,632.642 2313.31,632.642C2366.27,632.642 2409.21,675.578 2409.21,728.542Z" style="fill:rgb(17,69,17);fill-rule:nonzero;"/>
                </g>
                <g transform="matrix(1,0,0,1,-1487.54,124.056)">
                    <path d="M2402.23,721.563C2402.23,770.673 2362.42,810.484 2313.31,810.484C2264.2,810.484 2224.39,770.673 2224.39,721.563C2224.39,672.454 2264.2,632.642 2313.31,632.642C2362.42,632.642 2402.23,672.454 2402.23,721.563Z" style="fill:white;fill-rule:nonzero;"/>
                </g>
                <g transform="matrix(1,0,0,1,-1487.54,124.056)">
                    <path d="M2381.06,734.291C2381.06,771.708 2350.72,802.041 2313.31,802.041C2275.89,802.041 2245.56,771.708 2245.56,734.291C2245.56,696.874 2275.89,666.541 2313.31,666.541C2350.72,666.541 2381.06,696.874 2381.06,734.291Z" style="fill:rgb(233,155,101);fill-rule:nonzero;"/>
                </g>
                <g transform="matrix(1,0,0,1,-1487.54,124.056)">
                    <path d="M2358.41,741.336C2358.41,766.246 2338.22,786.44 2313.31,786.44C2288.4,786.44 2268.2,766.246 2268.2,741.336C2268.2,716.425 2288.4,696.231 2313.31,696.231C2338.22,696.231 2358.41,716.425 2358.41,741.336Z" style="fill:rgb(98,48,14);fill-rule:nonzero;"/>
                </g>
                <g transform="matrix(1,0,0,1,-1487.54,124.056)">
                    <path d="M2350.58,741.336C2350.58,761.919 2333.89,778.605 2313.31,778.605C2292.72,778.605 2276.04,761.919 2276.04,741.336C2276.04,720.752 2292.72,704.066 2313.31,704.066C2333.89,704.066 2350.58,720.752 2350.58,741.336Z" style="fill:rgb(47,23,7);fill-rule:nonzero;"/>
                </g>
                <g transform="matrix(1,0,0,1,-1487.54,124.056)">
                    <path d="M2373.99,700.984C2373.99,716.062 2361.77,728.286 2346.69,728.286C2331.61,728.286 2319.39,716.062 2319.39,700.984C2319.39,685.906 2331.61,673.683 2346.69,673.683C2361.77,673.683 2373.99,685.906 2373.99,700.984Z" style="fill:white;fill-rule:nonzero;"/>
                </g>
                <g transform="matrix(1,0,0,1,-1487.54,124.056)">
                    <path d="M2303.34,772.79C2303.34,780.329 2297.23,786.44 2289.69,786.44C2282.15,786.44 2276.04,780.329 2276.04,772.79C2276.04,765.251 2282.15,759.139 2289.69,759.139C2297.23,759.139 2303.34,765.251 2303.34,772.79Z" style="fill:white;fill-rule:nonzero;"/>
                </g>
                <g transform="matrix(1,0,0,1,-1487.54,124.056)">
                    <path d="M2346.69,776.075C2346.69,780.684 2342.95,784.42 2338.35,784.42C2333.74,784.42 2330,780.684 2330,776.075C2330,771.466 2333.74,767.73 2338.35,767.73C2342.95,767.73 2346.69,771.466 2346.69,776.075Z" style="fill:white;fill-rule:nonzero;"/>
                </g>
            </g>
        </g>
    </g>
</svg>
