<?xml version="1.0" encoding="UTF-8" standalone="no"?>
<!DOCTYPE svg PUBLIC "-//W3C//DTD SVG 1.1//EN" "http://www.w3.org/Graphics/SVG/1.1/DTD/svg11.dtd">
<svg width="100%" height="100%" viewBox="0 0 565 512" version="1.1" xmlns="http://www.w3.org/2000/svg" xmlns:xlink="http://www.w3.org/1999/xlink" xml:space="preserve" xmlns:serif="http://www.serif.com/" style="fill-rule:evenodd;clip-rule:evenodd;stroke-linejoin:round;stroke-miterlimit:2;">
    <g transform="matrix(1,0,0,1,-178.114,-340.13)">
        <g transform="matrix(1.53426,0,0,1.53426,-368.115,-434.036)">
            <g transform="matrix(1,0,0,1,-1810.58,-1195.51)">
                <path d="M2531.8,1839.08C2530.98,1842.57 2529.98,1846.01 2528.75,1849.38C2521.83,1868.61 2507.88,1885.66 2489.31,1894.18C2474.34,1901.07 2456.43,1901.82 2441.29,1895.64C2437.64,1894.18 2434.17,1892.3 2430.93,1890.02L2434.65,1855.25C2438.51,1857.5 2442.79,1858.57 2447.18,1858.65C2452.67,1858.78 2458.31,1857.38 2463.43,1854.91C2466.29,1853.53 2468.97,1851.82 2471.39,1849.84C2481.62,1841.52 2487.99,1829.51 2494.11,1817.82C2499.46,1807.6 2504.81,1797.39 2510.16,1787.16C2512.98,1781.75 2517.55,1775.44 2523.54,1776.69C2528.68,1777.76 2530.9,1783.79 2531.94,1788.93C2535.26,1805.45 2535.64,1822.75 2531.8,1839.08Z" style="fill:rgb(247,170,62);fill-rule:nonzero;"/>
            </g>
            <g transform="matrix(1,0,0,1,-1810.58,-1195.51)">
                <path d="M2531.8,1839.08C2530.98,1842.57 2529.98,1846.01 2528.75,1849.38C2521.83,1868.61 2507.88,1885.66 2489.31,1894.18C2474.34,1901.07 2456.43,1901.82 2441.29,1895.64C2443.78,1882.25 2446.56,1863.77 2446.56,1863.77L2447.18,1858.65C2452.67,1858.78 2458.31,1857.38 2463.43,1854.91C2463.85,1863.14 2467.86,1880.64 2494.97,1874.05C2512.1,1869.89 2524.07,1854.12 2531.8,1839.08Z" style="fill:rgb(218,98,63);fill-rule:nonzero;"/>
            </g>
            <g transform="matrix(1,0,0,1,-1810.58,-1195.51)">
                <path d="M2412.61,2017.14C2412.05,2018.67 2410.82,2019.92 2409.44,2020.82C2404.74,2023.91 2398.58,2023.3 2393.1,2021.67C2392.69,2021.57 2392.27,2021.44 2391.87,2021.3C2376.48,2016.29 2363.24,2005.26 2355.07,1991.32C2353.65,1988.9 2352.36,1986.38 2351.27,1983.79C2349.99,1980.78 2348.93,1977.66 2348.12,1974.47L2368.88,1972.48L2383.37,1971.07L2392.1,1970.23C2392,1971.17 2391.94,1972.09 2391.93,1973.03C2391.81,1985.35 2399.43,1996.78 2407.91,2005.97C2410.78,2009.1 2414.05,2013.13 2412.61,2017.14Z" style="fill:rgb(247,170,62);fill-rule:nonzero;"/>
            </g>
            <g transform="matrix(1,0,0,1,-1810.58,-1195.51)">
                <path d="M2412.61,2017.14C2412.05,2018.67 2410.82,2019.92 2409.44,2020.82C2404.74,2023.91 2398.58,2023.3 2393.1,2021.67C2397.3,2012.36 2392.35,1997.13 2379.07,1994.25C2368.6,1991.97 2360.06,1991.41 2355.07,1991.32C2353.65,1988.9 2352.36,1986.38 2351.27,1983.79L2353.09,1976.14C2353.42,1975.81 2361.67,1974.01 2368.88,1972.48C2374.6,1971.27 2379.67,1970.23 2379.67,1970.23L2383.37,1971.07L2391.93,1973.03C2391.81,1985.35 2399.43,1996.78 2407.91,2005.97C2410.78,2009.1 2414.05,2013.13 2412.61,2017.14Z" style="fill:rgb(218,98,63);fill-rule:nonzero;"/>
            </g>
            <g transform="matrix(1,0,0,1,-1810.58,-1195.51)">
                <path d="M2330.28,2032.74C2325.28,2034.25 2319.86,2033.14 2314.88,2031.51C2314.11,2031.26 2313.34,2030.99 2312.57,2030.7C2291.05,2022.84 2273.57,2004.8 2265.76,1983.3C2264.23,1979.06 2263.06,1974.68 2262.31,1970.23C2262.17,1969.44 2262.06,1968.66 2261.94,1967.85L2281.95,1971.48L2308.37,1976.27L2311.21,1976.79C2311.23,1977.43 2311.27,1978.06 2311.35,1978.67C2312.61,1991.66 2321.9,2002.67 2331.72,2011.44C2334.75,2014.15 2338.07,2017.08 2338.72,2021.07C2339.57,2026.23 2335.29,2031.2 2330.28,2032.74Z" style="fill:rgb(247,170,62);fill-rule:nonzero;"/>
            </g>
            <g transform="matrix(1,0,0,1,-1810.58,-1195.51)">
                <path d="M2330.28,2032.74C2325.28,2034.25 2319.86,2033.14 2314.88,2031.51C2314.11,2031.26 2313.34,2030.99 2312.57,2030.7C2330.13,2020.46 2312.52,1993.79 2295.84,1991.49C2283.43,1989.78 2271.96,1985.75 2265.76,1983.3C2264.23,1979.06 2263.06,1974.68 2262.31,1970.23L2265.34,1970.23L2281.95,1971.48L2304.54,1973.19L2308.37,1976.27L2311.35,1978.67C2312.61,1991.66 2321.9,2002.67 2331.72,2011.44C2334.75,2014.15 2338.07,2017.08 2338.72,2021.07C2339.57,2026.23 2335.29,2031.2 2330.28,2032.74Z" style="fill:rgb(218,98,63);fill-rule:nonzero;"/>
            </g>
            <g transform="matrix(1,0,0,1,-1810.58,-1195.51)">
                <path d="M2231.57,1841.59L2230.63,1848.67L2220.89,1922.25C2216.97,1932.59 2213.58,1943.12 2210.7,1953.79C2208.97,1960.2 2207.42,1966.72 2204.41,1972.65C2201.41,1978.58 2196.75,1983.95 2190.54,1986.31C2186.72,1987.77 2182.23,1987.96 2178.68,1985.94C2176.13,1984.49 2174.29,1982.05 2172.79,1979.5C2171.41,1977.14 2170.28,1974.68 2169.39,1972.17C2163.72,1956.13 2167.55,1937.33 2173.17,1920.77C2180.56,1899.01 2191.4,1877.47 2206.96,1860.87C2212.95,1854.49 2219.64,1848.83 2227.12,1844.2C2228.58,1843.28 2230.06,1842.42 2231.57,1841.59Z" style="fill:rgb(247,170,62);fill-rule:nonzero;"/>
            </g>
            <g transform="matrix(1,0,0,1,-1810.58,-1195.51)">
                <path d="M2230.63,1848.67L2220.89,1922.25C2216.97,1932.59 2213.58,1943.12 2210.7,1953.79C2208.97,1960.2 2207.42,1966.72 2204.41,1972.65C2201.41,1978.58 2196.75,1983.95 2190.54,1986.31C2186.72,1987.77 2182.23,1987.96 2178.68,1985.94C2176.13,1984.49 2174.29,1982.05 2172.79,1979.5C2171.41,1977.14 2170.28,1974.68 2169.39,1972.17C2182.81,1967.79 2193.09,1947.92 2194.32,1923.3C2195.7,1895.7 2204,1869.41 2206.96,1860.87C2212.95,1854.49 2219.64,1848.83 2227.12,1844.2L2230.63,1848.67Z" style="fill:rgb(218,98,63);fill-rule:nonzero;"/>
            </g>
            <g transform="matrix(0.524497,0,0,0.465137,296.67,370.583)">
                <g transform="matrix(2.0686,0.666416,-0.985511,3.05909,-24.142,-1189.06)">
                    <path d="M468.413,380.831C435.785,402.129 403.157,432.918 403.157,455.241C403.157,472.799 422.236,487.055 445.734,487.055C469.233,487.055 488.311,472.799 488.311,455.241C488.311,432.918 448.558,418.036 468.413,380.831Z" style="fill:rgb(248,178,81);"/>
                </g>
                <g transform="matrix(2.16327,0.20852,-0.308364,3.19909,-397.943,-1022.86)">
                    <path d="M468.413,380.831C435.785,401.541 403.157,432.507 403.157,454.653C403.157,472.536 422.236,487.055 445.734,487.055C469.233,487.055 488.311,472.536 488.311,454.653C488.311,432.507 448.558,417.742 468.413,380.831Z" style="fill:rgb(248,178,81);"/>
                </g>
                <g transform="matrix(0.618692,0,0,0.734164,164.322,109.126)">
                    <g transform="matrix(2.0686,0.666416,-0.985511,3.05909,-33.8247,-1138.25)">
                        <path d="M468.413,380.831C435.785,406.308 403.157,435.843 403.157,459.419C403.157,474.672 422.236,487.055 445.734,487.055C469.233,487.055 488.311,474.672 488.311,459.419C488.311,435.843 448.558,420.125 468.413,380.831Z" style="fill:rgb(249,248,113);"/>
                    </g>
                    <g transform="matrix(2.16327,0.20852,-0.308364,3.19909,-407.626,-972.042)">
                        <path d="M468.413,380.831C435.785,406.557 403.157,436.017 403.157,459.668C403.157,474.783 422.236,487.055 445.734,487.055C469.233,487.055 488.311,474.783 488.311,459.668C488.311,436.017 448.558,420.25 468.413,380.831Z" style="fill:rgb(249,248,113);"/>
                    </g>
                </g>
            </g>
            <g transform="matrix(1,0,0,1,-1810.58,-1195.51)">
                <path d="M2466.44,1922.44C2466.29,1928.46 2465.77,1934.57 2463.89,1940.28C2460.36,1951.03 2452.09,1959.77 2442.46,1965.72C2432.85,1971.65 2421.85,1975.05 2410.84,1977.66C2358.93,1989.95 2304.08,1985.96 2252.47,1972.42C2239.63,1969.06 2226.68,1964.97 2215.94,1957.17C2211.87,1954.21 2208.09,1950.66 2205.75,1946.19C2203.39,1941.7 2202.62,1936.56 2202.14,1931.51C2199.67,1905.1 2203.47,1876.82 2215.17,1853.01C2215.17,1853.01 2217.01,1849.52 2220.24,1844.01L2220.24,1843.97C2229.43,1828.24 2249.86,1796.18 2270.73,1782.81C2298.93,1764.74 2334.54,1758.42 2367.12,1766.23C2399.7,1774.02 2428.72,1795.97 2444.67,1825.44C2447.49,1830.66 2449.9,1836.05 2452.01,1841.59C2454.47,1848.02 2456.52,1854.62 2458.33,1861.26C2463.74,1881.19 2467.02,1901.82 2466.44,1922.44Z" style="fill:rgb(221,112,80);fill-rule:nonzero;"/>
            </g>
            <g transform="matrix(1,0,0,1,-1810.58,-1195.51)">
                <path d="M2417.23,1958.59C2367.04,1971.13 2261.94,1967.85 2230.63,1936.58C2208.03,1914.04 2214.75,1867.93 2220.24,1844.01L2220.24,1843.97C2223.38,1838.58 2227.85,1831.27 2233.2,1823.46C2233.2,1823.46 2233.22,1823.44 2233.26,1823.39C2243.53,1808.4 2257.03,1791.58 2270.73,1782.81C2298.93,1764.74 2334.54,1758.42 2367.12,1766.23C2399.7,1774.02 2428.72,1795.97 2444.67,1825.44C2445.24,1826.51 2445.82,1827.59 2446.33,1828.68C2448.46,1832.88 2450.34,1837.18 2452.01,1841.59C2452.01,1841.59 2467.42,1946.04 2417.23,1958.59Z" style="fill:rgb(248,178,81);fill-rule:nonzero;"/>
            </g>
            <g transform="matrix(1,0,0,1.00837,-1810.58,-1210.81)">
                <path d="M2446.33,1828.68C2444.32,1825.71 2410.96,1778.05 2346.21,1773.85C2280.77,1769.63 2235.16,1821.22 2233.26,1823.39C2243.53,1808.4 2257.03,1791.58 2270.73,1782.81C2298.93,1764.74 2334.54,1758.42 2367.12,1766.23C2399.7,1774.02 2428.72,1795.97 2444.67,1825.44C2445.24,1826.51 2445.82,1827.59 2446.33,1828.68Z" style="fill:rgb(249,248,113);fill-rule:nonzero;"/>
            </g>
            <g transform="matrix(0.398213,0,0,0.398213,-27.7585,349.071)">
                <path d="M1334.36,736.327C1334.36,769.136 1307.76,795.733 1274.95,795.733C1242.14,795.733 1215.55,769.136 1215.55,736.327C1215.55,703.517 1242.14,676.92 1274.95,676.92C1307.76,676.92 1334.36,703.517 1334.36,736.327Z" style="fill:rgb(218,98,63);fill-rule:nonzero;"/>
                <path d="M1328.55,730.518C1328.55,760.12 1304.55,784.117 1274.95,784.117C1245.35,784.117 1221.35,760.12 1221.35,730.518C1221.35,700.917 1245.35,676.92 1274.95,676.92C1304.55,676.92 1328.55,700.917 1328.55,730.518Z" style="fill:white;fill-rule:nonzero;"/>
                <path d="M1315.05,736.327C1315.05,759.588 1296.2,778.445 1272.94,778.445C1249.68,778.445 1230.82,759.588 1230.82,736.327C1230.82,713.065 1249.68,694.208 1272.94,694.208C1296.2,694.208 1315.05,713.065 1315.05,736.327Z" style="fill:rgb(244,64,30);fill-rule:nonzero;"/>
                <path d="M1304.77,741.927C1304.77,759.509 1290.52,773.761 1272.94,773.761C1255.36,773.761 1241.1,759.509 1241.1,741.927C1241.1,724.346 1255.36,710.093 1272.94,710.093C1290.52,710.093 1304.77,724.346 1304.77,741.927Z" style="fill:rgb(101,21,5);fill-rule:nonzero;"/>
                <path d="M1300.05,716.352C1300.05,723.084 1294.6,728.542 1287.87,728.542C1281.13,728.542 1275.68,723.084 1275.68,716.352C1275.68,709.62 1281.13,704.163 1287.87,704.163C1294.6,704.163 1300.05,709.62 1300.05,716.352Z" style="fill:white;fill-rule:nonzero;"/>
                <path d="M1268.64,760.706C1268.64,764.46 1265.59,767.504 1261.84,767.504C1258.09,767.504 1255.04,764.46 1255.04,760.706C1255.04,756.952 1258.09,753.909 1261.84,753.909C1265.59,753.909 1268.64,756.952 1268.64,760.706Z" style="fill:white;fill-rule:nonzero;"/>
                <path d="M1459.15,736.327C1459.15,769.136 1485.75,795.733 1518.55,795.733C1551.36,795.733 1577.96,769.136 1577.96,736.327C1577.96,703.517 1551.36,676.92 1518.55,676.92C1485.75,676.92 1459.15,703.517 1459.15,736.327Z" style="fill:rgb(218,98,63);fill-rule:nonzero;"/>
                <path d="M1464.96,730.518C1464.96,760.12 1488.95,784.117 1518.55,784.117C1548.16,784.117 1572.15,760.12 1572.15,730.518C1572.15,700.917 1548.16,676.92 1518.55,676.92C1488.95,676.92 1464.96,700.917 1464.96,730.518Z" style="fill:white;fill-rule:nonzero;"/>
                <path d="M1478.45,736.327C1478.45,759.588 1497.31,778.445 1520.57,778.445C1543.83,778.445 1562.69,759.588 1562.69,736.327C1562.69,713.065 1543.83,694.208 1520.57,694.208C1497.31,694.208 1478.45,713.065 1478.45,736.327Z" style="fill:rgb(244,64,29);fill-rule:nonzero;"/>
                <path d="M1488.74,741.927C1488.74,759.509 1502.99,773.761 1520.57,773.761C1538.15,773.761 1552.41,759.509 1552.41,741.927C1552.41,724.346 1538.15,710.093 1520.57,710.093C1502.99,710.093 1488.74,724.346 1488.74,741.927Z" style="fill:rgb(101,21,5);fill-rule:nonzero;"/>
                <path d="M1493.45,716.352C1493.45,723.084 1498.91,728.542 1505.64,728.542C1512.37,728.542 1517.83,723.084 1517.83,716.352C1517.83,709.62 1512.37,704.163 1505.64,704.163C1498.91,704.163 1493.45,709.62 1493.45,716.352Z" style="fill:white;fill-rule:nonzero;"/>
                <path d="M1524.87,760.706C1524.87,764.46 1527.91,767.504 1531.67,767.504C1535.42,767.504 1538.47,764.46 1538.47,760.706C1538.47,756.952 1535.42,753.909 1531.67,753.909C1527.91,753.909 1524.87,756.952 1524.87,760.706Z" style="fill:white;fill-rule:nonzero;"/>
            </g>
            <g transform="matrix(0.300682,0,0,0.300682,399.595,404.495)">
                <path d="M576.223,1028.88C573.018,1042.02 566.678,1053.17 558.308,1062.5C557.132,1063.82 555.921,1065.06 554.675,1066.31C535.691,1085.22 508.088,1096.3 482.194,1102.07C475.676,1103.53 469.087,1104.78 462.462,1105.74C412.598,1113.18 351.657,1108.73 309.344,1078.6C307.955,1077.6 306.566,1076.57 305.212,1075.46C304.358,1074.79 303.503,1074.08 302.648,1073.36C286.264,1059.54 274.475,1040.42 272.195,1018.73C270.058,998.496 276.612,975.808 291.179,962.594L291.215,962.594C298.837,955.685 308.596,951.375 320.492,951.339C321.703,951.339 322.95,951.375 324.161,951.446C333.599,951.98 342.824,954.687 351.693,957.964C352.156,958.142 352.583,958.32 353.046,958.498C363.767,962.63 374.88,966.868 385.03,971.997C395.359,977.233 407.113,981.365 418.653,982.896C435.892,985.211 449.889,978.373 465.026,970.929C477.457,964.838 490.315,959.496 503.635,955.685C505.487,955.15 507.34,954.652 509.192,954.189C515.531,952.622 522.12,951.375 528.639,951.268C533.696,951.161 538.683,951.695 543.526,953.191C553.784,956.397 561.62,963.057 567.248,971.534C578.075,987.847 580.64,1010.89 576.223,1028.88Z" style="fill:rgb(119,0,60);fill-rule:nonzero;"/>
                <path d="M354.756,1005.09C354.471,1008.26 353.723,1011.75 351.087,1013.46C348.523,1015.09 344.997,1014.45 342.575,1012.64C340.153,1010.82 338.586,1008.11 337.197,1005.41C330.144,991.693 325.799,976.556 324.41,961.17C324.196,958.819 324.054,956.433 323.983,954.082C323.983,953.227 323.983,952.301 324.161,951.446C333.599,951.98 342.824,954.687 351.693,957.964C351.728,961.312 351.978,964.696 352.298,968.044C353.509,980.403 355.86,992.726 354.756,1005.09Z" style="fill:white;fill-rule:nonzero;"/>
                <path d="M520.589,1009.15C519.663,1010.86 518.594,1012.57 516.956,1013.56C512.432,1016.27 509.868,1011.21 509.156,1007.58C506.698,994.757 506.057,981.507 504.882,968.044C504.526,963.948 504.134,959.816 503.635,955.685C505.487,955.15 507.34,954.652 509.192,954.189C515.531,952.622 522.12,951.375 528.639,951.268C529.137,955.257 529.493,959.353 529.6,963.52C530.099,979.512 527.641,996.253 520.589,1009.15Z" style="fill:white;fill-rule:nonzero;"/>
                <path d="M558.308,1062.5C557.132,1063.82 555.921,1065.06 554.675,1066.31C535.691,1085.22 508.088,1096.3 482.194,1102.07C475.676,1103.53 469.087,1104.78 462.462,1105.74C412.598,1113.18 351.657,1108.73 309.344,1078.6C307.955,1077.6 306.566,1076.57 305.212,1075.46C304.358,1074.79 303.503,1074.08 302.648,1073.36C314.01,1064 357.285,1032.83 429.944,1031.3C499.076,1029.84 543.705,1053.38 558.308,1062.5Z" style="fill:rgb(91,0,50);fill-rule:nonzero;"/>
                <path d="M554.675,1066.31C535.691,1085.22 508.088,1096.3 482.194,1102.07C475.676,1103.53 469.087,1104.78 462.462,1105.74C412.598,1113.18 351.657,1108.73 309.344,1078.6C307.955,1077.6 306.566,1076.57 305.212,1075.46C318.533,1067.34 333.457,1062.61 348.63,1058.58C352.156,1057.62 355.646,1056.73 359.172,1055.8C383.784,1049.46 408.965,1045.01 434.36,1043.59C463.958,1041.95 499.076,1043.34 529.209,1054.02C538.255,1057.23 546.839,1061.25 554.675,1066.31Z" style="fill:rgb(211,47,106);fill-rule:nonzero;"/>
                <path d="M323.983,954.082C324.054,956.433 324.196,958.819 324.41,961.17C305.604,959.033 292.141,962.345 291.215,962.594C298.837,955.685 308.596,951.375 320.492,951.339C321.703,951.339 322.95,951.375 324.161,951.446C323.983,952.301 323.983,953.227 323.983,954.082Z" style="fill:rgb(91,0,50);fill-rule:nonzero;"/>
                <path d="M503.635,955.685C504.134,959.816 504.526,963.948 504.882,968.044C493.627,971.321 483.049,976.022 474.144,980.902C448.856,994.757 408.823,1000.63 369.395,976.521C363.625,972.994 357.89,970.216 352.298,968.044C351.978,964.696 351.728,961.312 351.693,957.964C352.156,958.142 352.583,958.32 353.046,958.498C363.767,962.63 374.88,966.868 385.03,971.997C395.359,977.233 407.113,981.365 418.653,982.896C435.892,985.211 449.889,978.373 465.026,970.929C477.457,964.838 490.315,959.496 503.635,955.685Z" style="fill:rgb(91,0,50);fill-rule:nonzero;"/>
                <path d="M567.248,971.534C555.814,964.803 542.743,962.701 529.6,963.52C529.493,959.353 529.137,955.257 528.639,951.268C533.696,951.161 538.683,951.695 543.526,953.191C553.784,956.397 561.62,963.057 567.248,971.534Z" style="fill:rgb(91,0,50);fill-rule:nonzero;"/>
                <path d="M351.693,957.964C351.728,961.312 351.978,964.696 352.298,968.044C342.361,964.126 332.851,962.096 324.41,961.17C324.196,958.819 324.054,956.433 323.983,954.082C323.983,953.227 323.983,952.301 324.161,951.446C333.599,951.98 342.824,954.687 351.693,957.964Z" style="fill:rgb(255,225,234);fill-rule:nonzero;"/>
                <path d="M529.6,963.52C521.266,963.983 512.896,965.657 504.882,968.044C504.526,963.948 504.134,959.816 503.635,955.685C505.487,955.15 507.34,954.652 509.192,954.189C515.531,952.622 522.12,951.375 528.639,951.268C529.137,955.257 529.493,959.353 529.6,963.52Z" style="fill:rgb(255,225,234);fill-rule:nonzero;"/>
                <path d="M525.611,1069.2C518.203,1077.57 506.556,1080.49 495.586,1082.45C476.388,1085.9 456.941,1087.68 437.53,1089.5C427.237,1090.46 416.872,1091.39 406.543,1091.28C392.581,1091.07 378.655,1088.93 365.12,1085.54C359.493,1084.16 353.759,1082.45 349.413,1078.63C345.068,1074.82 342.539,1068.38 344.926,1063.11C345.78,1061.29 347.098,1059.79 348.63,1058.58C352.156,1057.62 355.646,1056.73 359.172,1055.8C383.784,1049.46 408.965,1045.01 434.36,1043.59C463.958,1041.95 499.076,1043.34 529.209,1054.02C529.636,1055.02 529.956,1056.09 530.099,1057.19C530.704,1061.57 528.532,1065.92 525.611,1069.2Z" style="fill:rgb(224,63,129);fill-rule:nonzero;"/>
            </g>
        </g>
    </g>
</svg>
