<?xml version="1.0" encoding="UTF-8" standalone="no"?>
<!DOCTYPE svg PUBLIC "-//W3C//DTD SVG 1.1//EN" "http://www.w3.org/Graphics/SVG/1.1/DTD/svg11.dtd">
<svg width="100%" height="100%" viewBox="0 0 589 576" version="1.1" xmlns="http://www.w3.org/2000/svg" xmlns:xlink="http://www.w3.org/1999/xlink" xml:space="preserve" xmlns:serif="http://www.serif.com/" style="fill-rule:evenodd;clip-rule:evenodd;stroke-linejoin:round;stroke-miterlimit:2;">
    <g transform="matrix(1,0,0,1,-78.729,-69.7797)">
        <g transform="matrix(1,0,0,1,-56.4086,-313.734)">
            <g>
                <g transform="matrix(1,0,0,1,-211.736,-283.353)">
                    <path d="M495.725,1192.94C473.589,1181.89 450.42,1167.27 437.193,1147.3C429.208,1135.25 425.849,1122.05 423.078,1108.64C420.383,1095.6 418.25,1082.37 412.653,1069.89C406.047,1055.17 396.367,1042.13 386.982,1028.94C377.423,1015.5 368.169,1001.9 362.588,986.314C357.034,970.8 357.229,956.094 359.397,941.408C361.521,927.024 365.553,912.662 367.743,897.55C370.055,881.602 368.093,865.74 372.424,849.989C376.849,833.898 387.638,826.216 399.54,819.632C410.773,813.419 423.039,808.252 431.151,796.974C439.58,785.255 444.704,771.148 450.462,757.755C456.397,743.949 463.014,730.899 474.232,721.72C482.422,715.019 501.756,707.688 523.824,701.479C556.676,692.236 595.579,685.388 612.164,686.284C674.599,689.659 737.411,698.237 803.747,726.371C819.796,733.179 850.654,757.922 874.434,782.951C890.42,799.777 903.171,816.766 906.323,828.512C911.487,847.752 915.479,866.39 918.752,885.559C928.754,944.144 924.619,1010.78 888.9,1060.79C878.698,1075.07 866.016,1087.48 855.316,1101.42C846.191,1113.3 840.564,1130.71 834.702,1147.34C828.653,1164.51 822.318,1180.86 812.102,1190.03C803.938,1197.35 791.504,1200.17 778.517,1201.95C766.067,1203.66 753.118,1204.44 743.311,1207.88C730.883,1212.23 720.017,1219.43 708.957,1226.11C697.586,1232.98 686.011,1239.31 672.468,1241.72C657.104,1244.46 642.456,1241.76 628.142,1237.23C614.119,1232.79 600.42,1226.58 586.664,1222.18C550.853,1210.74 520.545,1205.33 495.725,1192.94ZM497.422,1189.54C522.091,1201.86 552.228,1207.19 587.82,1218.56C601.573,1222.95 615.269,1229.16 629.29,1233.61C643.02,1237.95 657.064,1240.61 671.802,1237.98C684.872,1235.65 696.018,1229.49 706.991,1222.86C718.275,1216.04 729.377,1208.73 742.056,1204.29C752.071,1200.79 765.286,1199.93 778.001,1198.19C790.179,1196.52 801.908,1194.07 809.564,1187.2C819.384,1178.39 825.304,1162.58 831.118,1146.08C837.119,1129.05 842.961,1111.27 852.302,1099.1C862.975,1085.2 875.631,1072.83 885.807,1058.58C920.941,1009.39 924.844,943.822 915.006,886.198C911.753,867.146 907.786,848.621 902.653,829.497C899.607,818.144 887.13,801.831 871.679,785.569C848.305,760.966 818.039,736.561 802.263,729.87C736.372,701.924 673.975,693.431 611.959,690.079C595.603,689.194 557.251,696.022 524.853,705.137C503.422,711.166 484.592,718.154 476.639,724.661C465.888,733.457 459.641,746.025 453.953,759.256C448.086,772.902 442.824,787.254 434.236,799.193C425.778,810.951 413.091,816.479 401.379,822.957C390.338,829.065 380.193,836.069 376.088,850.996C371.799,866.593 373.793,882.304 371.504,898.095C369.313,913.21 365.281,927.576 363.157,941.963C361.077,956.048 360.839,970.154 366.166,985.034C371.628,1000.29 380.722,1013.58 390.078,1026.73C399.608,1040.13 409.412,1053.39 416.12,1068.34C421.832,1081.07 424.049,1094.56 426.799,1107.87C429.474,1120.81 432.655,1133.57 440.361,1145.2C453.239,1164.64 475.871,1178.78 497.422,1189.54Z" style="fill:rgb(158,100,205);"/>
                </g>
                <g transform="matrix(-0.2412,1.01115,-1.02985,-0.245661,1566.61,252.361)">
                    <path d="M380.113,950.63C378.379,944.905 376.939,939.074 375.929,933.084C366.086,874.682 395.845,814.145 428.517,767.036C446.011,741.813 476.871,722.664 507.057,718.215C507.177,718.198 507.297,718.18 507.417,718.163C519.555,706.481 532.901,695.67 547.516,690.855C562.55,685.903 579.309,685.328 595.88,685.466C604.142,680.954 612.889,677.385 622.875,676.107C683.259,668.384 746.089,699.373 796.388,735.555C796.46,735.598 796.53,735.646 796.598,735.7C796.621,735.719 796.645,735.738 796.669,735.757C806.823,743.072 816.465,750.597 825.47,758.054C842.09,771.818 861.924,783.238 874.564,801.125C889.132,821.739 893.013,845.818 900.572,869.335C916.606,919.218 934.625,966.175 915.651,1019.45C910.944,1032.66 903.061,1043.4 894.678,1053.89C889.687,1067.1 883.534,1080.73 878.238,1090.01C875.411,1094.96 869.585,1101.84 861.992,1109.53C859.584,1116.49 857.017,1123.35 853.188,1129.48C844.474,1143.42 829.722,1153.21 817.721,1164.1C795.365,1184.4 779.458,1204.84 749.431,1213.85C693.239,1230.7 589.832,1242.17 536.545,1217.13C491.876,1196.14 474.962,1155.6 449.267,1117.29C438.335,1100.99 422.805,1085.57 408.765,1069.34C394.49,1052.84 381.762,1035.49 376.675,1015.62C371.867,996.851 370.855,968.837 380.113,950.63ZM856.036,1115.38C849.015,1122.1 840.97,1129.2 832.625,1136.03C811.815,1153.07 789.137,1168.45 775.905,1172.36C760.084,1177.04 747.361,1188.53 735.099,1199.86C729.492,1205.04 718.924,1209.88 706.298,1213.87C687.69,1219.75 664.59,1223.88 646.796,1224.96C639.07,1225.43 632.33,1225.32 627.36,1224.55C623.73,1223.99 620.984,1223.04 619.33,1221.79C608.55,1213.65 594.195,1211.34 579.769,1209.77C564.805,1208.14 549.75,1207.32 538.172,1202.3C526.824,1197.37 520.407,1192.11 514.277,1186.11C508.331,1180.29 502.666,1173.73 492.764,1166.05C485.482,1160.4 478.767,1154.19 472.554,1147.51C489.193,1174.27 506.583,1199.07 538.123,1213.89C590.749,1238.62 692.869,1227.06 748.363,1210.41C777.818,1201.58 793.309,1181.38 815.24,1161.47C827.002,1150.79 841.532,1141.27 850.072,1127.6C852.469,1123.77 854.365,1119.64 856.036,1115.38ZM436.913,1095.5C424.424,1071.28 415.068,1045.3 407.231,1020.43C400.242,998.262 389.106,977.703 381.757,955.777C374.615,973.2 375.897,997.87 380.22,1014.75C385.174,1034.1 397.649,1050.95 411.551,1067.02C419.906,1076.68 428.779,1086.06 436.913,1095.5ZM886.964,1063.45C881,1070.92 875.22,1078.62 870.641,1087.4C868.321,1091.85 866.496,1096.58 864.8,1101.38C869.464,1096.29 873.037,1091.78 875.049,1088.26C878.823,1081.64 883.05,1072.78 886.964,1063.45ZM813.372,752.908C822.463,764.537 829.8,778.078 836.458,792.054C846.631,813.405 855.226,835.765 866.29,853.655C875.703,868.876 887.625,883.585 897.676,899.182C907.885,915.025 916.164,931.782 918.127,950.852C919.448,963.688 916.484,975.208 912.871,986.601C909.366,997.649 905.243,1008.57 904.126,1020.54C903.619,1025.98 901.541,1033.97 898.601,1042.85C904.078,1035.36 908.936,1027.43 912.201,1018.26C930.891,965.785 912.881,919.554 897.086,870.415C889.638,847.243 885.914,823.482 871.561,803.171C859.104,785.544 839.492,774.362 823.113,760.798C819.944,758.173 816.695,755.539 813.372,752.908ZM603.623,685.568C611.29,685.694 618.851,685.85 626.113,685.666C627.121,685.641 627.961,686.424 627.987,687.414C628.013,688.404 627.215,689.229 626.207,689.254C616.795,689.492 606.873,689.136 596.875,689.024C593.333,690.995 589.879,693.138 586.448,695.334C574.816,702.776 563.431,710.817 549.905,715.17C536.583,719.458 522.742,719.666 509.03,721.561C501.276,729.112 494.027,736.996 487.247,743.775C474.223,756.8 461.1,765.904 448.888,775.26C430.907,789.036 414.926,803.365 404.362,832.143C399.423,845.596 400.188,859.027 401.515,872.476C402.884,886.35 404.846,900.245 402.249,914.206C399.821,927.255 391.284,938.756 384.646,949.936C384.436,950.291 384.23,950.65 384.029,951.013C391.279,974.357 403.341,995.955 410.723,1019.37C427.108,1071.35 450.066,1128.37 495.03,1163.24C505.073,1171.02 510.828,1177.66 516.859,1183.57C522.707,1189.3 528.825,1194.31 539.651,1199.01C550.924,1203.91 565.6,1204.62 580.171,1206.2C595.281,1207.84 610.267,1210.42 621.558,1218.95C622.862,1219.93 625.067,1220.57 627.929,1221.01C632.696,1221.75 639.16,1221.83 646.57,1221.38C664.097,1220.31 686.85,1216.24 705.178,1210.45C717.174,1206.66 727.267,1202.17 732.594,1197.25C745.27,1185.54 758.497,1173.76 774.851,1168.93C787.799,1165.1 809.921,1149.95 830.284,1133.27C840.788,1124.67 850.825,1115.66 858.876,1107.57C861.431,1100.14 863.815,1092.61 867.387,1085.76C873.932,1073.22 882.862,1062.82 891.359,1052.22C891.409,1052.16 891.459,1052.1 891.509,1052.04C896.209,1039.54 899.804,1027.52 900.486,1020.22C901.627,1007.99 905.801,996.819 909.38,985.534C912.851,974.593 915.759,963.539 914.49,951.213C912.585,932.709 904.493,916.473 894.587,901.101C884.524,885.485 872.59,870.757 863.165,855.518C852.039,837.526 843.377,815.047 833.147,793.575C823.066,772.415 811.469,752.227 794.289,738.483C794.271,738.468 794.253,738.453 794.235,738.438C744.67,702.735 682.845,672.056 623.348,679.667C616.207,680.58 609.735,682.731 603.623,685.568ZM513.4,717.399C525.294,716.05 537.23,715.473 548.767,711.76C561.985,707.505 573.084,699.6 584.452,692.327C586.218,691.197 587.99,690.082 589.776,688.997C575.618,689.07 561.51,690.031 548.679,694.258C535.921,698.461 524.189,707.376 513.4,717.399ZM382.624,946.242C388.871,936.005 396.437,925.472 398.653,913.561C401.189,899.932 399.213,886.367 397.876,872.822C396.498,858.85 395.792,844.902 400.923,830.926C411.78,801.349 428.16,786.589 446.639,772.431C458.734,763.164 471.74,754.16 484.639,741.261C490.385,735.515 496.475,729.01 502.922,722.574C475.216,728.067 447.579,745.929 431.539,769.057C399.367,815.445 369.843,874.989 379.536,932.498C380.323,937.168 381.375,941.742 382.624,946.242Z" style="fill:rgb(158,100,205);"/>
                </g>
                <g transform="matrix(0.957528,0.288339,-0.288339,0.957528,92.1926,-421.578)">
                    <path d="M381.032,1062.82C379.369,1056.04 377.992,1049.16 376.869,1042.2C373.246,1019.73 372.28,996.416 372.897,972.993C365.378,940.602 357.935,908.021 367.332,874.928C371.883,858.9 380.438,844.438 386.989,829.212C388.04,826.77 389.025,824.296 389.978,821.804C397.447,787.084 411.093,758.084 446.963,726.331C462.311,712.744 480.204,703.28 499.342,696.736C508.539,689.338 520.286,683.399 536.881,679.328C548.89,676.382 565.042,674.348 582.333,673.153C591.75,670.13 600.035,668.056 606.41,667.319C637.265,663.752 654.867,665.42 668.228,670.481C688.828,671.082 706.921,675.546 718.102,686.263C718.855,686.551 719.604,686.844 720.351,687.141C723.917,687.811 727.457,688.569 730.963,689.425C746.865,693.306 761.445,702.624 776.599,708.602C784.603,711.759 793.911,712.929 802.474,715.104C811.567,717.414 819.824,720.86 825.175,728.418C825.461,728.821 825.747,729.24 826.034,729.673C836.162,733.786 845.109,739.228 851.667,746.588C859.408,755.275 865.665,765.106 870.674,775.824C876.888,781.36 882.491,787.534 887.295,794.496C903.743,818.334 914.743,848.648 920.133,877.677C924.573,887.533 927.692,896.264 929.031,902.936C935.051,932.938 929.367,963.511 925.444,993.827C924.453,1001.48 921.335,1013.22 917.064,1026.34C916.735,1032.4 916.14,1038.77 915.14,1045.47C912.786,1061.25 904.461,1074.15 894.353,1086.21C893.291,1087.48 892.209,1088.74 891.112,1089.99C887.692,1096.54 884.449,1101.87 881.629,1105.31C877.568,1110.27 872.902,1113.62 867.881,1116.01C866.892,1117.22 865.921,1118.45 864.976,1119.68C862.941,1126.24 860.376,1132.56 857.108,1138.55C847.977,1155.29 834.433,1167.59 819.346,1178.31C816.608,1180.54 813.721,1182.6 810.655,1184.46C809.477,1185.18 808.296,1185.87 807.111,1186.55C806.845,1186.72 806.579,1186.89 806.313,1187.06C737.94,1230.84 677.985,1232.28 607.308,1221.15C597.565,1221.88 587.749,1221.68 577.702,1219.51C570.38,1217.93 563.553,1215.23 556.992,1211.92C551.578,1210.82 546.191,1209.68 540.841,1208.47C513.713,1206.03 487.242,1200.55 462.736,1187.03C433.649,1170.98 402.346,1139.93 389.234,1108.46C383.886,1095.63 381.652,1079.66 381.032,1062.82ZM509.936,1200.2C489.889,1193.81 470.691,1185.21 452.917,1172.33C439.082,1162.3 427.47,1151.17 417.768,1139.18C409.205,1131.26 401.558,1121.42 395.089,1108.63C392.375,1103.27 390.031,1097.55 388.034,1091.56C389.219,1097.06 390.761,1102.25 392.742,1107C405.548,1137.74 436.162,1168.02 464.571,1183.7C479.088,1191.71 494.302,1196.85 509.936,1200.2ZM774.66,1200.45C767.021,1202.8 759.284,1204.62 751.471,1206.07C747.693,1208.36 743.834,1210.52 739.921,1212.57C737.87,1213.65 735.887,1214.64 733.966,1215.56C747.405,1211.99 760.911,1207.05 774.66,1200.45ZM684.301,1222.95C682.22,1222.49 680.139,1221.96 678.031,1221.39C673.592,1220.19 669.027,1218.79 664.053,1217.45C655.931,1217.64 646.264,1217.61 635.829,1217.34C631.22,1218.07 626.63,1218.82 622.042,1219.48C643.512,1222.35 664.07,1223.82 684.301,1222.95ZM856.025,1132.31C850.849,1139.98 845.776,1147.88 840.284,1155.38C845.42,1149.81 849.989,1143.66 853.772,1136.73C854.565,1135.28 855.315,1133.8 856.025,1132.31ZM911.872,1041.41C907.744,1052.79 903.077,1064.44 898.423,1074.8C904.808,1065.83 909.705,1056.15 911.381,1044.91C911.557,1043.73 911.72,1042.57 911.872,1041.41ZM922.584,893.925C925.171,916.313 924.22,936.977 919.649,952.062C915.954,964.257 916.363,977.294 916.91,992.294C917.14,998.6 917.399,1005.25 917.411,1012.31C919.536,1004.78 921.044,998.215 921.675,993.339C925.545,963.434 931.244,933.279 925.305,903.684C924.725,900.796 923.806,897.517 922.584,893.925ZM874.501,784.793C878.206,794.329 881.05,804.459 883.18,815.025C894.59,830.693 905.069,847.787 913.187,863.401C907.223,839.683 897.513,815.995 884.168,796.655C881.238,792.409 878,788.467 874.501,784.793ZM829.405,735.285C832.479,740.802 835.77,747.59 839.629,754.912C848.029,759.304 856.029,764.202 863.373,769.808C859.269,762.36 854.455,755.428 848.83,749.116C843.694,743.352 836.996,738.861 829.405,735.285ZM741.416,696.786C752.073,702.201 763.373,708.566 776.956,715.989C778.509,716.838 780.088,717.76 781.689,718.75C793.094,720.488 805.061,722.721 816.173,726.17C817.118,726.463 818.057,726.765 818.988,727.077C814.318,722.703 808.142,720.465 801.538,718.787C792.821,716.573 783.352,715.351 775.204,712.137C763.882,707.67 752.893,701.295 741.416,696.786ZM677.438,674.797C678.102,675.168 678.758,675.548 679.411,675.938C688.884,677.527 697.245,679.47 705.026,681.8C697.254,677.948 687.817,675.761 677.438,674.797ZM600.046,672.229C612.592,671.776 625.203,671.731 636.811,672.07C641.358,671.541 645.892,671.121 650.372,670.836C651.538,670.762 652.699,670.697 653.856,670.641C642.502,668.715 627.839,668.667 606.846,671.094C604.775,671.334 602.499,671.716 600.046,672.229ZM511.803,692.919C523.888,689.624 536.339,687.339 548.853,685.783C555.357,683.036 561.759,680.477 567.896,678.188C556.522,679.368 546.141,680.969 537.786,683.019C527.33,685.583 518.876,688.921 511.803,692.919ZM405.221,786.48C421.059,760.906 443.064,742.61 467.843,728.223C470.844,726.116 474.236,723.896 477.946,721.601C478.171,721.257 478.396,720.915 478.622,720.574C482.707,714.406 486.965,708.671 491.982,703.474C476.555,709.643 462.136,717.974 449.481,729.176C427.488,748.646 414.016,767.08 405.221,786.48ZM373.467,958.587C374.713,934.681 377.378,910.818 380.325,887.78C380.769,884.309 381.195,880.904 381.61,877.561C380.123,864.928 380.683,852.462 386.141,840.219C380.57,851.925 374.539,863.46 370.987,875.966C363.08,903.814 367.394,931.283 373.467,958.587ZM378.756,1027.98C378.787,1020.16 379.199,1012.45 379.954,1005.02C379.035,1000.68 378.126,996.354 377.208,992.056C376.985,991.009 376.758,989.961 376.528,988.914C376.618,1002.07 377.296,1015.13 378.756,1027.98ZM515.979,1198.11C505.107,1191.85 491.812,1182.41 478.413,1171.75C471.61,1169.17 464.948,1166.63 458.489,1163.89C450.015,1160.31 441.888,1156.4 434.242,1151.64C440.554,1157.83 447.504,1163.71 455.148,1169.25C474.025,1182.94 494.543,1191.68 515.979,1198.11ZM615.725,1216.56C608.672,1216.19 601.501,1215.73 594.413,1215.16C598.875,1215.94 603.291,1216.68 607.666,1217.37C610.357,1217.16 613.042,1216.88 615.725,1216.56ZM860.954,1118.7C860.43,1118.87 859.903,1119.03 859.375,1119.18C854.977,1126.16 850.022,1132.78 844.354,1138.88C824.506,1160.26 802.542,1174.62 778.653,1185.58C772.96,1191.03 766.768,1195.95 760.242,1200.42C775.606,1196.87 790.629,1191.55 805.136,1183.3C809.212,1180.67 813.236,1178 817.154,1175.22C835.474,1160.29 846.86,1137.67 860.821,1118.88C860.865,1118.82 860.91,1118.76 860.954,1118.7ZM740.742,1207.83C728.248,1209.63 715.588,1210.65 702.848,1211.47C694.067,1213.96 685.185,1216.23 676.078,1216.91C677.068,1217.19 678.049,1217.46 679.025,1217.73C695.538,1222.2 710.266,1223.86 738.154,1209.21C739.02,1208.75 739.882,1208.29 740.742,1207.83ZM913.289,1025.8C914.13,1009.87 913.114,996.02 912.832,983.497C912.566,971.697 912.955,961.052 916.013,950.96C921.505,932.833 921.625,906.487 916.554,878.888C909.036,862.239 897.67,842.322 884.769,823.784C885.585,828.815 886.254,833.931 886.792,839.117C897.109,857.236 904.822,874.562 908.343,889C920.306,938.047 905.908,992.163 891.549,1038.99C885.27,1059.46 878.847,1080.94 869.441,1100.74C868.868,1104.06 868.207,1107.36 867.441,1110.61C874.06,1102.82 881.344,1095.37 888.091,1087.68C896.715,1071.11 906.464,1046.72 913.289,1025.8ZM842.918,761.005C848.409,770.905 855.035,781.376 863.577,790.764C868.326,795.983 873.053,801.678 877.67,807.668C875.141,797.275 871.831,787.379 867.58,778.15C860.131,771.598 851.794,765.976 842.918,761.005ZM789.262,723.821C796.322,728.888 803.705,735.089 811.193,742.136C815.843,743.971 820.462,745.881 825.012,747.896C828.014,749.225 830.986,750.6 833.918,752.03C830.033,744.486 826.704,737.759 823.507,732.75C820.763,731.674 817.934,730.695 815.046,729.799C806.734,727.219 797.937,725.33 789.262,723.821ZM687.534,681.324C688.468,681.994 689.406,682.68 690.353,683.381C693.401,683.602 696.44,683.863 699.467,684.171C695.664,683.136 691.706,682.188 687.534,681.324ZM696.028,687.644C708.407,697 723.715,708.439 751.717,719.996C767.182,726.378 784.398,732.038 801.539,738.436C794.222,732.053 787.082,726.604 780.336,722.379C770.717,720.93 761.518,719.829 753.613,718.63C752.576,718.473 751.862,717.503 752.019,716.466C752.176,715.43 753.146,714.716 754.183,714.873C759.434,715.67 765.25,716.426 771.381,717.268C750.905,706.03 735.646,697.344 719.269,690.803C711.631,689.38 703.868,688.362 696.028,687.644ZM562.163,684.391C568.207,683.872 574.24,683.499 580.229,683.242C590.379,680.531 601.636,677.874 613.28,675.687C603.178,675.823 592.871,676.223 582.94,676.904C576.466,678.989 569.454,681.528 562.163,684.391ZM485.768,716.92C500.194,708.546 517.932,699.541 535.726,691.516C524.03,693.516 512.495,696.267 501.382,700.016C495.244,705.013 490.291,710.693 485.768,716.92ZM392.277,829.509C392.294,829.484 392.312,829.459 392.329,829.434C395.408,825.1 398.694,820.908 402.121,816.811C410.591,792.582 423.769,769.68 444.528,748.496C430.56,759.558 418.198,772.676 408.308,788.714C401.755,799.341 398.014,811.328 393.596,822.959C393.133,825.119 392.695,827.302 392.277,829.509ZM381.42,993.592C381.649,992.122 381.893,990.667 382.149,989.23C382.774,985.733 383.639,982.273 384.602,978.83C385.74,954.082 385.922,929.737 387.163,906.071C385.996,900.945 384.802,895.838 383.777,890.754C380.403,917.391 377.45,945.095 376.701,972.65C378.152,978.86 379.601,985.063 380.924,991.263C381.09,992.038 381.255,992.815 381.42,993.592ZM544.339,1204.77C544.029,1204.58 543.72,1204.39 543.411,1204.2C532.906,1197.71 522.69,1190.57 511.617,1185.37C504.524,1182.04 497.473,1179.13 490.525,1176.4C505.293,1187.51 519.187,1196.43 528.851,1200.32C532.939,1201.96 538.211,1203.45 544.339,1204.77ZM468.963,1164.05C446.265,1145.1 424.848,1123.95 416.186,1110.37C400.475,1085.73 391.899,1057.49 385.234,1029.01C384.695,1039.32 384.39,1049.85 384.667,1060.09C384.86,1061.45 385.066,1062.81 385.286,1064.16C391.979,1090.32 403.087,1114.88 420.53,1136.54C432.177,1147.25 445.566,1154.3 459.969,1160.39C462.927,1161.64 465.927,1162.86 468.963,1164.05ZM635.649,1213.56C637.111,1213.32 638.575,1213.09 640.042,1212.86C639.247,1212.78 638.441,1212.71 637.623,1212.64C620.188,1211.19 602.38,1210.94 584.557,1210.54C601.473,1212.15 619.481,1213.14 635.649,1213.56ZM767.264,1190.5C752.34,1196.58 736.713,1201.61 720.425,1206.4C730.359,1205.51 740.217,1204.32 749.956,1202.55C755.981,1198.88 761.792,1194.89 767.264,1190.5ZM853.969,1120.55C852.402,1120.9 850.823,1121.22 849.24,1121.52C838.019,1123.66 826.54,1124.93 817.344,1131.91C811.563,1136.3 807.558,1142.75 803.916,1149.51C800.1,1156.59 796.689,1164.02 792.297,1170.05C790.35,1172.72 788.293,1175.29 786.138,1177.76C806.102,1167.59 824.624,1154.55 841.569,1136.3C846.151,1131.36 850.256,1126.09 853.969,1120.55ZM862.672,1114.11C862.742,1113.86 862.811,1113.6 862.879,1113.34C862.711,1113.64 862.541,1113.93 862.37,1114.23C862.471,1114.19 862.571,1114.15 862.672,1114.11ZM676.414,1213.07C675.149,1213.15 673.883,1213.23 672.617,1213.32C673.624,1213.26 674.589,1213.2 675.511,1213.14C675.812,1213.12 676.113,1213.09 676.414,1213.07ZM887.605,848.326C887.764,850.479 887.902,852.642 888.02,854.814C891.429,917.357 878.624,987.322 874.766,1037.77C873.564,1053.49 873.191,1070.4 871.354,1087.02C877.921,1070.91 882.95,1054.07 887.916,1037.87C902.084,991.672 916.455,938.295 904.651,889.9C901.676,877.701 895.666,863.409 887.605,848.326ZM879.63,816.586C873.527,808.259 867.164,800.353 860.766,793.321C850.536,782.077 843.024,769.298 836.917,757.781C832.53,755.518 828.036,753.391 823.473,751.37C821.81,750.634 820.138,749.911 818.458,749.201C841.378,772.206 864.613,802.171 881.999,830.951C881.343,826.085 880.558,821.292 879.63,816.586ZM677.987,679.554C674.464,678.974 670.786,678.442 666.925,677.958C658.596,676.913 648.295,676.209 637.024,675.869C623.725,677.426 610.314,679.932 597.831,682.785C600.143,682.761 602.442,682.75 604.727,682.75C630.176,682.75 656.947,681.54 683.204,682.933C681.476,681.743 679.748,680.615 677.987,679.554ZM688.953,687.075C660.878,685.119 632.036,686.55 604.727,686.55C596.902,686.55 588.905,686.677 580.824,687.011C566.093,690.96 553.746,695.013 546.042,697.863C523.614,706.158 500.797,714.863 479.623,726.006C472.309,737.448 465.219,750.266 454.776,763.824C439.853,783.197 421.231,799.95 405.51,818.668C399.087,837.216 395.455,856.55 393.275,876.487C392.22,886.133 391.504,895.919 390.978,905.826C394.178,920.029 397.127,934.377 395.818,948.776C394.872,959.186 391.215,969.186 388.383,979.321C388.283,981.48 388.176,983.642 388.06,985.808C387.58,994.769 386.776,1004.84 386.061,1015.42C393.088,1047.73 401.572,1080.38 419.39,1108.33C429.029,1123.44 454.715,1148.07 480.126,1168.35C490.895,1172.44 502.012,1176.66 513.232,1181.93C524.435,1187.19 534.781,1194.4 545.409,1200.97C548.036,1202.6 550.681,1204.18 553.362,1205.68C581.534,1207.37 610.216,1206.54 637.939,1208.85C643.667,1209.33 648.822,1210.11 653.563,1211.06C654.244,1210.99 654.925,1210.92 655.607,1210.86C671.084,1209.4 686.601,1208.73 702.002,1207.76C704.639,1207.01 707.268,1206.24 709.891,1205.49C733.457,1198.76 755.696,1191.88 776.465,1182.42C781.097,1177.94 785.383,1173.09 789.226,1167.81C793.522,1161.91 796.837,1154.63 800.571,1147.7C804.478,1140.45 808.845,1133.59 815.046,1128.89C824.716,1121.54 836.73,1120.03 848.529,1117.79C851.36,1117.25 854.179,1116.66 856.944,1115.93C860.21,1110.64 863.157,1105.14 865.853,1099.5C869.352,1078.93 869.465,1057.25 870.978,1037.47C874.825,987.168 887.626,917.395 884.226,855.021C883.953,850.011 883.575,845.049 883.08,840.148C863.976,806.741 835.969,770.682 809.261,745.456C789.16,737.547 768.495,731.031 750.267,723.509C719.357,710.752 703.693,698.148 690.517,688.245C689.992,687.85 689.471,687.46 688.953,687.075ZM549.722,689.473C537.433,694.678 524.787,700.558 512.917,706.55C523.462,702.232 534.133,698.216 544.724,694.299C549.398,692.57 555.764,690.403 563.327,688.084C558.794,688.46 554.254,688.918 549.722,689.473ZM390.466,839.949C388.598,851.671 387.101,864.121 385.435,877.579C385.864,881.086 386.454,884.607 387.135,888.139C387.413,889.585 387.707,891.033 388.012,892.483C388.418,886.971 388.904,881.5 389.498,876.074C391.338,859.244 394.202,842.839 398.863,826.964C397.692,828.503 396.546,830.059 395.428,831.634C393.469,834.393 391.828,837.164 390.466,839.949ZM409.355,808.493C423.44,792.831 438.96,778.129 451.765,761.505C460.417,750.274 466.749,739.549 472.826,729.703C471.95,730.196 471.078,730.693 470.209,731.195C467.735,732.931 465.53,734.59 463.638,736.15C436.827,758.246 420.018,782.539 409.355,808.493ZM388.993,963.844C390.394,958.764 391.56,953.651 392.034,948.432C392.866,939.278 391.927,930.149 390.3,921.065C389.778,935.128 389.48,949.406 388.993,963.844Z" style="fill:rgb(158,100,205);"/>
                </g>
            </g>
            <g transform="matrix(1.03357,0,0,1.10682,-1141.05,-806.222)">
                <ellipse cx="1520.4" cy="1336.85" rx="257.116" ry="240.101" style="fill:url(#_Radial1);"/>
            </g>
            <g transform="matrix(1,0,0,1,8.96678,153.269)">
                <path d="M297.888,349.706C295.393,351.308 292.485,352.375 289.319,352.717C278.661,353.871 269.096,346.383 267.972,336.005C267.2,328.872 270.615,322.22 276.286,318.382C297.174,301.792 320.671,288.77 345.826,279.85L345.894,280.041C346.842,279.793 347.821,279.611 348.826,279.502C359.485,278.348 369.05,285.837 370.173,296.215C371.087,304.656 366.136,312.426 358.52,315.652L358.551,315.737C336.553,323.537 316.061,335.061 297.969,349.805L297.888,349.706Z" style="fill:white;fill-opacity:0.85;"/>
            </g>
            <g transform="matrix(1.03357,0,0,1.10682,-1141.05,-806.222)">
                <ellipse cx="1520.4" cy="1336.85" rx="257.116" ry="240.101" style="fill:none;"/>
                <clipPath id="_clip2">
                    <ellipse cx="1520.4" cy="1336.85" rx="257.116" ry="240.101"/>
                </clipPath>
                <g clip-path="url(#_clip2)">
                    <g transform="matrix(0.967518,0,0,0.903491,425.009,487.914)">
                        <path d="M1185.2,1013.97C1209.66,1015.81 1234.14,1016.23 1257.68,1011.08C1292.6,1003.45 1391.84,920.526 1412.92,947.177C1424.56,961.892 1347.07,1006.25 1331.3,1012.95C1289.29,1030.8 1238.92,1032.9 1197.04,1050.28C1127.94,1078.94 1040.24,1155.35 955.866,1142.07C825.141,1121.49 863.037,1038.62 984.447,1036.17C940.571,1015.84 898.471,988.763 861.838,974.687C819.511,958.422 769.099,957.652 726.641,940.919C710.696,934.636 632.061,892.336 643.31,877.319C663.682,850.121 765.074,930.402 800.184,937.109C882.435,952.822 974.277,901.025 1040.16,957.179C1134.44,945.776 1192.86,980.631 1185.2,1013.97Z" style="fill:rgb(176,74,244);"/>
                    </g>
                </g>
            </g>
            <g transform="matrix(0.566606,-0.864424,0.925682,0.60676,-1668.57,1176.55)">
                <ellipse cx="1520.4" cy="1336.85" rx="257.116" ry="240.101" style="fill:url(#_Radial3);"/>
            </g>
            <g transform="matrix(-0.566606,0.864424,-0.925682,-0.60676,2529.36,170.296)">
                <ellipse cx="1520.4" cy="1336.85" rx="257.116" ry="240.101" style="fill:url(#_Radial4);"/>
            </g>
        </g>
    </g>
    <defs>
        <radialGradient id="_Radial1" cx="0" cy="0" r="1" gradientUnits="userSpaceOnUse" gradientTransform="matrix(257.116,0,0,240.101,1520.4,1336.85)"><stop offset="0" style="stop-color:rgb(59,6,100);stop-opacity:1"/><stop offset="1" style="stop-color:rgb(88,43,123);stop-opacity:1"/><stop offset="1" style="stop-color:white;stop-opacity:1"/></radialGradient>
        <radialGradient id="_Radial3" cx="0" cy="0" r="1" gradientUnits="userSpaceOnUse" gradientTransform="matrix(273.545,-459.813,492.398,255.443,1409.41,1538.63)"><stop offset="0" style="stop-color:rgb(6,2,8);stop-opacity:0.63"/><stop offset="0.46" style="stop-color:rgb(27,11,38);stop-opacity:0.45"/><stop offset="1" style="stop-color:rgb(78,34,113);stop-opacity:0"/></radialGradient>
        <radialGradient id="_Radial4" cx="0" cy="0" r="1" gradientUnits="userSpaceOnUse" gradientTransform="matrix(-246.395,391.997,-419.776,-230.089,1610.47,1116.51)"><stop offset="0" style="stop-color:rgb(12,5,17);stop-opacity:0.4"/><stop offset="0.57" style="stop-color:rgb(60,27,86);stop-opacity:0.4"/><stop offset="1" style="stop-color:rgb(81,37,116);stop-opacity:0.4"/></radialGradient>
    </defs>
</svg>
