<?xml version="1.0" encoding="UTF-8" standalone="no"?>
<!DOCTYPE svg PUBLIC "-//W3C//DTD SVG 1.1//EN" "http://www.w3.org/Graphics/SVG/1.1/DTD/svg11.dtd">
<svg width="100%" height="100%" viewBox="0 0 280 280" version="1.1" xmlns="http://www.w3.org/2000/svg" xmlns:xlink="http://www.w3.org/1999/xlink" xml:space="preserve" xmlns:serif="http://www.serif.com/" style="fill-rule:evenodd;clip-rule:evenodd;stroke-linejoin:round;stroke-miterlimit:2;">
    <g transform="matrix(1,0,0,1,-454.965,-327.005)">
        <g>
            <g transform="matrix(0.908233,0.432524,-0.432524,0.908233,811.17,-215.024)">
                <g transform="matrix(1,0,0,1,-1620.64,593.979)">
                    <path d="M1781.04,214.918L1781.13,214.573C1782.08,210.791 1782.12,206.787 1781.29,202.977C1780.01,205.303 1778.41,207.436 1776.5,209.347C1773.66,212.186 1770.33,214.345 1766.6,215.762L1766.34,215.856C1760.96,217.84 1754.94,218.127 1749.39,216.662C1744.59,215.401 1740.19,212.871 1736.67,209.347C1734.76,207.436 1733.16,205.304 1731.88,202.981C1730.11,211.069 1732.42,219.711 1738.18,225.809C1738.35,225.985 1738.52,226.162 1738.69,226.335C1738.87,226.511 1739.05,226.685 1739.22,226.854C1746.18,233.429 1756.46,235.504 1765.45,232.148L1765.58,232.098C1768.93,230.829 1771.92,228.89 1774.48,226.337C1777.64,223.171 1779.91,219.222 1781.04,214.918Z" style="fill:rgb(0,188,212);fill-rule:nonzero;"/>
                </g>
                <g transform="matrix(1,0,0,1,-1620.64,593.979)">
                    <path d="M1793.49,171.545C1793.31,171.371 1793.14,171.199 1792.96,171.032C1785.96,164.419 1775.61,162.356 1766.6,165.778C1763.25,167.049 1760.26,168.989 1757.7,171.543C1754.54,174.709 1752.27,178.658 1751.13,182.963C1750.11,186.847 1750.04,190.975 1750.89,194.895C1752.17,192.572 1753.77,190.44 1755.68,188.528C1758.53,185.682 1761.86,183.523 1765.58,182.113C1771.03,180.042 1777.15,179.719 1782.79,181.213L1783.17,181.317C1787.82,182.608 1792.08,185.095 1795.51,188.528C1797.42,190.438 1799.02,192.571 1800.3,194.898C1802.07,186.811 1799.76,178.169 1794,172.07C1793.84,171.897 1793.66,171.72 1793.49,171.545Z" style="fill:rgb(248,178,81);fill-rule:nonzero;"/>
                </g>
                <g transform="matrix(1,0,0,1,-1620.64,593.979)">
                    <path d="M1738.69,171.54C1738.52,171.715 1738.35,171.892 1738.18,172.069C1731.57,179.068 1729.51,189.418 1732.93,198.436C1734.2,201.778 1736.14,204.769 1738.69,207.323C1741.86,210.49 1745.81,212.761 1750.11,213.892L1750.43,213.975C1752.44,214.477 1754.51,214.732 1756.59,214.732C1758.44,214.732 1760.27,214.533 1762.05,214.138C1759.73,212.863 1757.59,211.26 1755.68,209.349C1752.84,206.505 1750.68,203.172 1749.27,199.443C1747.2,193.994 1746.88,187.883 1748.37,182.237L1748.46,181.871L1748.47,181.865C1749.76,177.215 1752.25,172.954 1755.68,169.519C1757.6,167.605 1759.73,166 1762.06,164.724C1760.27,164.328 1758.44,164.129 1756.59,164.129C1750.1,164.129 1743.93,166.579 1739.22,171.027C1739.05,171.193 1738.87,171.366 1738.69,171.54Z" style="fill:rgb(17,69,17);fill-rule:nonzero;"/>
                </g>
                <g transform="matrix(1,0,0,1,-1620.64,593.979)">
                    <path d="M1792.96,226.848C1793.14,226.681 1793.31,226.509 1793.49,226.334C1793.66,226.16 1793.83,225.983 1794,225.806C1800.61,218.807 1802.67,208.458 1799.25,199.441C1797.98,196.096 1796.04,193.105 1793.49,190.552C1790.32,187.385 1786.37,185.113 1782.07,183.983L1781.74,183.897C1779.73,183.395 1777.67,183.141 1775.59,183.141C1773.74,183.141 1771.91,183.34 1770.12,183.736C1772.45,185.012 1774.59,186.617 1776.5,188.531C1779.34,191.372 1781.5,194.701 1782.91,198.425C1784.96,203.827 1785.3,209.869 1783.86,215.462L1783.51,216.711C1782.17,221.09 1779.76,225.099 1776.5,228.361C1774.59,230.274 1772.45,231.877 1770.12,233.152C1771.91,233.547 1773.74,233.746 1775.6,233.746C1782.08,233.746 1788.25,231.296 1792.96,226.848Z" style="fill:rgb(178,223,219);fill-rule:nonzero;"/>
                </g>
            </g>
            <g>
                <g transform="matrix(0.908233,0.432524,-0.432524,0.908233,811.17,-316.437)">
                    <g transform="matrix(1,0,0,1,-1620.64,593.979)">
                        <path d="M1781.04,214.918L1781.13,214.573C1782.08,210.791 1782.12,206.787 1781.29,202.977C1780.01,205.303 1778.41,207.436 1776.5,209.347C1773.66,212.186 1770.33,214.345 1766.6,215.762L1766.34,215.856C1760.96,217.84 1754.94,218.127 1749.39,216.662C1744.59,215.401 1740.19,212.871 1736.67,209.347C1734.76,207.436 1733.16,205.304 1731.88,202.981C1730.11,211.069 1732.42,219.711 1738.18,225.809C1738.35,225.985 1738.52,226.162 1738.69,226.335C1738.87,226.511 1739.05,226.685 1739.22,226.854C1746.18,233.429 1756.46,235.504 1765.45,232.148L1765.58,232.098C1768.93,230.829 1771.92,228.89 1774.48,226.337C1777.64,223.171 1779.91,219.222 1781.04,214.918Z" style="fill:rgb(0,188,212);fill-rule:nonzero;"/>
                    </g>
                    <g transform="matrix(1,0,0,1,-1620.64,593.979)">
                        <path d="M1793.49,171.545C1793.31,171.371 1793.14,171.199 1792.96,171.032C1785.96,164.419 1775.61,162.356 1766.6,165.778C1763.25,167.049 1760.26,168.989 1757.7,171.543C1754.54,174.709 1752.27,178.658 1751.13,182.963C1750.11,186.847 1750.04,190.975 1750.89,194.895C1752.17,192.572 1753.77,190.44 1755.68,188.528C1758.53,185.682 1761.86,183.523 1765.58,182.113C1771.03,180.042 1777.15,179.719 1782.79,181.213L1783.17,181.317C1787.82,182.608 1792.08,185.095 1795.51,188.528C1797.42,190.438 1799.02,192.571 1800.3,194.898C1802.07,186.811 1799.76,178.169 1794,172.07C1793.84,171.897 1793.66,171.72 1793.49,171.545Z" style="fill:rgb(248,178,81);fill-rule:nonzero;"/>
                    </g>
                    <g transform="matrix(1,0,0,1,-1620.64,593.979)">
                        <path d="M1738.69,171.54C1738.52,171.715 1738.35,171.892 1738.18,172.069C1731.57,179.068 1729.51,189.418 1732.93,198.436C1734.2,201.778 1736.14,204.769 1738.69,207.323C1741.86,210.49 1745.81,212.761 1750.11,213.892L1750.43,213.975C1752.44,214.477 1754.51,214.732 1756.59,214.732C1758.44,214.732 1760.27,214.533 1762.05,214.138C1759.73,212.863 1757.59,211.26 1755.68,209.349C1752.84,206.505 1750.68,203.172 1749.27,199.443C1747.2,193.994 1746.88,187.883 1748.37,182.237L1748.46,181.871L1748.47,181.865C1749.76,177.215 1752.25,172.954 1755.68,169.519C1757.6,167.605 1759.73,166 1762.06,164.724C1760.27,164.328 1758.44,164.129 1756.59,164.129C1750.1,164.129 1743.93,166.579 1739.22,171.027C1739.05,171.193 1738.87,171.366 1738.69,171.54Z" style="fill:rgb(17,69,17);fill-rule:nonzero;"/>
                    </g>
                    <g transform="matrix(1,0,0,1,-1620.64,593.979)">
                        <path d="M1792.96,226.848C1793.14,226.681 1793.31,226.509 1793.49,226.334C1793.66,226.16 1793.83,225.983 1794,225.806C1800.61,218.807 1802.67,208.458 1799.25,199.441C1797.98,196.096 1796.04,193.105 1793.49,190.552C1790.32,187.385 1786.37,185.113 1782.07,183.983L1781.74,183.897C1779.73,183.395 1777.67,183.141 1775.59,183.141C1773.74,183.141 1771.91,183.34 1770.12,183.736C1772.45,185.012 1774.59,186.617 1776.5,188.531C1779.34,191.372 1781.5,194.701 1782.91,198.425C1784.96,203.827 1785.3,209.869 1783.86,215.462L1783.51,216.711C1782.17,221.09 1779.76,225.099 1776.5,228.361C1774.59,230.274 1772.45,231.877 1770.12,233.152C1771.91,233.547 1773.74,233.746 1775.6,233.746C1782.08,233.746 1788.25,231.296 1792.96,226.848Z" style="fill:rgb(178,223,219);fill-rule:nonzero;"/>
                    </g>
                </g>
                <g transform="matrix(0.908233,0.432524,-0.432524,0.908233,906.749,-316.437)">
                    <g transform="matrix(1,0,0,1,-1620.64,593.979)">
                        <path d="M1781.04,214.918L1781.13,214.573C1782.08,210.791 1782.12,206.787 1781.29,202.977C1780.01,205.303 1778.41,207.436 1776.5,209.347C1773.66,212.186 1770.33,214.345 1766.6,215.762L1766.34,215.856C1760.96,217.84 1754.94,218.127 1749.39,216.662C1744.59,215.401 1740.19,212.871 1736.67,209.347C1734.76,207.436 1733.16,205.304 1731.88,202.981C1730.11,211.069 1732.42,219.711 1738.18,225.809C1738.35,225.985 1738.52,226.162 1738.69,226.335C1738.87,226.511 1739.05,226.685 1739.22,226.854C1746.18,233.429 1756.46,235.504 1765.45,232.148L1765.58,232.098C1768.93,230.829 1771.92,228.89 1774.48,226.337C1777.64,223.171 1779.91,219.222 1781.04,214.918Z" style="fill:rgb(0,188,212);fill-rule:nonzero;"/>
                    </g>
                    <g transform="matrix(1,0,0,1,-1620.64,593.979)">
                        <path d="M1793.49,171.545C1793.31,171.371 1793.14,171.199 1792.96,171.032C1785.96,164.419 1775.61,162.356 1766.6,165.778C1763.25,167.049 1760.26,168.989 1757.7,171.543C1754.54,174.709 1752.27,178.658 1751.13,182.963C1750.11,186.847 1750.04,190.975 1750.89,194.895C1752.17,192.572 1753.77,190.44 1755.68,188.528C1758.53,185.682 1761.86,183.523 1765.58,182.113C1771.03,180.042 1777.15,179.719 1782.79,181.213L1783.17,181.317C1787.82,182.608 1792.08,185.095 1795.51,188.528C1797.42,190.438 1799.02,192.571 1800.3,194.898C1802.07,186.811 1799.76,178.169 1794,172.07C1793.84,171.897 1793.66,171.72 1793.49,171.545Z" style="fill:rgb(248,178,81);fill-rule:nonzero;"/>
                    </g>
                    <g transform="matrix(1,0,0,1,-1620.64,593.979)">
                        <path d="M1738.69,171.54C1738.52,171.715 1738.35,171.892 1738.18,172.069C1731.57,179.068 1729.51,189.418 1732.93,198.436C1734.2,201.778 1736.14,204.769 1738.69,207.323C1741.86,210.49 1745.81,212.761 1750.11,213.892L1750.43,213.975C1752.44,214.477 1754.51,214.732 1756.59,214.732C1758.44,214.732 1760.27,214.533 1762.05,214.138C1759.73,212.863 1757.59,211.26 1755.68,209.349C1752.84,206.505 1750.68,203.172 1749.27,199.443C1747.2,193.994 1746.88,187.883 1748.37,182.237L1748.46,181.871L1748.47,181.865C1749.76,177.215 1752.25,172.954 1755.68,169.519C1757.6,167.605 1759.73,166 1762.06,164.724C1760.27,164.328 1758.44,164.129 1756.59,164.129C1750.1,164.129 1743.93,166.579 1739.22,171.027C1739.05,171.193 1738.87,171.366 1738.69,171.54Z" style="fill:rgb(17,69,17);fill-rule:nonzero;"/>
                    </g>
                    <g transform="matrix(1,0,0,1,-1620.64,593.979)">
                        <path d="M1792.96,226.848C1793.14,226.681 1793.31,226.509 1793.49,226.334C1793.66,226.16 1793.83,225.983 1794,225.806C1800.61,218.807 1802.67,208.458 1799.25,199.441C1797.98,196.096 1796.04,193.105 1793.49,190.552C1790.32,187.385 1786.37,185.113 1782.07,183.983L1781.74,183.897C1779.73,183.395 1777.67,183.141 1775.59,183.141C1773.74,183.141 1771.91,183.34 1770.12,183.736C1772.45,185.012 1774.59,186.617 1776.5,188.531C1779.34,191.372 1781.5,194.701 1782.91,198.425C1784.96,203.827 1785.3,209.869 1783.86,215.462L1783.51,216.711C1782.17,221.09 1779.76,225.099 1776.5,228.361C1774.59,230.274 1772.45,231.877 1770.12,233.152C1771.91,233.547 1773.74,233.746 1775.6,233.746C1782.08,233.746 1788.25,231.296 1792.96,226.848Z" style="fill:rgb(178,223,219);fill-rule:nonzero;"/>
                    </g>
                </g>
                <g transform="matrix(0.908233,0.432524,-0.432524,0.908233,704.008,-316.437)">
                    <g transform="matrix(1,0,0,1,-1620.64,593.979)">
                        <path d="M1781.04,214.918L1781.13,214.573C1782.08,210.791 1782.12,206.787 1781.29,202.977C1780.01,205.303 1778.41,207.436 1776.5,209.347C1773.66,212.186 1770.33,214.345 1766.6,215.762L1766.34,215.856C1760.96,217.84 1754.94,218.127 1749.39,216.662C1744.59,215.401 1740.19,212.871 1736.67,209.347C1734.76,207.436 1733.16,205.304 1731.88,202.981C1730.11,211.069 1732.42,219.711 1738.18,225.809C1738.35,225.985 1738.52,226.162 1738.69,226.335C1738.87,226.511 1739.05,226.685 1739.22,226.854C1746.18,233.429 1756.46,235.504 1765.45,232.148L1765.58,232.098C1768.93,230.829 1771.92,228.89 1774.48,226.337C1777.64,223.171 1779.91,219.222 1781.04,214.918Z" style="fill:rgb(0,188,212);fill-rule:nonzero;"/>
                    </g>
                    <g transform="matrix(1,0,0,1,-1620.64,593.979)">
                        <path d="M1793.49,171.545C1793.31,171.371 1793.14,171.199 1792.96,171.032C1785.96,164.419 1775.61,162.356 1766.6,165.778C1763.25,167.049 1760.26,168.989 1757.7,171.543C1754.54,174.709 1752.27,178.658 1751.13,182.963C1750.11,186.847 1750.04,190.975 1750.89,194.895C1752.17,192.572 1753.77,190.44 1755.68,188.528C1758.53,185.682 1761.86,183.523 1765.58,182.113C1771.03,180.042 1777.15,179.719 1782.79,181.213L1783.17,181.317C1787.82,182.608 1792.08,185.095 1795.51,188.528C1797.42,190.438 1799.02,192.571 1800.3,194.898C1802.07,186.811 1799.76,178.169 1794,172.07C1793.84,171.897 1793.66,171.72 1793.49,171.545Z" style="fill:rgb(248,178,81);fill-rule:nonzero;"/>
                    </g>
                    <g transform="matrix(1,0,0,1,-1620.64,593.979)">
                        <path d="M1738.69,171.54C1738.52,171.715 1738.35,171.892 1738.18,172.069C1731.57,179.068 1729.51,189.418 1732.93,198.436C1734.2,201.778 1736.14,204.769 1738.69,207.323C1741.86,210.49 1745.81,212.761 1750.11,213.892L1750.43,213.975C1752.44,214.477 1754.51,214.732 1756.59,214.732C1758.44,214.732 1760.27,214.533 1762.05,214.138C1759.73,212.863 1757.59,211.26 1755.68,209.349C1752.84,206.505 1750.68,203.172 1749.27,199.443C1747.2,193.994 1746.88,187.883 1748.37,182.237L1748.46,181.871L1748.47,181.865C1749.76,177.215 1752.25,172.954 1755.68,169.519C1757.6,167.605 1759.73,166 1762.06,164.724C1760.27,164.328 1758.44,164.129 1756.59,164.129C1750.1,164.129 1743.93,166.579 1739.22,171.027C1739.05,171.193 1738.87,171.366 1738.69,171.54Z" style="fill:rgb(17,69,17);fill-rule:nonzero;"/>
                    </g>
                    <g transform="matrix(1,0,0,1,-1620.64,593.979)">
                        <path d="M1792.96,226.848C1793.14,226.681 1793.31,226.509 1793.49,226.334C1793.66,226.16 1793.83,225.983 1794,225.806C1800.61,218.807 1802.67,208.458 1799.25,199.441C1797.98,196.096 1796.04,193.105 1793.49,190.552C1790.32,187.385 1786.37,185.113 1782.07,183.983L1781.74,183.897C1779.73,183.395 1777.67,183.141 1775.59,183.141C1773.74,183.141 1771.91,183.34 1770.12,183.736C1772.45,185.012 1774.59,186.617 1776.5,188.531C1779.34,191.372 1781.5,194.701 1782.91,198.425C1784.96,203.827 1785.3,209.869 1783.86,215.462L1783.51,216.711C1782.17,221.09 1779.76,225.099 1776.5,228.361C1774.59,230.274 1772.45,231.877 1770.12,233.152C1771.91,233.547 1773.74,233.746 1775.6,233.746C1782.08,233.746 1788.25,231.296 1792.96,226.848Z" style="fill:rgb(178,223,219);fill-rule:nonzero;"/>
                    </g>
                </g>
            </g>
            <g transform="matrix(0.908233,0.432524,-0.432524,0.908233,811.17,-417.851)">
                <g transform="matrix(1,0,0,1,-1620.64,593.979)">
                    <path d="M1781.04,214.918L1781.13,214.573C1782.08,210.791 1782.12,206.787 1781.29,202.977C1780.01,205.303 1778.41,207.436 1776.5,209.347C1773.66,212.186 1770.33,214.345 1766.6,215.762L1766.34,215.856C1760.96,217.84 1754.94,218.127 1749.39,216.662C1744.59,215.401 1740.19,212.871 1736.67,209.347C1734.76,207.436 1733.16,205.304 1731.88,202.981C1730.11,211.069 1732.42,219.711 1738.18,225.809C1738.35,225.985 1738.52,226.162 1738.69,226.335C1738.87,226.511 1739.05,226.685 1739.22,226.854C1746.18,233.429 1756.46,235.504 1765.45,232.148L1765.58,232.098C1768.93,230.829 1771.92,228.89 1774.48,226.337C1777.64,223.171 1779.91,219.222 1781.04,214.918Z" style="fill:rgb(0,188,212);fill-rule:nonzero;"/>
                </g>
                <g transform="matrix(1,0,0,1,-1620.64,593.979)">
                    <path d="M1793.49,171.545C1793.31,171.371 1793.14,171.199 1792.96,171.032C1785.96,164.419 1775.61,162.356 1766.6,165.778C1763.25,167.049 1760.26,168.989 1757.7,171.543C1754.54,174.709 1752.27,178.658 1751.13,182.963C1750.11,186.847 1750.04,190.975 1750.89,194.895C1752.17,192.572 1753.77,190.44 1755.68,188.528C1758.53,185.682 1761.86,183.523 1765.58,182.113C1771.03,180.042 1777.15,179.719 1782.79,181.213L1783.17,181.317C1787.82,182.608 1792.08,185.095 1795.51,188.528C1797.42,190.438 1799.02,192.571 1800.3,194.898C1802.07,186.811 1799.76,178.169 1794,172.07C1793.84,171.897 1793.66,171.72 1793.49,171.545Z" style="fill:rgb(248,178,81);fill-rule:nonzero;"/>
                </g>
                <g transform="matrix(1,0,0,1,-1620.64,593.979)">
                    <path d="M1738.69,171.54C1738.52,171.715 1738.35,171.892 1738.18,172.069C1731.57,179.068 1729.51,189.418 1732.93,198.436C1734.2,201.778 1736.14,204.769 1738.69,207.323C1741.86,210.49 1745.81,212.761 1750.11,213.892L1750.43,213.975C1752.44,214.477 1754.51,214.732 1756.59,214.732C1758.44,214.732 1760.27,214.533 1762.05,214.138C1759.73,212.863 1757.59,211.26 1755.68,209.349C1752.84,206.505 1750.68,203.172 1749.27,199.443C1747.2,193.994 1746.88,187.883 1748.37,182.237L1748.46,181.871L1748.47,181.865C1749.76,177.215 1752.25,172.954 1755.68,169.519C1757.6,167.605 1759.73,166 1762.06,164.724C1760.27,164.328 1758.44,164.129 1756.59,164.129C1750.1,164.129 1743.93,166.579 1739.22,171.027C1739.05,171.193 1738.87,171.366 1738.69,171.54Z" style="fill:rgb(17,69,17);fill-rule:nonzero;"/>
                </g>
                <g transform="matrix(1,0,0,1,-1620.64,593.979)">
                    <path d="M1792.96,226.848C1793.14,226.681 1793.31,226.509 1793.49,226.334C1793.66,226.16 1793.83,225.983 1794,225.806C1800.61,218.807 1802.67,208.458 1799.25,199.441C1797.98,196.096 1796.04,193.105 1793.49,190.552C1790.32,187.385 1786.37,185.113 1782.07,183.983L1781.74,183.897C1779.73,183.395 1777.67,183.141 1775.59,183.141C1773.74,183.141 1771.91,183.34 1770.12,183.736C1772.45,185.012 1774.59,186.617 1776.5,188.531C1779.34,191.372 1781.5,194.701 1782.91,198.425C1784.96,203.827 1785.3,209.869 1783.86,215.462L1783.51,216.711C1782.17,221.09 1779.76,225.099 1776.5,228.361C1774.59,230.274 1772.45,231.877 1770.12,233.152C1771.91,233.547 1773.74,233.746 1775.6,233.746C1782.08,233.746 1788.25,231.296 1792.96,226.848Z" style="fill:rgb(178,223,219);fill-rule:nonzero;"/>
                </g>
            </g>
        </g>
    </g>
</svg>
