<?xml version="1.0" encoding="UTF-8" standalone="no"?>
<!DOCTYPE svg PUBLIC "-//W3C//DTD SVG 1.1//EN" "http://www.w3.org/Graphics/SVG/1.1/DTD/svg11.dtd">
<svg width="100%" height="100%" viewBox="0 0 2363 1421" version="1.1" xmlns="http://www.w3.org/2000/svg" xmlns:xlink="http://www.w3.org/1999/xlink" xml:space="preserve" xmlns:serif="http://www.serif.com/" style="fill-rule:evenodd;clip-rule:evenodd;stroke-linejoin:round;stroke-miterlimit:2;">
    <g transform="matrix(4.16667,0,0,4.16667,0,0)">
        <rect x="0" y="0.842" width="566.93" height="340.158" style="fill:rgb(45,65,97);fill-rule:nonzero;"/>
        <path d="M394.263,210.68C366.414,219.858 304.93,244.233 316.93,252.222C328.93,260.211 408.263,236.244 455.596,258.613C502.93,280.982 478.263,250.625 455.596,243.435C432.93,236.245 372.263,242.636 394.263,229.055C416.263,215.473 420.929,201.892 394.263,210.68Z" style="fill:rgb(31,9,56);fill-rule:nonzero;"/>
        <path d="M43.929,135.787C70.429,157.955 97.929,154.959 131.93,148.968C168.419,142.537 264.43,112.42 265.93,122.605C266.815,128.623 134.93,158.554 137.93,179.525C140.93,200.495 199.93,187.314 201.43,198.098C202.93,208.884 100.43,216.073 41.929,280.781C4.423,322.267 22.929,278.984 50.929,252.622C78.929,226.259 90.584,195.16 61.929,180.723C17.929,158.554 12.708,94.912 20.929,99.838C24.929,102.234 30.964,124.941 43.929,135.787Z" style="fill:rgb(31,9,56);fill-rule:nonzero;"/>
        <path d="M432.263,96.122C520.93,124.082 419.595,145.173 284.261,209.882C206.614,247.008 205.598,314.538 384.931,285.778C464.93,272.949 514.591,313.722 522.737,341L21.666,341C22.276,337.038 23.345,333.372 24.929,328.916C57.595,237.045 303.597,209.086 286.93,188.315C270.264,167.545 217.269,196.868 220.931,168.344C223.598,147.573 366.263,145.975 330.263,94.848C294.263,43.72 96.929,174.734 42.929,95.646C10.467,48.102 94.851,17.157 167.329,0.842L526.93,0.842C379.596,33.455 364.339,74.703 432.263,96.122Z" style="fill:rgb(31,9,56);fill-rule:nonzero;"/>
        <path d="M460.738,93.457C460.738,94.667 461.719,95.648 462.93,95.648C464.14,95.648 465.121,94.667 465.121,93.457C465.121,92.247 464.14,91.265 462.93,91.265C461.719,91.265 460.738,92.247 460.738,93.457Z" style="fill:rgb(95,255,255);fill-rule:nonzero;"/>
        <path d="M519.737,172.456C519.737,173.667 520.719,174.647 521.93,174.647C523.14,174.647 524.12,173.667 524.12,172.456C524.12,171.246 523.14,170.265 521.93,170.265C520.719,170.265 519.737,171.246 519.737,172.456Z" style="fill:rgb(95,255,255);fill-rule:nonzero;"/>
        <path d="M28.738,45.956C28.738,47.167 29.718,48.148 30.929,48.148C32.14,48.148 33.121,47.167 33.121,45.956C33.121,44.747 32.14,43.765 30.929,43.765C29.718,43.765 28.738,44.747 28.738,45.956Z" style="fill:rgb(95,255,255);fill-rule:nonzero;"/>
        <path d="M206.738,12.456C206.738,13.666 207.719,14.647 208.93,14.647C210.141,14.647 211.121,13.666 211.121,12.456C211.121,11.246 210.141,10.265 208.93,10.265C207.719,10.265 206.738,11.246 206.738,12.456Z" style="fill:rgb(95,255,255);fill-rule:nonzero;"/>
        <path d="M268.908,96.501C268.908,97.711 269.889,98.692 271.099,98.692C272.309,98.692 273.29,97.711 273.29,96.501C273.29,95.291 272.309,94.31 271.099,94.31C269.889,94.31 268.908,95.291 268.908,96.501Z" style="fill:rgb(95,255,255);fill-rule:nonzero;"/>
        <path d="M53.87,118.055C53.87,119.265 54.85,120.247 56.061,120.247C57.271,120.247 58.252,119.265 58.252,118.055C58.252,116.846 57.271,115.864 56.061,115.864C54.85,115.864 53.87,116.846 53.87,118.055Z" style="fill:rgb(95,255,255);fill-rule:nonzero;"/>
        <path d="M357.285,19.204C357.285,19.884 357.837,20.436 358.519,20.436C359.198,20.436 359.75,19.884 359.75,19.204C359.75,18.523 359.198,17.971 358.519,17.971C357.837,17.971 357.285,18.523 357.285,19.204Z" style="fill:rgb(95,255,255);fill-rule:nonzero;"/>
        <path d="M250.535,151.414C250.535,152.094 251.088,152.646 251.77,152.646C252.449,152.646 253.001,152.094 253.001,151.414C253.001,150.733 252.449,150.181 251.77,150.181C251.088,150.181 250.535,150.733 250.535,151.414Z" style="fill:rgb(95,255,255);fill-rule:nonzero;"/>
        <path d="M267.984,171.942C267.984,172.623 268.537,173.175 269.219,173.175C269.898,173.175 270.45,172.623 270.45,171.942C270.45,171.262 269.898,170.71 269.219,170.71C268.537,170.71 267.984,171.262 267.984,171.942Z" style="fill:rgb(98,205,246);fill-rule:nonzero;"/>
        <path d="M145.446,221.707C145.446,222.387 145.999,222.939 146.681,222.939C147.36,222.939 147.912,222.387 147.912,221.707C147.912,221.026 147.36,220.473 146.681,220.473C145.999,220.473 145.446,221.026 145.446,221.707Z" style="fill:rgb(95,255,255);fill-rule:nonzero;"/>
        <path d="M231.595,281.453C231.595,282.134 232.147,282.685 232.829,282.685C233.509,282.685 234.061,282.134 234.061,281.453C234.061,280.772 233.509,280.219 232.829,280.219C232.147,280.219 231.595,280.772 231.595,281.453Z" style="fill:rgb(98,205,246);fill-rule:nonzero;"/>
        <path d="M43.709,310.812C43.709,311.493 44.26,312.046 44.942,312.046C45.622,312.046 46.174,311.493 46.174,310.812C46.174,310.132 45.622,309.58 44.942,309.58C44.26,309.58 43.709,310.132 43.709,310.812Z" style="fill:rgb(95,255,255);fill-rule:nonzero;"/>
        <path d="M76.029,104.789C76.029,105.47 76.581,106.022 77.261,106.022C77.942,106.022 78.495,105.47 78.495,104.789C78.495,104.109 77.942,103.557 77.261,103.557C76.581,103.557 76.029,104.109 76.029,104.789Z" style="fill:rgb(255,234,113);fill-rule:nonzero;"/>
        <path d="M336.243,107.791C336.243,108.472 336.795,109.024 337.476,109.024C338.156,109.024 338.708,108.472 338.708,107.791C338.708,107.111 338.156,106.559 337.476,106.559C336.795,106.559 336.243,107.111 336.243,107.791Z" style="fill:rgb(95,255,255);fill-rule:nonzero;"/>
        <path d="M335.348,146.027C335.348,146.494 335.727,146.873 336.194,146.873C336.663,146.873 337.042,146.494 337.042,146.027C337.042,145.558 336.663,145.179 336.194,145.179C335.727,145.179 335.348,145.558 335.348,146.027Z" style="fill:rgb(95,255,255);fill-rule:nonzero;"/>
        <path d="M407.485,100.093C407.485,100.562 407.864,100.94 408.333,100.94C408.801,100.94 409.18,100.562 409.18,100.093C409.18,99.625 408.801,99.246 408.333,99.246C407.864,99.246 407.485,99.625 407.485,100.093Z" style="fill:rgb(95,255,255);fill-rule:nonzero;"/>
        <path d="M412.104,131.912C412.104,132.381 412.483,132.759 412.952,132.759C413.42,132.759 413.799,132.381 413.799,131.912C413.799,131.445 413.42,131.066 412.952,131.066C412.483,131.066 412.104,131.445 412.104,131.912Z" style="fill:rgb(95,255,255);fill-rule:nonzero;"/>
        <path d="M381.312,126.78C381.312,127.248 381.69,127.627 382.159,127.627C382.627,127.627 383.006,127.248 383.006,126.78C383.006,126.312 382.627,125.933 382.159,125.933C381.69,125.933 381.312,126.312 381.312,126.78Z" style="fill:rgb(95,255,255);fill-rule:nonzero;"/>
        <path d="M380.253,165.752C380.253,166.22 380.632,166.599 381.1,166.599C381.567,166.599 381.946,166.22 381.946,165.752C381.946,165.284 381.567,164.905 381.1,164.905C380.632,164.905 380.253,165.284 380.253,165.752Z" style="fill:rgb(95,255,255);fill-rule:nonzero;"/>
        <path d="M349.973,151.895C349.973,152.363 350.352,152.742 350.82,152.742C351.288,152.742 351.667,152.363 351.667,151.895C351.667,151.427 351.288,151.049 350.82,151.049C350.352,151.049 349.973,151.427 349.973,151.895Z" style="fill:rgb(95,255,255);fill-rule:nonzero;"/>
        <path d="M391.171,144.788C391.171,145.49 391.739,146.059 392.441,146.059C393.143,146.059 393.711,145.49 393.711,144.788C393.711,144.086 393.143,143.518 392.441,143.518C391.739,143.518 391.171,144.086 391.171,144.788Z" style="fill:rgb(95,255,255);fill-rule:nonzero;"/>
        <path d="M369.659,148.185C369.659,148.887 370.228,149.456 370.93,149.456C371.631,149.456 372.199,148.887 372.199,148.185C372.199,147.483 371.631,146.915 370.93,146.915C370.228,146.915 369.659,147.483 369.659,148.185Z" style="fill:rgb(95,255,255);fill-rule:nonzero;"/>
        <path d="M363.659,162.185C363.659,162.887 364.228,163.456 364.93,163.456C365.631,163.456 366.199,162.887 366.199,162.185C366.199,161.483 365.631,160.915 364.93,160.915C364.228,160.915 363.659,161.483 363.659,162.185Z" style="fill:rgb(95,255,255);fill-rule:nonzero;"/>
        <path d="M449.171,110.558C449.171,111.261 449.739,111.829 450.441,111.829C451.143,111.829 451.711,111.261 451.711,110.558C451.711,109.857 451.143,109.288 450.441,109.288C449.739,109.288 449.171,109.857 449.171,110.558Z" style="fill:white;fill-rule:nonzero;"/>
        <path d="M421.659,127.955C421.659,128.658 422.228,129.226 422.93,129.226C423.631,129.226 424.199,128.658 424.199,127.955C424.199,127.254 423.631,126.685 422.93,126.685C422.228,126.685 421.659,127.254 421.659,127.955Z" style="fill:rgb(95,255,255);fill-rule:nonzero;"/>
        <path d="M382.023,108.455C382.023,109.509 382.876,110.362 383.93,110.362C384.982,110.362 385.835,109.509 385.835,108.455C385.835,107.403 384.982,106.55 383.93,106.55C382.876,106.55 382.023,107.403 382.023,108.455Z" style="fill:rgb(255,234,113);fill-rule:nonzero;"/>
        <path d="M347.941,171.059C347.941,171.761 348.51,172.33 349.212,172.33C349.913,172.33 350.481,171.761 350.481,171.059C350.481,170.357 349.913,169.789 349.212,169.789C348.51,169.789 347.941,170.357 347.941,171.059Z" style="fill:rgb(95,255,255);fill-rule:nonzero;"/>
        <path d="M329.564,189.456C329.564,190.159 330.133,190.727 330.835,190.727C331.536,190.727 332.104,190.159 332.104,189.456C332.104,188.755 331.536,188.186 330.835,188.186C330.133,188.186 329.564,188.755 329.564,189.456Z" style="fill:rgb(95,255,255);fill-rule:nonzero;"/>
        <path d="M327.671,201.288C327.671,201.99 328.239,202.558 328.941,202.558C329.643,202.558 330.211,201.99 330.211,201.288C330.211,200.586 329.643,200.017 328.941,200.017C328.239,200.017 327.671,200.586 327.671,201.288Z" style="fill:rgb(95,255,255);fill-rule:nonzero;"/>
        <path d="M300.159,218.684C300.159,219.387 300.728,219.956 301.43,219.956C302.131,219.956 302.699,219.387 302.699,218.684C302.699,217.983 302.131,217.415 301.43,217.415C300.728,217.415 300.159,217.983 300.159,218.684Z" style="fill:rgb(95,255,255);fill-rule:nonzero;"/>
        <path d="M252.43,213.456C252.43,214.158 252.998,214.726 253.7,214.726C254.401,214.726 254.97,214.158 254.97,213.456C254.97,212.754 254.401,212.185 253.7,212.185C252.998,212.185 252.43,212.754 252.43,213.456Z" style="fill:rgb(95,255,255);fill-rule:nonzero;"/>
        <path d="M100.991,259.517C100.991,260.218 101.56,260.787 102.262,260.787C102.963,260.787 103.531,260.218 103.531,259.517C103.531,258.814 102.963,258.246 102.262,258.246C101.56,258.246 100.991,258.814 100.991,259.517Z" style="fill:rgb(95,255,255);fill-rule:nonzero;"/>
        <path d="M150.324,310.182C150.324,310.884 150.893,311.453 151.595,311.453C152.296,311.453 152.864,310.884 152.864,310.182C152.864,309.48 152.296,308.912 151.595,308.912C150.893,308.912 150.324,309.48 150.324,310.182Z" style="fill:rgb(95,255,255);fill-rule:nonzero;"/>
        <path d="M226.671,209.788C226.671,210.49 227.239,211.058 227.941,211.058C228.643,211.058 229.211,210.49 229.211,209.788C229.211,209.086 228.643,208.517 227.941,208.517C227.239,208.517 226.671,209.086 226.671,209.788Z" style="fill:rgb(95,255,255);fill-rule:nonzero;"/>
        <path d="M199.159,227.184C199.159,227.887 199.728,228.456 200.43,228.456C201.131,228.456 201.699,227.887 201.699,227.184C201.699,226.483 201.131,225.915 200.43,225.915C199.728,225.915 199.159,226.483 199.159,227.184Z" style="fill:rgb(255,234,113);fill-rule:nonzero;"/>
        <path d="M178.992,253.456C178.992,254.158 179.561,254.726 180.263,254.726C180.964,254.726 181.532,254.158 181.532,253.456C181.532,252.754 180.964,252.185 180.263,252.185C179.561,252.185 178.992,252.754 178.992,253.456Z" style="fill:rgb(95,255,255);fill-rule:nonzero;"/>
        <path d="M175.063,268.956C175.063,269.658 175.632,270.226 176.334,270.226C177.035,270.226 177.604,269.658 177.604,268.956C177.604,268.254 177.035,267.685 176.334,267.685C175.632,267.685 175.063,268.254 175.063,268.956Z" style="fill:rgb(255,234,113);fill-rule:nonzero;"/>
        <path d="M168.659,301.765C168.659,302.468 169.228,303.037 169.93,303.037C170.631,303.037 171.199,302.468 171.199,301.765C171.199,301.064 170.631,300.496 169.93,300.496C169.228,300.496 168.659,301.064 168.659,301.765Z" style="fill:white;fill-rule:nonzero;"/>
        <path d="M120.93,265.956C120.93,266.658 121.498,267.226 122.2,267.226C122.901,267.226 123.47,266.658 123.47,265.956C123.47,265.254 122.901,264.685 122.2,264.685C121.498,264.685 120.93,265.254 120.93,265.956Z" style="fill:rgb(255,234,113);fill-rule:nonzero;"/>
        <path d="M254.171,227.288C254.171,227.99 254.739,228.558 255.441,228.558C256.143,228.558 256.711,227.99 256.711,227.288C256.711,226.586 256.143,226.017 255.441,226.017C254.739,226.017 254.171,226.586 254.171,227.288Z" style="fill:rgb(95,255,255);fill-rule:nonzero;"/>
        <path d="M306.324,291.516C306.324,292.218 306.893,292.787 307.595,292.787C308.296,292.787 308.864,292.218 308.864,291.516C308.864,290.814 308.296,290.246 307.595,290.246C306.893,290.246 306.324,290.814 306.324,291.516Z" style="fill:rgb(95,255,255);fill-rule:nonzero;"/>
        <path d="M478.659,318.537C478.659,319.24 479.228,319.808 479.93,319.808C480.631,319.808 481.199,319.24 481.199,318.537C481.199,317.836 480.631,317.267 479.93,317.267C479.228,317.267 478.659,317.836 478.659,318.537Z" style="fill:rgb(255,234,113);fill-rule:nonzero;"/>
        <path d="M503.159,332.765C503.159,333.468 503.728,334.037 504.43,334.037C505.131,334.037 505.699,333.468 505.699,332.765C505.699,332.064 505.131,331.496 504.43,331.496C503.728,331.496 503.159,332.064 503.159,332.765Z" style="fill:rgb(95,255,255);fill-rule:nonzero;"/>
        <path d="M431.671,91.288C431.671,91.99 432.239,92.559 432.941,92.559C433.643,92.559 434.211,91.99 434.211,91.288C434.211,90.586 433.643,90.018 432.941,90.018C432.239,90.018 431.671,90.586 431.671,91.288Z" style="fill:rgb(95,255,255);fill-rule:nonzero;"/>
        <path d="M404.159,108.684C404.159,109.387 404.728,109.956 405.43,109.956C406.131,109.956 406.699,109.387 406.699,108.684C406.699,107.983 406.131,107.415 405.43,107.415C404.728,107.415 404.159,107.983 404.159,108.684Z" style="fill:rgb(95,255,255);fill-rule:nonzero;"/>
        <path d="M356.43,103.456C356.43,104.158 356.998,104.726 357.7,104.726C358.401,104.726 358.97,104.158 358.97,103.456C358.97,102.754 358.401,102.185 357.7,102.185C356.998,102.185 356.43,102.754 356.43,103.456Z" style="fill:rgb(95,255,255);fill-rule:nonzero;"/>
        <path d="M354.171,67.788C354.171,68.49 354.739,69.059 355.441,69.059C356.143,69.059 356.711,68.49 356.711,67.788C356.711,67.086 356.143,66.518 355.441,66.518C354.739,66.518 354.171,67.086 354.171,67.788Z" style="fill:rgb(95,255,255);fill-rule:nonzero;"/>
        <path d="M326.659,85.185C326.659,85.888 327.228,86.456 327.93,86.456C328.631,86.456 329.199,85.888 329.199,85.185C329.199,84.484 328.631,83.915 327.93,83.915C327.228,83.915 326.659,84.484 326.659,85.185Z" style="fill:rgb(95,255,255);fill-rule:nonzero;"/>
        <path d="M278.93,79.956C278.93,80.658 279.498,81.227 280.2,81.227C280.901,81.227 281.47,80.658 281.47,79.956C281.47,79.254 280.901,78.686 280.2,78.686C279.498,78.686 278.93,79.254 278.93,79.956Z" style="fill:rgb(95,255,255);fill-rule:nonzero;"/>
        <path d="M198.93,104.456C198.93,105.158 199.498,105.726 200.2,105.726C200.901,105.726 201.47,105.158 201.47,104.456C201.47,103.754 200.901,103.185 200.2,103.185C199.498,103.185 198.93,103.754 198.93,104.456Z" style="fill:rgb(95,255,255);fill-rule:nonzero;"/>
        <path d="M486.389,59.455C486.389,60.157 486.957,60.726 487.659,60.726C488.36,60.726 488.929,60.157 488.929,59.455C488.929,58.753 488.36,58.185 487.659,58.185C486.957,58.185 486.389,58.753 486.389,59.455Z" style="fill:rgb(255,234,113);fill-rule:nonzero;"/>
        <path d="M419.325,74.789C419.325,75.492 419.894,76.061 420.596,76.061C421.297,76.061 421.865,75.492 421.865,74.789C421.865,74.088 421.297,73.52 420.596,73.52C419.894,73.52 419.325,74.088 419.325,74.789Z" style="fill:rgb(95,255,255);fill-rule:nonzero;"/>
        <path d="M419.657,30.057C419.657,30.76 420.226,31.328 420.928,31.328C421.629,31.328 422.197,30.76 422.197,30.057C422.197,29.356 421.629,28.787 420.928,28.787C420.226,28.787 419.657,29.356 419.657,30.057Z" style="fill:rgb(95,255,255);fill-rule:nonzero;"/>
        <path d="M372.43,63.956C372.43,64.658 372.998,65.227 373.7,65.227C374.401,65.227 374.97,64.658 374.97,63.956C374.97,63.254 374.401,62.686 373.7,62.686C372.998,62.686 372.43,63.254 372.43,63.956Z" style="fill:rgb(95,255,255);fill-rule:nonzero;"/>
        <path d="M380.324,42.058C380.324,42.76 380.893,43.328 381.595,43.328C382.296,43.328 382.864,42.76 382.864,42.058C382.864,41.356 382.296,40.787 381.595,40.787C380.893,40.787 380.324,41.356 380.324,42.058Z" style="fill:rgb(95,255,255);fill-rule:nonzero;"/>
        <path d="M333.595,39.454C333.595,40.156 334.163,40.724 334.865,40.724C335.566,40.724 336.135,40.156 336.135,39.454C336.135,38.752 335.566,38.183 334.865,38.183C334.163,38.183 333.595,38.752 333.595,39.454Z" style="fill:rgb(95,255,255);fill-rule:nonzero;"/>
        <path d="M317.671,51.788C317.671,52.49 318.239,53.059 318.941,53.059C319.643,53.059 320.211,52.49 320.211,51.788C320.211,51.086 319.643,50.518 318.941,50.518C318.239,50.518 317.671,51.086 317.671,51.788Z" style="fill:rgb(95,255,255);fill-rule:nonzero;"/>
        <path d="M290.159,69.185C290.159,69.888 290.728,70.456 291.43,70.456C292.131,70.456 292.699,69.888 292.699,69.185C292.699,68.484 292.131,67.915 291.43,67.915C290.728,67.915 290.159,68.484 290.159,69.185Z" style="fill:rgb(95,255,255);fill-rule:nonzero;"/>
        <path d="M242.43,63.956C242.43,64.658 242.998,65.227 243.7,65.227C244.401,65.227 244.97,64.658 244.97,63.956C244.97,63.254 244.401,62.686 243.7,62.686C242.998,62.686 242.43,63.254 242.43,63.956Z" style="fill:rgb(98,205,246);fill-rule:nonzero;"/>
        <path d="M225.659,102.685C225.659,103.387 226.228,103.956 226.93,103.956C227.631,103.956 228.199,103.387 228.199,102.685C228.199,101.983 227.631,101.415 226.93,101.415C226.228,101.415 225.659,101.983 225.659,102.685Z" style="fill:rgb(95,255,255);fill-rule:nonzero;"/>
        <path d="M236.889,91.914C236.889,92.617 237.457,93.186 238.159,93.186C238.86,93.186 239.429,92.617 239.429,91.914C239.429,91.213 238.86,90.645 238.159,90.645C237.457,90.645 236.889,91.213 236.889,91.914Z" style="fill:rgb(95,255,255);fill-rule:nonzero;"/>
        <path d="M189.159,86.686C189.159,87.388 189.728,87.956 190.43,87.956C191.131,87.956 191.699,87.388 191.699,86.686C191.699,85.984 191.131,85.415 190.43,85.415C189.728,85.415 189.159,85.984 189.159,86.686Z" style="fill:rgb(95,255,255);fill-rule:nonzero;"/>
        <path d="M147.992,110.726C147.992,111.428 148.561,111.997 149.263,111.997C149.964,111.997 150.532,111.428 150.532,110.726C150.532,110.024 149.964,109.456 149.263,109.456C148.561,109.456 147.992,110.024 147.992,110.726Z" style="fill:rgb(95,255,255);fill-rule:nonzero;"/>
        <path d="M163.89,113.956C163.89,114.659 164.458,115.227 165.16,115.227C165.861,115.227 166.43,114.659 166.43,113.956C166.43,113.255 165.861,112.686 165.16,112.686C164.458,112.686 163.89,113.255 163.89,113.956Z" style="fill:rgb(95,255,255);fill-rule:nonzero;"/>
        <path d="M92.326,100.79C92.326,101.491 92.894,102.06 93.596,102.06C94.297,102.06 94.866,101.491 94.866,100.79C94.866,100.088 94.297,99.519 93.596,99.519C92.894,99.519 92.326,100.088 92.326,100.79Z" style="fill:rgb(95,255,255);fill-rule:nonzero;"/>
        <path d="M84.324,30.058C84.324,30.76 84.892,31.328 85.594,31.328C86.295,31.328 86.864,30.76 86.864,30.058C86.864,29.356 86.295,28.787 85.594,28.787C84.892,28.787 84.324,29.356 84.324,30.058Z" style="fill:rgb(95,255,255);fill-rule:nonzero;"/>
        <path d="M123.722,19.454C123.722,20.156 124.29,20.724 124.992,20.724C125.693,20.724 126.262,20.156 126.262,19.454C126.262,18.752 125.693,18.183 124.992,18.183C124.29,18.183 123.722,18.752 123.722,19.454Z" style="fill:rgb(95,255,255);fill-rule:nonzero;"/>
        <path d="M386.083,81.11C386.083,81.577 386.462,81.956 386.93,81.956C387.397,81.956 387.776,81.577 387.776,81.11C387.776,80.641 387.397,80.262 386.93,80.262C386.462,80.262 386.083,80.641 386.083,81.11Z" style="fill:rgb(95,255,255);fill-rule:nonzero;"/>
        <path d="M400.708,86.978C400.708,87.446 401.087,87.825 401.555,87.825C402.022,87.825 402.401,87.446 402.401,86.978C402.401,86.51 402.022,86.132 401.555,86.132C401.087,86.132 400.708,86.51 400.708,86.978Z" style="fill:rgb(95,255,255);fill-rule:nonzero;"/>
        <path d="M372.994,82.36C372.994,82.827 373.373,83.206 373.841,83.206C374.31,83.206 374.688,82.827 374.688,82.36C374.688,81.891 374.31,81.512 373.841,81.512C373.373,81.512 372.994,81.891 372.994,82.36Z" style="fill:rgb(95,255,255);fill-rule:nonzero;"/>
        <path d="M321.083,67.61C321.083,68.077 321.462,68.456 321.93,68.456C322.397,68.456 322.776,68.077 322.776,67.61C322.776,67.141 322.397,66.762 321.93,66.762C321.462,66.762 321.083,67.141 321.083,67.61Z" style="fill:rgb(95,255,255);fill-rule:nonzero;"/>
        <path d="M335.708,73.478C335.708,73.946 336.087,74.325 336.555,74.325C337.022,74.325 337.401,73.946 337.401,73.478C337.401,73.01 337.022,72.632 336.555,72.632C336.087,72.632 335.708,73.01 335.708,73.478Z" style="fill:rgb(95,255,255);fill-rule:nonzero;"/>
        <path d="M307.994,68.86C307.994,69.327 308.373,69.706 308.841,69.706C309.31,69.706 309.688,69.327 309.688,68.86C309.688,68.391 309.31,68.012 308.841,68.012C308.373,68.012 307.994,68.391 307.994,68.86Z" style="fill:rgb(95,255,255);fill-rule:nonzero;"/>
        <path d="M89.083,87.11C89.083,87.577 89.461,87.956 89.929,87.956C90.398,87.956 90.777,87.577 90.777,87.11C90.777,86.641 90.398,86.262 89.929,86.262C89.461,86.262 89.083,86.641 89.083,87.11Z" style="fill:rgb(95,255,255);fill-rule:nonzero;"/>
        <path d="M103.708,92.978C103.708,93.446 104.087,93.825 104.555,93.825C105.023,93.825 105.402,93.446 105.402,92.978C105.402,92.51 105.023,92.132 104.555,92.132C104.087,92.132 103.708,92.51 103.708,92.978Z" style="fill:rgb(95,255,255);fill-rule:nonzero;"/>
        <path d="M75.994,88.36C75.994,88.827 76.373,89.206 76.841,89.206C77.309,89.206 77.688,88.827 77.688,88.36C77.688,87.891 77.309,87.512 76.841,87.512C76.373,87.512 75.994,87.891 75.994,88.36Z" style="fill:white;fill-rule:nonzero;"/>
        <path d="M304.083,86.61C304.083,87.077 304.462,87.456 304.93,87.456C305.398,87.456 305.777,87.077 305.777,86.61C305.777,86.141 305.398,85.762 304.93,85.762C304.462,85.762 304.083,86.141 304.083,86.61Z" style="fill:rgb(95,255,255);fill-rule:nonzero;"/>
        <path d="M318.708,92.478C318.708,92.946 319.087,93.325 319.555,93.325C320.023,93.325 320.402,92.946 320.402,92.478C320.402,92.01 320.023,91.632 319.555,91.632C319.087,91.632 318.708,92.01 318.708,92.478Z" style="fill:rgb(95,255,255);fill-rule:nonzero;"/>
        <path d="M290.994,87.86C290.994,88.327 291.373,88.706 291.842,88.706C292.31,88.706 292.688,88.327 292.688,87.86C292.688,87.391 292.31,87.012 291.842,87.012C291.373,87.012 290.994,87.391 290.994,87.86Z" style="fill:rgb(95,255,255);fill-rule:nonzero;"/>
        <path d="M330.93,125.956C330.93,126.424 331.309,126.802 331.776,126.802C332.245,126.802 332.624,126.424 332.624,125.956C332.624,125.488 332.245,125.109 331.776,125.109C331.309,125.109 330.93,125.488 330.93,125.956Z" style="fill:rgb(95,255,255);fill-rule:nonzero;"/>
        <path d="M345.555,131.824C345.555,132.293 345.934,132.672 346.401,132.672C346.87,132.672 347.249,132.293 347.249,131.824C347.249,131.357 346.87,130.978 346.401,130.978C345.934,130.978 345.555,131.357 345.555,131.824Z" style="fill:rgb(95,255,255);fill-rule:nonzero;"/>
        <path d="M282.083,191.609C282.083,192.077 282.462,192.456 282.93,192.456C283.398,192.456 283.777,192.077 283.777,191.609C283.777,191.141 283.398,190.762 282.93,190.762C282.462,190.762 282.083,191.141 282.083,191.609Z" style="fill:rgb(95,255,255);fill-rule:nonzero;"/>
        <path d="M351.487,179.456C351.487,179.925 351.866,180.303 352.334,180.303C352.803,180.303 353.182,179.925 353.182,179.456C353.182,178.989 352.803,178.61 352.334,178.61C351.866,178.61 351.487,178.989 351.487,179.456Z" style="fill:rgb(95,255,255);fill-rule:nonzero;"/>
        <path d="M255.153,163.622C255.153,164.09 255.532,164.469 256,164.469C256.467,164.469 256.846,164.09 256.846,163.622C256.846,163.155 256.467,162.776 256,162.776C255.532,162.776 255.153,163.155 255.153,163.622Z" style="fill:rgb(95,255,255);fill-rule:nonzero;"/>
        <path d="M297.208,160.977C297.208,161.446 297.587,161.825 298.055,161.825C298.523,161.825 298.902,161.446 298.902,160.977C298.902,160.51 298.523,160.132 298.055,160.132C297.587,160.132 297.208,160.51 297.208,160.977Z" style="fill:rgb(95,255,255);fill-rule:nonzero;"/>
        <path d="M228.083,188.109C228.083,188.577 228.462,188.956 228.93,188.956C229.398,188.956 229.777,188.577 229.777,188.109C229.777,187.641 229.398,187.262 228.93,187.262C228.462,187.262 228.083,187.641 228.083,188.109Z" style="fill:rgb(95,255,255);fill-rule:nonzero;"/>
        <path d="M242.708,193.977C242.708,194.446 243.087,194.825 243.555,194.825C244.023,194.825 244.402,194.446 244.402,193.977C244.402,193.51 244.023,193.132 243.555,193.132C243.087,193.132 242.708,193.51 242.708,193.977Z" style="fill:rgb(95,255,255);fill-rule:nonzero;"/>
        <path d="M214.994,189.359C214.994,189.827 215.373,190.206 215.842,190.206C216.31,190.206 216.688,189.827 216.688,189.359C216.688,188.891 216.31,188.512 215.842,188.512C215.373,188.512 214.994,188.891 214.994,189.359Z" style="fill:rgb(95,255,255);fill-rule:nonzero;"/>
        <path d="M197.583,309.69C197.583,310.158 197.962,310.537 198.43,310.537C198.898,310.537 199.277,310.158 199.277,309.69C199.277,309.222 198.898,308.843 198.43,308.843C197.962,308.843 197.583,309.222 197.583,309.69Z" style="fill:rgb(95,255,255);fill-rule:nonzero;"/>
        <path d="M212.208,315.558C212.208,316.027 212.587,316.406 213.055,316.406C213.523,316.406 213.902,316.027 213.902,315.558C213.902,315.092 213.523,314.713 213.055,314.713C212.587,314.713 212.208,315.092 212.208,315.558Z" style="fill:rgb(95,255,255);fill-rule:nonzero;"/>
        <path d="M184.494,310.94C184.494,311.408 184.873,311.787 185.342,311.787C185.81,311.787 186.188,311.408 186.188,310.94C186.188,310.472 185.81,310.093 185.342,310.093C184.873,310.093 184.494,310.472 184.494,310.94Z" style="fill:rgb(95,255,255);fill-rule:nonzero;"/>
        <path d="M302.208,314.558C302.208,315.027 302.587,315.406 303.055,315.406C303.523,315.406 303.902,315.027 303.902,314.558C303.902,314.092 303.523,313.713 303.055,313.713C302.587,313.713 302.208,314.092 302.208,314.558Z" style="fill:rgb(95,255,255);fill-rule:nonzero;"/>
        <path d="M264.986,319.623C264.986,320.091 265.365,320.469 265.834,320.469C266.302,320.469 266.681,320.091 266.681,319.623C266.681,319.155 266.302,318.776 265.834,318.776C265.365,318.776 264.986,319.155 264.986,319.623Z" style="fill:rgb(95,255,255);fill-rule:nonzero;"/>
        <path d="M183.735,195.456C183.735,195.924 184.114,196.302 184.582,196.302C185.051,196.302 185.43,195.924 185.43,195.456C185.43,194.988 185.051,194.609 184.582,194.609C184.114,194.609 183.735,194.988 183.735,195.456Z" style="fill:rgb(95,255,255);fill-rule:nonzero;"/>
        <path d="M198.36,201.324C198.36,201.793 198.739,202.172 199.207,202.172C199.676,202.172 200.055,201.793 200.055,201.324C200.055,200.857 199.676,200.478 199.207,200.478C198.739,200.478 198.36,200.857 198.36,201.324Z" style="fill:rgb(95,255,255);fill-rule:nonzero;"/>
        <path d="M170.646,196.706C170.646,197.174 171.025,197.552 171.494,197.552C171.962,197.552 172.341,197.174 172.341,196.706C172.341,196.238 171.962,195.859 171.494,195.859C171.025,195.859 170.646,196.238 170.646,196.706Z" style="fill:rgb(95,255,255);fill-rule:nonzero;"/>
        <path d="M293.006,143.749C293.006,144.217 293.385,144.596 293.853,144.596C294.321,144.596 294.7,144.217 294.7,143.749C294.7,143.281 294.321,142.902 293.853,142.902C293.385,142.902 293.006,143.281 293.006,143.749Z" style="fill:rgb(95,255,255);fill-rule:nonzero;"/>
        <path d="M216.568,168.864C216.568,169.332 216.948,169.711 217.416,169.711C217.884,169.711 218.264,169.332 218.264,168.864C218.264,168.396 217.884,168.017 217.416,168.017C216.948,168.017 216.568,168.396 216.568,168.864Z" style="fill:rgb(95,255,255);fill-rule:nonzero;"/>
        <path d="M343.814,190.387C343.814,190.854 344.193,191.234 344.661,191.234C345.13,191.234 345.509,190.854 345.509,190.387C345.509,189.919 345.13,189.539 344.661,189.539C344.193,189.539 343.814,189.919 343.814,190.387Z" style="fill:rgb(95,255,255);fill-rule:nonzero;"/>
        <path d="M280.688,228.365C280.688,228.833 281.067,229.213 281.536,229.213C282.004,229.213 282.383,228.833 282.383,228.365C282.383,227.897 282.004,227.517 281.536,227.517C281.067,227.517 280.688,227.897 280.688,228.365Z" style="fill:rgb(95,255,255);fill-rule:nonzero;"/>
        <path d="M435.68,18.915C435.68,19.382 436.059,19.761 436.527,19.761C436.995,19.761 437.374,19.382 437.374,18.915C437.374,18.446 436.995,18.068 436.527,18.068C436.059,18.068 435.68,18.446 435.68,18.915Z" style="fill:rgb(95,255,255);fill-rule:nonzero;"/>
        <path d="M231.934,52.365C231.934,52.832 232.313,53.211 232.78,53.211C233.248,53.211 233.627,52.832 233.627,52.365C233.627,51.896 233.248,51.517 232.78,51.517C232.313,51.517 231.934,51.896 231.934,52.365Z" style="fill:rgb(95,255,255);fill-rule:nonzero;"/>
        <path d="M89.262,60.456C89.262,60.924 89.641,61.302 90.109,61.302C90.577,61.302 90.956,60.924 90.956,60.456C90.956,59.987 90.577,59.609 90.109,59.609C89.641,59.609 89.262,59.987 89.262,60.456Z" style="fill:rgb(255,234,113);fill-rule:nonzero;"/>
        <path d="M65.902,70.456C65.902,70.924 66.281,71.302 66.749,71.302C67.216,71.302 67.595,70.924 67.595,70.456C67.595,69.987 67.216,69.609 66.749,69.609C66.281,69.609 65.902,69.987 65.902,70.456Z" style="fill:rgb(255,234,113);fill-rule:nonzero;"/>
        <path d="M394.902,39.79C394.902,40.257 395.281,40.636 395.749,40.636C396.217,40.636 396.596,40.257 396.596,39.79C396.596,39.321 396.217,38.942 395.749,38.942C395.281,38.942 394.902,39.321 394.902,39.79Z" style="fill:rgb(255,234,113);fill-rule:nonzero;"/>
        <path d="M273.083,15.664C273.083,16.132 273.462,16.51 273.93,16.51C274.397,16.51 274.776,16.132 274.776,15.664C274.776,15.195 274.397,14.817 273.93,14.817C273.462,14.817 273.083,15.195 273.083,15.664Z" style="fill:rgb(95,255,255);fill-rule:nonzero;"/>
        <path d="M181.083,12.818C181.083,13.285 181.462,13.664 181.93,13.664C182.397,13.664 182.776,13.285 182.776,12.818C182.776,12.349 182.397,11.97 181.93,11.97C181.462,11.97 181.083,12.349 181.083,12.818Z" style="fill:rgb(95,255,255);fill-rule:nonzero;"/>
        <path d="M13.736,231.456C13.736,231.923 14.115,232.301 14.583,232.301C15.05,232.301 15.429,231.923 15.429,231.456C15.429,230.987 15.05,230.608 14.583,230.608C14.115,230.608 13.736,230.987 13.736,231.456Z" style="fill:rgb(95,255,255);fill-rule:nonzero;"/>
        <path d="M69.236,250.456C69.236,250.923 69.615,251.301 70.083,251.301C70.55,251.301 70.929,250.923 70.929,250.456C70.929,249.987 70.55,249.608 70.083,249.608C69.615,249.608 69.236,249.987 69.236,250.456Z" style="fill:rgb(95,255,255);fill-rule:nonzero;"/>
        <path d="M48.583,232.61C48.583,233.077 48.961,233.456 49.429,233.456C49.897,233.456 50.276,233.077 50.276,232.61C50.276,232.141 49.897,231.762 49.429,231.762C48.961,231.762 48.583,232.141 48.583,232.61Z" style="fill:rgb(95,255,255);fill-rule:nonzero;"/>
        <path d="M480.583,329.691C480.583,330.158 480.962,330.537 481.43,330.537C481.897,330.537 482.276,330.158 482.276,329.691C482.276,329.222 481.897,328.843 481.43,328.843C480.962,328.843 480.583,329.222 480.583,329.691Z" style="fill:rgb(95,255,255);fill-rule:nonzero;"/>
        <path d="M480.583,301.691C480.583,302.158 480.962,302.537 481.43,302.537C481.897,302.537 482.276,302.158 482.276,301.691C482.276,301.222 481.897,300.843 481.43,300.843C480.962,300.843 480.583,301.222 480.583,301.691Z" style="fill:rgb(255,234,113);fill-rule:nonzero;"/>
        <path d="M112.835,45.179C112.835,45.647 113.214,46.026 113.682,46.026C114.15,46.026 114.529,45.647 114.529,45.179C114.529,44.711 114.15,44.332 113.682,44.332C113.214,44.332 112.835,44.711 112.835,45.179Z" style="fill:rgb(95,255,255);fill-rule:nonzero;"/>
        <path d="M45.635,18.402C45.635,18.869 46.014,19.248 46.482,19.248C46.95,19.248 47.329,18.869 47.329,18.402C47.329,17.933 46.95,17.554 46.482,17.554C46.014,17.554 45.635,17.933 45.635,18.402Z" style="fill:rgb(95,255,255);fill-rule:nonzero;"/>
        <path d="M23.053,98.522C23.053,98.989 23.432,99.368 23.9,99.368C24.369,99.368 24.748,98.989 24.748,98.522C24.748,98.053 24.369,97.674 23.9,97.674C23.432,97.674 23.053,98.053 23.053,98.522Z" style="fill:rgb(95,255,255);fill-rule:nonzero;"/>
        <path d="M178.045,112.378C178.045,112.846 178.424,113.225 178.893,113.225C179.36,113.225 179.739,112.846 179.739,112.378C179.739,111.909 179.36,111.53 178.893,111.53C178.424,111.53 178.045,111.909 178.045,112.378Z" style="fill:rgb(95,255,255);fill-rule:nonzero;"/>
        <path d="M359.211,92.363C359.211,92.831 359.59,93.21 360.058,93.21C360.526,93.21 360.905,92.831 360.905,92.363C360.905,91.895 360.526,91.516 360.058,91.516C359.59,91.516 359.211,91.895 359.211,92.363Z" style="fill:rgb(95,255,255);fill-rule:nonzero;"/>
        <path d="M419.257,59.517C419.257,59.985 419.636,60.364 420.104,60.364C420.572,60.364 420.951,59.985 420.951,59.517C420.951,59.049 420.572,58.67 420.104,58.67C419.636,58.67 419.257,59.049 419.257,59.517Z" style="fill:rgb(95,255,255);fill-rule:nonzero;"/>
        <path d="M468.081,36.609C468.081,37.076 468.46,37.455 468.929,37.455C469.396,37.455 469.775,37.076 469.775,36.609C469.775,36.14 469.396,35.761 468.929,35.761C468.46,35.761 468.081,36.14 468.081,36.609Z" style="fill:rgb(95,255,255);fill-rule:nonzero;"/>
        <path d="M457.595,30.122C457.595,30.59 457.974,30.969 458.442,30.969C458.91,30.969 459.289,30.59 459.289,30.122C459.289,29.653 458.91,29.275 458.442,29.275C457.974,29.275 457.595,29.653 457.595,30.122Z" style="fill:rgb(95,255,255);fill-rule:nonzero;"/>
        <path d="M473.416,66.79C473.416,67.258 473.795,67.637 474.263,67.637C474.731,67.637 475.11,67.258 475.11,66.79C475.11,66.321 474.731,65.943 474.263,65.943C473.795,65.943 473.416,66.321 473.416,66.79Z" style="fill:rgb(95,255,255);fill-rule:nonzero;"/>
        <path d="M392.1,99.141C392.1,99.415 392.321,99.637 392.596,99.637C392.87,99.637 393.093,99.415 393.093,99.141C393.093,98.866 392.87,98.644 392.596,98.644C392.321,98.644 392.1,98.866 392.1,99.141Z" style="fill:rgb(95,255,255);fill-rule:nonzero;"/>
        <path d="M385.433,73.394C385.433,73.668 385.655,73.89 385.93,73.89C386.204,73.89 386.426,73.668 386.426,73.394C386.426,73.119 386.204,72.897 385.93,72.897C385.655,72.897 385.433,73.119 385.433,73.394Z" style="fill:rgb(95,255,255);fill-rule:nonzero;"/>
        <path d="M348.263,83.956C348.263,84.23 348.484,84.452 348.759,84.452C349.033,84.452 349.256,84.23 349.256,83.956C349.256,83.681 349.033,83.459 348.759,83.459C348.484,83.459 348.263,83.681 348.263,83.956Z" style="fill:rgb(95,255,255);fill-rule:nonzero;"/>
        <path d="M346.1,102.96C346.1,103.234 346.321,103.456 346.596,103.456C346.87,103.456 347.093,103.234 347.093,102.96C347.093,102.685 346.87,102.463 346.596,102.463C346.321,102.463 346.1,102.685 346.1,102.96Z" style="fill:rgb(95,255,255);fill-rule:nonzero;"/>
        <path d="M349.1,118.293C349.1,118.567 349.321,118.789 349.596,118.789C349.87,118.789 350.093,118.567 350.093,118.293C350.093,118.018 349.87,117.796 349.596,117.796C349.321,117.796 349.1,118.018 349.1,118.293Z" style="fill:rgb(95,255,255);fill-rule:nonzero;"/>
        <path d="M380.263,98.956C380.263,99.23 380.484,99.452 380.759,99.452C381.033,99.452 381.256,99.23 381.256,98.956C381.256,98.681 381.033,98.459 380.759,98.459C380.484,98.459 380.263,98.681 380.263,98.956Z" style="fill:rgb(95,255,255);fill-rule:nonzero;"/>
        <path d="M443.437,127.308C443.437,127.582 443.658,127.804 443.933,127.804C444.207,127.804 444.43,127.582 444.43,127.308C444.43,127.033 444.207,126.811 443.933,126.811C443.658,126.811 443.437,127.033 443.437,127.308Z" style="fill:rgb(95,255,255);fill-rule:nonzero;"/>
        <path d="M436.77,101.561C436.77,101.835 436.992,102.057 437.267,102.057C437.541,102.057 437.763,101.835 437.763,101.561C437.763,101.286 437.541,101.064 437.267,101.064C436.992,101.064 436.77,101.286 436.77,101.561Z" style="fill:rgb(95,255,255);fill-rule:nonzero;"/>
        <path d="M399.6,112.123C399.6,112.397 399.821,112.619 400.096,112.619C400.37,112.619 400.593,112.397 400.593,112.123C400.593,111.848 400.37,111.626 400.096,111.626C399.821,111.626 399.6,111.848 399.6,112.123Z" style="fill:rgb(95,255,255);fill-rule:nonzero;"/>
        <path d="M431.6,127.123C431.6,127.397 431.821,127.619 432.096,127.619C432.37,127.619 432.593,127.397 432.593,127.123C432.593,126.848 432.37,126.626 432.096,126.626C431.821,126.626 431.6,126.848 431.6,127.123Z" style="fill:rgb(95,255,255);fill-rule:nonzero;"/>
        <path d="M388.437,52.471C388.437,52.745 388.658,52.967 388.933,52.967C389.207,52.967 389.43,52.745 389.43,52.471C389.43,52.196 389.207,51.974 388.933,51.974C388.658,51.974 388.437,52.196 388.437,52.471Z" style="fill:rgb(95,255,255);fill-rule:nonzero;"/>
        <path d="M381.77,26.725C381.77,26.999 381.992,27.221 382.267,27.221C382.541,27.221 382.763,26.999 382.763,26.725C382.763,26.45 382.541,26.228 382.267,26.228C381.992,26.228 381.77,26.45 381.77,26.725Z" style="fill:rgb(95,255,255);fill-rule:nonzero;"/>
        <path d="M344.6,37.287C344.6,37.561 344.821,37.783 345.096,37.783C345.37,37.783 345.593,37.561 345.593,37.287C345.593,37.012 345.37,36.79 345.096,36.79C344.821,36.79 344.6,37.012 344.6,37.287Z" style="fill:rgb(95,255,255);fill-rule:nonzero;"/>
        <path d="M376.6,52.287C376.6,52.561 376.821,52.783 377.096,52.783C377.37,52.783 377.593,52.561 377.593,52.287C377.593,52.012 377.37,51.79 377.096,51.79C376.821,51.79 376.6,52.012 376.6,52.287Z" style="fill:rgb(95,255,255);fill-rule:nonzero;"/>
        <path d="M266.267,78.974C266.267,79.248 266.488,79.47 266.764,79.47C267.037,79.47 267.26,79.248 267.26,78.974C267.26,78.699 267.037,78.477 266.764,78.477C266.488,78.477 266.267,78.699 266.267,78.974Z" style="fill:rgb(95,255,255);fill-rule:nonzero;"/>
        <path d="M259.6,53.228C259.6,53.502 259.821,53.724 260.096,53.724C260.371,53.724 260.594,53.502 260.594,53.228C260.594,52.953 260.371,52.731 260.096,52.731C259.821,52.731 259.6,52.953 259.6,53.228Z" style="fill:rgb(95,255,255);fill-rule:nonzero;"/>
        <path d="M222.43,63.79C222.43,64.064 222.652,64.286 222.926,64.286C223.201,64.286 223.423,64.064 223.423,63.79C223.423,63.515 223.201,63.293 222.926,63.293C222.652,63.293 222.43,63.515 222.43,63.79Z" style="fill:rgb(95,255,255);fill-rule:nonzero;"/>
        <path d="M254.43,78.79C254.43,79.064 254.652,79.286 254.926,79.286C255.201,79.286 255.423,79.064 255.423,78.79C255.423,78.515 255.201,78.293 254.926,78.293C254.652,78.293 254.43,78.515 254.43,78.79Z" style="fill:rgb(95,255,255);fill-rule:nonzero;"/>
        <path d="M309.771,147.974C309.771,148.248 309.992,148.47 310.268,148.47C310.541,148.47 310.764,148.248 310.764,147.974C310.764,147.699 310.541,147.477 310.268,147.477C309.992,147.477 309.771,147.699 309.771,147.974Z" style="fill:rgb(95,255,255);fill-rule:nonzero;"/>
        <path d="M303.104,122.228C303.104,122.502 303.326,122.724 303.601,122.724C303.875,122.724 304.098,122.502 304.098,122.228C304.098,121.953 303.875,121.731 303.601,121.731C303.326,121.731 303.104,121.953 303.104,122.228Z" style="fill:rgb(95,255,255);fill-rule:nonzero;"/>
        <path d="M265.934,132.79C265.934,133.064 266.156,133.286 266.43,133.286C266.705,133.286 266.927,133.064 266.927,132.79C266.927,132.515 266.705,132.293 266.43,132.293C266.156,132.293 265.934,132.515 265.934,132.79Z" style="fill:rgb(95,255,255);fill-rule:nonzero;"/>
        <path d="M297.934,147.79C297.934,148.064 298.156,148.286 298.43,148.286C298.705,148.286 298.927,148.064 298.927,147.79C298.927,147.515 298.705,147.293 298.43,147.293C298.156,147.293 297.934,147.515 297.934,147.79Z" style="fill:rgb(95,255,255);fill-rule:nonzero;"/>
        <path d="M131.771,308.644C131.771,308.919 131.992,309.14 132.268,309.14C132.541,309.14 132.764,308.919 132.764,308.644C132.764,308.37 132.541,308.147 132.268,308.147C131.992,308.147 131.771,308.37 131.771,308.644Z" style="fill:rgb(95,255,255);fill-rule:nonzero;"/>
        <path d="M125.104,282.897C125.104,283.172 125.326,283.393 125.601,283.393C125.875,283.393 126.098,283.172 126.098,282.897C126.098,282.623 125.875,282.401 125.601,282.401C125.326,282.401 125.104,282.623 125.104,282.897Z" style="fill:rgb(95,255,255);fill-rule:nonzero;"/>
        <path d="M87.933,293.46C87.933,293.733 88.156,293.956 88.429,293.956C88.705,293.956 88.926,293.733 88.926,293.46C88.926,293.184 88.705,292.963 88.429,292.963C88.156,292.963 87.933,293.184 87.933,293.46Z" style="fill:rgb(95,255,255);fill-rule:nonzero;"/>
        <path d="M119.934,308.46C119.934,308.733 120.156,308.956 120.43,308.956C120.705,308.956 120.927,308.733 120.927,308.46C120.927,308.184 120.705,307.963 120.43,307.963C120.156,307.963 119.934,308.184 119.934,308.46Z" style="fill:rgb(95,255,255);fill-rule:nonzero;"/>
        <path d="M247.273,291.64C247.273,291.915 247.495,292.136 247.771,292.136C248.044,292.136 248.267,291.915 248.267,291.64C248.267,291.366 248.044,291.143 247.771,291.143C247.495,291.143 247.273,291.366 247.273,291.64Z" style="fill:rgb(95,255,255);fill-rule:nonzero;"/>
        <path d="M240.606,265.893C240.606,266.168 240.829,266.389 241.104,266.389C241.378,266.389 241.601,266.168 241.601,265.893C241.601,265.619 241.378,265.397 241.104,265.397C240.829,265.397 240.606,265.619 240.606,265.893Z" style="fill:rgb(95,255,255);fill-rule:nonzero;"/>
        <path d="M203.437,276.456C203.437,276.729 203.659,276.952 203.933,276.952C204.208,276.952 204.43,276.729 204.43,276.456C204.43,276.18 204.208,275.959 203.933,275.959C203.659,275.959 203.437,276.18 203.437,276.456Z" style="fill:rgb(95,255,255);fill-rule:nonzero;"/>
        <path d="M235.437,291.456C235.437,291.729 235.659,291.952 235.933,291.952C236.208,291.952 236.43,291.729 236.43,291.456C236.43,291.18 236.208,290.959 235.933,290.959C235.659,290.959 235.437,291.18 235.437,291.456Z" style="fill:rgb(95,255,255);fill-rule:nonzero;"/>
        <path d="M344.273,301.64C344.273,301.915 344.495,302.136 344.771,302.136C345.044,302.136 345.267,301.915 345.267,301.64C345.267,301.366 345.044,301.143 344.771,301.143C344.495,301.143 344.273,301.366 344.273,301.64Z" style="fill:rgb(95,255,255);fill-rule:nonzero;"/>
        <path d="M337.606,275.893C337.606,276.168 337.829,276.389 338.104,276.389C338.378,276.389 338.601,276.168 338.601,275.893C338.601,275.619 338.378,275.397 338.104,275.397C337.829,275.397 337.606,275.619 337.606,275.893Z" style="fill:rgb(95,255,255);fill-rule:nonzero;"/>
        <path d="M300.437,286.456C300.437,286.729 300.659,286.952 300.933,286.952C301.208,286.952 301.43,286.729 301.43,286.456C301.43,286.18 301.208,285.959 300.933,285.959C300.659,285.959 300.437,286.18 300.437,286.456Z" style="fill:rgb(95,255,255);fill-rule:nonzero;"/>
        <path d="M319.337,308.957C319.337,309.23 319.56,309.453 319.833,309.453C320.108,309.453 320.33,309.23 320.33,308.957C320.33,308.681 320.108,308.46 319.833,308.46C319.56,308.46 319.337,308.681 319.337,308.957Z" style="fill:rgb(95,255,255);fill-rule:nonzero;"/>
        <path d="M419.271,296.144C419.271,296.419 419.492,296.64 419.768,296.64C420.041,296.64 420.264,296.419 420.264,296.144C420.264,295.87 420.041,295.647 419.768,295.647C419.492,295.647 419.271,295.87 419.271,296.144Z" style="fill:rgb(95,255,255);fill-rule:nonzero;"/>
        <path d="M412.604,270.397C412.604,270.672 412.826,270.893 413.101,270.893C413.375,270.893 413.598,270.672 413.598,270.397C413.598,270.123 413.375,269.901 413.101,269.901C412.826,269.901 412.604,270.123 412.604,270.397Z" style="fill:rgb(95,255,255);fill-rule:nonzero;"/>
        <path d="M375.434,280.96C375.434,281.233 375.656,281.456 375.93,281.456C376.205,281.456 376.427,281.233 376.427,280.96C376.427,280.684 376.205,280.463 375.93,280.463C375.656,280.463 375.434,280.684 375.434,280.96Z" style="fill:rgb(95,255,255);fill-rule:nonzero;"/>
        <path d="M407.434,295.96C407.434,296.233 407.656,296.456 407.93,296.456C408.205,296.456 408.427,296.233 408.427,295.96C408.427,295.684 408.205,295.463 407.93,295.463C407.656,295.463 407.434,295.684 407.434,295.96Z" style="fill:rgb(95,255,255);fill-rule:nonzero;"/>
        <path d="M175.271,98.145C175.271,98.419 175.492,98.641 175.768,98.641C176.041,98.641 176.264,98.419 176.264,98.145C176.264,97.87 176.041,97.648 175.768,97.648C175.492,97.648 175.271,97.87 175.271,98.145Z" style="fill:rgb(95,255,255);fill-rule:nonzero;"/>
        <path d="M168.604,72.398C168.604,72.672 168.826,72.894 169.101,72.894C169.375,72.894 169.598,72.672 169.598,72.398C169.598,72.123 169.375,71.902 169.101,71.902C168.826,71.902 168.604,72.123 168.604,72.398Z" style="fill:rgb(95,255,255);fill-rule:nonzero;"/>
        <path d="M131.434,82.96C131.434,83.234 131.656,83.456 131.93,83.456C132.205,83.456 132.427,83.234 132.427,82.96C132.427,82.685 132.205,82.463 131.93,82.463C131.656,82.463 131.434,82.685 131.434,82.96Z" style="fill:rgb(95,255,255);fill-rule:nonzero;"/>
        <path d="M163.434,97.96C163.434,98.234 163.656,98.456 163.93,98.456C164.205,98.456 164.427,98.234 164.427,97.96C164.427,97.685 164.205,97.463 163.93,97.463C163.656,97.463 163.434,97.685 163.434,97.96Z" style="fill:rgb(95,255,255);fill-rule:nonzero;"/>
        <path d="M78.27,45.145C78.27,45.419 78.492,45.641 78.767,45.641C79.041,45.641 79.263,45.419 79.263,45.145C79.263,44.87 79.041,44.648 78.767,44.648C78.492,44.648 78.27,44.87 78.27,45.145Z" style="fill:rgb(95,255,255);fill-rule:nonzero;"/>
        <path d="M71.603,19.398C71.603,19.672 71.826,19.894 72.1,19.894C72.375,19.894 72.597,19.672 72.597,19.398C72.597,19.123 72.375,18.902 72.1,18.902C71.826,18.902 71.603,19.123 71.603,19.398Z" style="fill:rgb(95,255,255);fill-rule:nonzero;"/>
        <path d="M34.433,29.96C34.433,30.234 34.656,30.456 34.929,30.456C35.205,30.456 35.426,30.234 35.426,29.96C35.426,29.685 35.205,29.463 34.929,29.463C34.656,29.463 34.433,29.685 34.433,29.96Z" style="fill:rgb(95,255,255);fill-rule:nonzero;"/>
        <path d="M66.433,44.96C66.433,45.234 66.656,45.456 66.929,45.456C67.205,45.456 67.426,45.234 67.426,44.96C67.426,44.685 67.205,44.463 66.929,44.463C66.656,44.463 66.433,44.685 66.433,44.96Z" style="fill:rgb(95,255,255);fill-rule:nonzero;"/>
        <path d="M313.003,229.291C313.003,229.565 313.225,229.787 313.5,229.787C313.773,229.787 313.996,229.565 313.996,229.291C313.996,229.016 313.773,228.794 313.5,228.794C313.225,228.794 313.003,229.016 313.003,229.291Z" style="fill:rgb(95,255,255);fill-rule:nonzero;"/>
        <path d="M283.104,208.397C283.104,208.672 283.326,208.893 283.601,208.893C283.875,208.893 284.098,208.672 284.098,208.397C284.098,208.123 283.875,207.901 283.601,207.901C283.326,207.901 283.104,208.123 283.104,208.397Z" style="fill:rgb(95,255,255);fill-rule:nonzero;"/>
        <path d="M245.934,218.96C245.934,219.233 246.156,219.456 246.43,219.456C246.705,219.456 246.927,219.233 246.927,218.96C246.927,218.684 246.705,218.463 246.43,218.463C246.156,218.463 245.934,218.684 245.934,218.96Z" style="fill:rgb(95,255,255);fill-rule:nonzero;"/>
        <path d="M429.416,47.79C429.416,48.258 429.795,48.637 430.263,48.637C430.731,48.637 431.11,48.258 431.11,47.79C431.11,47.321 430.731,46.943 430.263,46.943C429.795,46.943 429.416,47.321 429.416,47.79Z" style="fill:rgb(95,255,255);fill-rule:nonzero;"/>
        <path d="M490.595,11.73C490.595,12.197 490.974,12.576 491.441,12.576C491.909,12.576 492.288,12.197 492.288,11.73C492.288,11.261 491.909,10.882 491.441,10.882C490.974,10.882 490.595,11.261 490.595,11.73Z" style="fill:rgb(95,255,255);fill-rule:nonzero;"/>
        <path d="M398.729,173.965C398.729,174.431 399.107,174.811 399.575,174.811C400.044,174.811 400.423,174.431 400.423,173.965C400.423,173.496 400.044,173.116 399.575,173.116C399.107,173.116 398.729,173.496 398.729,173.965Z" style="fill:rgb(95,255,255);fill-rule:nonzero;"/>
        <path d="M422.817,170.404C422.817,170.871 423.196,171.25 423.664,171.25C424.132,171.25 424.511,170.871 424.511,170.404C424.511,169.935 424.132,169.556 423.664,169.556C423.196,169.556 422.817,169.935 422.817,170.404Z" style="fill:rgb(95,255,255);fill-rule:nonzero;"/>
        <path d="M285.34,60.063C285.34,60.53 285.719,60.909 286.188,60.909C286.655,60.909 287.034,60.53 287.034,60.063C287.034,59.594 286.655,59.215 286.188,59.215C285.719,59.215 285.34,59.594 285.34,60.063Z" style="fill:rgb(95,255,255);fill-rule:nonzero;"/>
        <path d="M253.488,93.903C253.488,94.37 253.867,94.749 254.335,94.749C254.804,94.749 255.183,94.37 255.183,93.903C255.183,93.434 254.804,93.055 254.335,93.055C253.867,93.055 253.488,93.434 253.488,93.903Z" style="fill:rgb(95,255,255);fill-rule:nonzero;"/>
        <path d="M223.209,80.046C223.209,80.513 223.588,80.892 224.056,80.892C224.523,80.892 224.902,80.513 224.902,80.046C224.902,79.577 224.523,79.198 224.056,79.198C223.588,79.198 223.209,79.577 223.209,80.046Z" style="fill:rgb(95,255,255);fill-rule:nonzero;"/>
        <path d="M217.05,118.537C217.05,119.005 217.429,119.384 217.896,119.384C218.365,119.384 218.744,119.005 218.744,118.537C218.744,118.068 218.365,117.689 217.896,117.689C217.429,117.689 217.05,118.068 217.05,118.537Z" style="fill:rgb(95,255,255);fill-rule:nonzero;"/>
        <path d="M296.053,98.554C296.053,99.022 296.432,99.401 296.899,99.401C297.367,99.401 297.746,99.022 297.746,98.554C297.746,98.085 297.367,97.706 296.899,97.706C296.432,97.706 296.053,98.085 296.053,98.554Z" style="fill:rgb(95,255,255);fill-rule:nonzero;"/>
        <path d="M397.222,15.868C397.222,16.336 397.601,16.715 398.068,16.715C398.536,16.715 398.915,16.336 398.915,15.868C398.915,15.4 398.536,15.021 398.068,15.021C397.601,15.021 397.222,15.4 397.222,15.868Z" style="fill:rgb(95,255,255);fill-rule:nonzero;"/>
        <path d="M365.369,72.347C365.369,72.815 365.748,73.194 366.217,73.194C366.685,73.194 367.063,72.815 367.063,72.347C367.063,71.879 366.685,71.5 366.217,71.5C365.748,71.5 365.369,71.879 365.369,72.347Z" style="fill:rgb(95,255,255);fill-rule:nonzero;"/>
        <path d="M335.09,58.49C335.09,58.958 335.469,59.337 335.937,59.337C336.404,59.337 336.783,58.958 336.783,58.49C336.783,58.022 336.404,57.643 335.937,57.643C335.469,57.643 335.09,58.022 335.09,58.49Z" style="fill:rgb(95,255,255);fill-rule:nonzero;"/>
        <path d="M354.567,40.121C354.567,40.589 354.946,40.967 355.415,40.967C355.883,40.967 356.262,40.589 356.262,40.121C356.262,39.653 355.883,39.274 355.415,39.274C354.946,39.274 354.567,39.653 354.567,40.121Z" style="fill:rgb(95,255,255);fill-rule:nonzero;"/>
        <path d="M399.9,31.454C399.9,31.922 400.279,32.3 400.748,32.3C401.216,32.3 401.595,31.922 401.595,31.454C401.595,30.986 401.216,30.607 400.748,30.607C400.279,30.607 399.9,30.986 399.9,31.454Z" style="fill:rgb(95,255,255);fill-rule:nonzero;"/>
        <path d="M404.081,47.274C404.081,47.742 404.46,48.121 404.928,48.121C405.396,48.121 405.774,47.742 405.774,47.274C405.774,46.806 405.396,46.427 404.928,46.427C404.46,46.427 404.081,46.806 404.081,47.274Z" style="fill:rgb(95,255,255);fill-rule:nonzero;"/>
        <path d="M325.414,11.941C325.414,12.408 325.793,12.787 326.262,12.787C326.729,12.787 327.108,12.408 327.108,11.941C327.108,11.472 326.729,11.093 326.262,11.093C325.793,11.093 325.414,11.472 325.414,11.941Z" style="fill:rgb(95,255,255);fill-rule:nonzero;"/>
        <path d="M100.748,17.274C100.748,17.742 101.127,18.121 101.595,18.121C102.063,18.121 102.441,17.742 102.441,17.274C102.441,16.806 102.063,16.427 101.595,16.427C101.127,16.427 100.748,16.806 100.748,17.274Z" style="fill:rgb(95,255,255);fill-rule:nonzero;"/>
        <path d="M328.931,96.982C328.931,97.45 329.31,97.829 329.778,97.829C330.246,97.829 330.625,97.45 330.625,96.982C330.625,96.513 330.246,96.134 329.778,96.134C329.31,96.134 328.931,96.513 328.931,96.982Z" style="fill:rgb(95,255,255);fill-rule:nonzero;"/>
        <path d="M407.934,76.999C407.934,77.466 408.313,77.845 408.781,77.845C409.249,77.845 409.628,77.466 409.628,76.999C409.628,76.53 409.249,76.151 408.781,76.151C408.313,76.151 407.934,76.53 407.934,76.999Z" style="fill:rgb(95,255,255);fill-rule:nonzero;"/>
        <path d="M493.706,91.882C493.706,92.35 494.085,92.729 494.554,92.729C495.021,92.729 495.4,92.35 495.4,91.882C495.4,91.414 495.021,91.035 494.554,91.035C494.085,91.035 493.706,91.414 493.706,91.882Z" style="fill:rgb(95,255,255);fill-rule:nonzero;"/>
        <path d="M461.854,125.721C461.854,126.189 462.233,126.568 462.701,126.568C463.169,126.568 463.548,126.189 463.548,125.721C463.548,125.253 463.169,124.874 462.701,124.874C462.233,124.874 461.854,125.253 461.854,125.721Z" style="fill:rgb(95,255,255);fill-rule:nonzero;"/>
        <path d="M431.574,111.864C431.574,112.333 431.953,112.712 432.422,112.712C432.89,112.712 433.269,112.333 433.269,111.864C433.269,111.396 432.89,111.017 432.422,111.017C431.953,111.017 431.574,111.396 431.574,111.864Z" style="fill:rgb(95,255,255);fill-rule:nonzero;"/>
        <path d="M425.416,150.356C425.416,150.824 425.795,151.203 426.263,151.203C426.73,151.203 427.109,150.824 427.109,150.356C427.109,149.887 426.73,149.509 426.263,149.509C425.795,149.509 425.416,149.887 425.416,150.356Z" style="fill:rgb(95,255,255);fill-rule:nonzero;"/>
        <path d="M504.419,130.373C504.419,130.841 504.798,131.219 505.266,131.219C505.733,131.219 506.112,130.841 506.112,130.373C506.112,129.904 505.733,129.525 505.266,129.525C504.798,129.525 504.419,129.904 504.419,130.373Z" style="fill:rgb(255,234,113);fill-rule:nonzero;"/>
        <path d="M448.543,181.181C448.543,181.648 448.922,182.028 449.391,182.028C449.858,182.028 450.237,181.648 450.237,181.181C450.237,180.714 449.858,180.334 449.391,180.334C448.922,180.334 448.543,180.714 448.543,181.181Z" style="fill:white;fill-rule:nonzero;"/>
        <path d="M456.082,177.636C456.082,178.103 456.461,178.483 456.93,178.483C457.397,178.483 457.776,178.103 457.776,177.636C457.776,177.169 457.397,176.789 456.93,176.789C456.461,176.789 456.082,177.169 456.082,177.636Z" style="fill:rgb(95,255,255);fill-rule:nonzero;"/>
        <path d="M465.263,183.123C465.263,183.59 465.642,183.969 466.11,183.969C466.578,183.969 466.957,183.59 466.957,183.123C466.957,182.655 466.578,182.275 466.11,182.275C465.642,182.275 465.263,182.655 465.263,183.123Z" style="fill:rgb(95,255,255);fill-rule:nonzero;"/>
        <path d="M525.263,211.79C525.263,212.257 525.642,212.636 526.11,212.636C526.578,212.636 526.957,212.257 526.957,211.79C526.957,211.322 526.578,210.942 526.11,210.942C525.642,210.942 525.263,211.322 525.263,211.79Z" style="fill:rgb(95,255,255);fill-rule:nonzero;"/>
        <path d="M531.596,243.123C531.596,243.59 531.975,243.969 532.443,243.969C532.911,243.969 533.29,243.59 533.29,243.123C533.29,242.655 532.911,242.275 532.443,242.275C531.975,242.275 531.596,242.655 531.596,243.123Z" style="fill:rgb(95,255,255);fill-rule:nonzero;"/>
        <path d="M521.596,228.123C521.596,228.59 521.974,228.969 522.443,228.969C522.911,228.969 523.289,228.59 523.289,228.123C523.289,227.655 522.911,227.275 522.443,227.275C521.974,227.275 521.596,227.655 521.596,228.123Z" style="fill:rgb(95,255,255);fill-rule:nonzero;"/>
        <path d="M548.93,223.456C548.93,223.923 549.309,224.302 549.776,224.302C550.244,224.302 550.623,223.923 550.623,223.456C550.623,222.988 550.244,222.608 549.776,222.608C549.309,222.608 548.93,222.988 548.93,223.456Z" style="fill:rgb(95,255,255);fill-rule:nonzero;"/>
        <path d="M550.082,253.943C550.082,254.41 550.461,254.79 550.93,254.79C551.397,254.79 551.776,254.41 551.776,253.943C551.776,253.475 551.397,253.095 550.93,253.095C550.461,253.095 550.082,253.475 550.082,253.943Z" style="fill:rgb(95,255,255);fill-rule:nonzero;"/>
        <path d="M553.235,265.456C553.235,265.923 553.614,266.302 554.083,266.302C554.551,266.302 554.93,265.923 554.93,265.456C554.93,264.988 554.551,264.608 554.083,264.608C553.614,264.608 553.235,264.988 553.235,265.456Z" style="fill:rgb(95,255,255);fill-rule:nonzero;"/>
        <path d="M537.749,259.457C537.749,259.923 538.128,260.302 538.596,260.302C539.063,260.302 539.442,259.923 539.442,259.457C539.442,258.988 539.063,258.608 538.596,258.608C538.128,258.608 537.749,258.988 537.749,259.457Z" style="fill:rgb(95,255,255);fill-rule:nonzero;"/>
        <path d="M554.416,281.456C554.416,281.923 554.795,282.302 555.264,282.302C555.731,282.302 556.11,281.923 556.11,281.456C556.11,280.988 555.731,280.608 555.264,280.608C554.795,280.608 554.416,280.988 554.416,281.456Z" style="fill:rgb(95,255,255);fill-rule:nonzero;"/>
        <path d="M473.263,177.123C473.263,177.59 473.642,177.969 474.11,177.969C474.578,177.969 474.957,177.59 474.957,177.123C474.957,176.655 474.578,176.275 474.11,176.275C473.642,176.275 473.263,176.655 473.263,177.123Z" style="fill:rgb(95,255,255);fill-rule:nonzero;"/>
        <path d="M485.596,180.789C485.596,181.256 485.975,181.635 486.443,181.635C486.911,181.635 487.29,181.256 487.29,180.789C487.29,180.321 486.911,179.941 486.443,179.941C485.975,179.941 485.596,180.321 485.596,180.789Z" style="fill:rgb(95,255,255);fill-rule:nonzero;"/>
        <path d="M490.749,187.79C490.749,188.257 491.128,188.636 491.596,188.636C492.063,188.636 492.442,188.257 492.442,187.79C492.442,187.322 492.063,186.942 491.596,186.942C491.128,186.942 490.749,187.322 490.749,187.79Z" style="fill:rgb(95,255,255);fill-rule:nonzero;"/>
        <path d="M492.749,201.123C492.749,201.59 493.128,201.969 493.597,201.969C494.064,201.969 494.443,201.59 494.443,201.123C494.443,200.655 494.064,200.275 493.597,200.275C493.128,200.275 492.749,200.655 492.749,201.123Z" style="fill:rgb(95,255,255);fill-rule:nonzero;"/>
        <path d="M504.235,204.79C504.235,205.257 504.614,205.636 505.083,205.636C505.551,205.636 505.93,205.257 505.93,204.79C505.93,204.322 505.551,203.942 505.083,203.942C504.614,203.942 504.235,204.322 504.235,204.79Z" style="fill:rgb(95,255,255);fill-rule:nonzero;"/>
        <path d="M483.596,218.789C483.596,219.256 483.975,219.635 484.443,219.635C484.911,219.635 485.29,219.256 485.29,218.789C485.29,218.321 484.911,217.941 484.443,217.941C483.975,217.941 483.596,218.321 483.596,218.789Z" style="fill:rgb(95,255,255);fill-rule:nonzero;"/>
        <path d="M539.863,330.283C539.863,330.751 540.242,331.131 540.71,331.131C541.179,331.131 541.558,330.751 541.558,330.283C541.558,329.815 541.179,329.435 540.71,329.435C540.242,329.435 539.863,329.815 539.863,330.283Z" style="fill:rgb(95,255,255);fill-rule:nonzero;"/>
        <path d="M5.604,319.025C5.604,319.492 5.983,319.872 6.451,319.872C6.919,319.872 7.298,319.492 7.298,319.025C7.298,318.556 6.919,318.176 6.451,318.176C5.983,318.176 5.604,318.556 5.604,319.025Z" style="fill:rgb(95,255,255);fill-rule:nonzero;"/>
        <path d="M305.355,214.541C305.355,215.009 305.734,215.387 306.202,215.387C306.671,215.387 307.05,215.009 307.05,214.541C307.05,214.072 306.671,213.693 306.202,213.693C305.734,213.693 305.355,214.072 305.355,214.541Z" style="fill:rgb(95,255,255);fill-rule:nonzero;"/>
        <path d="M279.806,258.29C279.806,258.758 280.185,259.136 280.652,259.136C281.121,259.136 281.5,258.758 281.5,258.29C281.5,257.823 281.121,257.442 280.652,257.442C280.185,257.442 279.806,257.823 279.806,258.29Z" style="fill:white;fill-rule:nonzero;"/>
        <path d="M237.065,303.596C237.065,304.063 237.444,304.443 237.912,304.443C238.381,304.443 238.76,304.063 238.76,303.596C238.76,303.128 238.381,302.748 237.912,302.748C237.444,302.748 237.065,303.128 237.065,303.596Z" style="fill:rgb(98,205,246);fill-rule:nonzero;"/>
        <path d="M316.068,253.032C316.068,253.499 316.447,253.879 316.915,253.879C317.383,253.879 317.762,253.499 317.762,253.032C317.762,252.563 317.383,252.183 316.915,252.183C316.447,252.183 316.068,252.563 316.068,253.032Z" style="fill:rgb(95,255,255);fill-rule:nonzero;"/>
        <path d="M385.417,245.334C385.417,245.801 385.796,246.18 386.265,246.18C386.732,246.18 387.111,245.801 387.111,245.334C387.111,244.865 386.732,244.486 386.265,244.486C385.796,244.486 385.417,244.865 385.417,245.334Z" style="fill:rgb(95,255,255);fill-rule:nonzero;"/>
        <path d="M353.565,309.755C353.565,310.221 353.944,310.601 354.412,310.601C354.881,310.601 355.26,310.221 355.26,309.755C355.26,309.287 354.881,308.907 354.412,308.907C353.944,308.907 353.565,309.287 353.565,309.755Z" style="fill:rgb(95,255,255);fill-rule:nonzero;"/>
        <path d="M323.285,265.317C323.285,265.784 323.664,266.164 324.133,266.164C324.601,266.164 324.979,265.784 324.979,265.317C324.979,264.848 324.601,264.468 324.133,264.468C323.664,264.468 323.285,264.848 323.285,265.317Z" style="fill:rgb(95,255,255);fill-rule:nonzero;"/>
        <path d="M401.233,284.787C401.233,285.254 401.612,285.634 402.081,285.634C402.549,285.634 402.928,285.254 402.928,284.787C402.928,284.318 402.549,283.938 402.081,283.938C401.612,283.938 401.233,284.318 401.233,284.787Z" style="fill:rgb(95,255,255);fill-rule:nonzero;"/>
        <path d="M317.127,334.389C317.127,334.856 317.506,335.236 317.974,335.236C318.442,335.236 318.821,334.856 318.821,334.389C318.821,333.921 318.442,333.541 317.974,333.541C317.506,333.541 317.127,333.921 317.127,334.389Z" style="fill:rgb(95,255,255);fill-rule:nonzero;"/>
        <path d="M396.13,314.406C396.13,314.873 396.509,315.253 396.977,315.253C397.445,315.253 397.824,314.873 397.824,314.406C397.824,313.937 397.445,313.557 396.977,313.557C396.509,313.557 396.13,313.937 396.13,314.406Z" style="fill:rgb(95,255,255);fill-rule:nonzero;"/>
        <path d="M434.687,252.006C434.687,252.473 435.065,252.852 435.533,252.852C436.001,252.852 436.38,252.473 436.38,252.006C436.38,251.537 436.001,251.158 435.533,251.158C435.065,251.158 434.687,251.537 434.687,252.006Z" style="fill:rgb(95,255,255);fill-rule:nonzero;"/>
        <path d="M464.42,316.426C464.42,316.893 464.799,317.273 465.268,317.273C465.735,317.273 466.114,316.893 466.114,316.426C466.114,315.959 465.735,315.579 465.268,315.579C464.799,315.579 464.42,315.959 464.42,316.426Z" style="fill:rgb(95,255,255);fill-rule:nonzero;"/>
        <path d="M434.141,302.57C434.141,303.037 434.52,303.417 434.987,303.417C435.456,303.417 435.835,303.037 435.835,302.57C435.835,302.101 435.456,301.721 434.987,301.721C434.52,301.721 434.141,302.101 434.141,302.57Z" style="fill:rgb(95,255,255);fill-rule:nonzero;"/>
        <path d="M427.414,333.273C427.414,333.74 427.793,334.12 428.262,334.12C428.729,334.12 429.108,333.74 429.108,333.273C429.108,332.804 428.729,332.425 428.262,332.425C427.793,332.425 427.414,332.804 427.414,333.273Z" style="fill:rgb(95,255,255);fill-rule:nonzero;"/>
        <path d="M506.984,321.078C506.984,321.545 507.363,321.925 507.832,321.925C508.3,321.925 508.679,321.545 508.679,321.078C508.679,320.609 508.3,320.229 507.832,320.229C507.363,320.229 506.984,320.609 506.984,321.078Z" style="fill:rgb(95,255,255);fill-rule:nonzero;"/>
        <path d="M170.901,215.79C170.901,216.259 171.281,216.637 171.749,216.637C172.217,216.637 172.597,216.259 172.597,215.79C172.597,215.322 172.217,214.943 171.749,214.943C171.281,214.943 170.901,215.322 170.901,215.79Z" style="fill:rgb(95,255,255);fill-rule:nonzero;"/>
        <path d="M129.802,250.947C129.802,251.414 130.182,251.794 130.649,251.794C131.118,251.794 131.497,251.414 131.497,250.947C131.497,250.478 131.118,250.098 130.649,250.098C130.182,250.098 129.802,250.478 129.802,250.947Z" style="fill:rgb(95,255,255);fill-rule:nonzero;"/>
        <path d="M99.523,237.09C99.523,237.557 99.902,237.937 100.37,237.937C100.838,237.937 101.217,237.557 101.217,237.09C101.217,236.622 100.838,236.242 100.37,236.242C99.902,236.242 99.523,236.622 99.523,237.09Z" style="fill:rgb(95,255,255);fill-rule:nonzero;"/>
        <path d="M93.364,306.162C93.364,306.63 93.743,307.009 94.211,307.009C94.679,307.009 95.058,306.63 95.058,306.162C95.058,305.694 94.679,305.314 94.211,305.314C93.743,305.314 93.364,305.694 93.364,306.162Z" style="fill:white;fill-rule:nonzero;"/>
        <path d="M151.083,255.79C151.083,256.258 151.463,256.637 151.931,256.637C152.397,256.637 152.777,256.258 152.777,255.79C152.777,255.322 152.397,254.942 151.931,254.942C151.463,254.942 151.083,255.322 151.083,255.79Z" style="fill:rgb(95,255,255);fill-rule:nonzero;"/>
        <path d="M54.392,133.966C54.392,134.433 54.772,134.812 55.24,134.812C55.707,134.812 56.086,134.433 56.086,133.966C56.086,133.497 55.707,133.118 55.24,133.118C54.772,133.118 54.392,133.497 54.392,133.966Z" style="fill:rgb(95,255,255);fill-rule:nonzero;"/>
        <path d="M547.529,185.287C547.529,185.755 547.908,186.134 548.376,186.134C548.844,186.134 549.223,185.755 549.223,185.287C549.223,184.819 548.844,184.439 548.376,184.439C547.908,184.439 547.529,184.819 547.529,185.287Z" style="fill:rgb(95,255,255);fill-rule:nonzero;"/>
        <path d="M535.725,54.93C535.725,55.398 536.104,55.777 536.572,55.777C537.04,55.777 537.419,55.398 537.419,54.93C537.419,54.462 537.04,54.083 536.572,54.083C536.104,54.083 535.725,54.462 535.725,54.93Z" style="fill:rgb(95,255,255);fill-rule:nonzero;"/>
        <path d="M12.756,50.824C12.756,51.292 13.136,51.671 13.604,51.671C14.071,51.671 14.451,51.292 14.451,50.824C14.451,50.356 14.071,49.977 13.604,49.977C13.136,49.977 12.756,50.356 12.756,50.824Z" style="fill:rgb(95,255,255);fill-rule:nonzero;"/>
        <path d="M178.077,54.417C178.077,54.885 178.457,55.264 178.925,55.264C179.393,55.264 179.772,54.885 179.772,54.417C179.772,53.949 179.393,53.57 178.925,53.57C178.457,53.57 178.077,53.949 178.077,54.417Z" style="fill:rgb(95,255,255);fill-rule:nonzero;"/>
        <path d="M146.226,88.257C146.226,88.725 146.604,89.104 147.073,89.104C147.541,89.104 147.92,88.725 147.92,88.257C147.92,87.789 147.541,87.41 147.073,87.41C146.604,87.41 146.226,87.789 146.226,88.257Z" style="fill:white;fill-rule:nonzero;"/>
        <path d="M552.082,104.803C552.082,105.271 552.461,105.65 552.93,105.65C553.397,105.65 553.776,105.271 553.776,104.803C553.776,104.335 553.397,103.956 552.93,103.956C552.461,103.956 552.082,104.335 552.082,104.803Z" style="fill:rgb(95,255,255);fill-rule:nonzero;"/>
        <path d="M480.43,200.956C480.43,201.423 480.809,201.801 481.277,201.801C481.745,201.801 482.124,201.423 482.124,200.956C482.124,200.487 481.745,200.108 481.277,200.108C480.809,200.108 480.43,200.487 480.43,200.956Z" style="fill:rgb(95,255,255);fill-rule:nonzero;"/>
        <path d="M442.749,166.124C442.749,166.591 443.128,166.969 443.597,166.969C444.064,166.969 444.443,166.591 444.443,166.124C444.443,165.655 444.064,165.276 443.597,165.276C443.128,165.276 442.749,165.655 442.749,166.124Z" style="fill:rgb(95,255,255);fill-rule:nonzero;"/>
        <path d="M504.235,220.79C504.235,221.257 504.614,221.635 505.083,221.635C505.551,221.635 505.93,221.257 505.93,220.79C505.93,220.321 505.551,219.942 505.083,219.942C504.614,219.942 504.235,220.321 504.235,220.79Z" style="fill:rgb(95,255,255);fill-rule:nonzero;"/>
        <path d="M550.082,14.471C550.082,14.938 550.461,15.317 550.93,15.317C551.397,15.317 551.776,14.938 551.776,14.471C551.776,14.002 551.397,13.623 550.93,13.623C550.461,13.623 550.082,14.002 550.082,14.471Z" style="fill:rgb(95,255,255);fill-rule:nonzero;"/>
        <path d="M144.082,65.111C144.082,65.577 144.461,65.956 144.93,65.956C145.397,65.956 145.776,65.577 145.776,65.111C145.776,64.642 145.397,64.263 144.93,64.263C144.461,64.263 144.082,64.642 144.082,65.111Z" style="fill:rgb(95,255,255);fill-rule:nonzero;"/>
        <path d="M79.582,13.971C79.582,14.438 79.96,14.817 80.429,14.817C80.897,14.817 81.276,14.438 81.276,13.971C81.276,13.502 80.897,13.123 80.429,13.123C79.96,13.123 79.582,13.502 79.582,13.971Z" style="fill:rgb(95,255,255);fill-rule:nonzero;"/>
        <path d="M115.946,74.401C115.946,74.868 116.325,75.247 116.793,75.247C117.262,75.247 117.641,74.868 117.641,74.401C117.641,73.932 117.262,73.553 116.793,73.553C116.325,73.553 115.946,73.932 115.946,74.401Z" style="fill:rgb(95,255,255);fill-rule:nonzero;"/>
        <path d="M124.749,98.457C124.749,98.924 125.128,99.303 125.597,99.303C126.064,99.303 126.443,98.924 126.443,98.457C126.443,97.988 126.064,97.609 125.597,97.609C125.128,97.609 124.749,97.988 124.749,98.457Z" style="fill:rgb(95,255,255);fill-rule:nonzero;"/>
        <path d="M188.79,92.908C188.79,93.376 189.17,93.755 189.638,93.755C190.105,93.755 190.485,93.376 190.485,92.908C190.485,92.44 190.105,92.061 189.638,92.061C189.17,92.061 188.79,92.44 188.79,92.908Z" style="fill:rgb(95,255,255);fill-rule:nonzero;"/>
        <path d="M391.544,208.863C391.544,209.33 391.923,209.71 392.391,209.71C392.858,209.71 393.237,209.33 393.237,208.863C393.237,208.395 392.858,208.015 392.391,208.015C391.923,208.015 391.544,208.395 391.544,208.863Z" style="fill:rgb(95,255,255);fill-rule:nonzero;"/>
        <path d="M415.119,143.203C415.119,143.671 415.498,144.05 415.967,144.05C416.435,144.05 416.813,143.671 416.813,143.203C416.813,142.735 416.435,142.356 415.967,142.356C415.498,142.356 415.119,142.735 415.119,143.203Z" style="fill:rgb(95,255,255);fill-rule:nonzero;"/>
        <path d="M481.837,108.24C481.837,108.707 482.216,109.086 482.685,109.086C483.152,109.086 483.531,108.707 483.531,108.24C483.531,107.771 483.152,107.392 482.685,107.392C482.216,107.392 481.837,107.771 481.837,108.24Z" style="fill:rgb(95,255,255);fill-rule:nonzero;"/>
        <path d="M78.568,270.12C78.568,270.587 78.947,270.967 79.415,270.967C79.882,270.967 80.261,270.587 80.261,270.12C80.261,269.651 79.882,269.271 79.415,269.271C78.947,269.271 78.568,269.651 78.568,270.12Z" style="fill:rgb(95,255,255);fill-rule:nonzero;"/>
        <path d="M52.568,291.453C52.568,291.92 52.947,292.3 53.415,292.3C53.882,292.3 54.261,291.92 54.261,291.453C54.261,290.984 53.882,290.604 53.415,290.604C52.947,290.604 52.568,290.984 52.568,291.453Z" style="fill:rgb(95,255,255);fill-rule:nonzero;"/>
        <path d="M231.934,322.104C231.934,322.571 232.313,322.951 232.78,322.951C233.248,322.951 233.627,322.571 233.627,322.104C233.627,321.635 233.248,321.256 232.78,321.256C232.313,321.256 231.934,321.635 231.934,322.104Z" style="fill:rgb(95,255,255);fill-rule:nonzero;"/>
        <path d="M239.086,219.128C239.086,219.593 239.465,219.974 239.934,219.974C240.401,219.974 240.78,219.593 240.78,219.128C240.78,218.659 240.401,218.278 239.934,218.278C239.465,218.278 239.086,218.659 239.086,219.128Z" style="fill:rgb(255,234,113);fill-rule:nonzero;"/>
        <path d="M310.423,193.979C310.423,194.446 310.802,194.827 311.27,194.827C311.737,194.827 312.116,194.446 312.116,193.979C312.116,193.511 311.737,193.131 311.27,193.131C310.802,193.131 310.423,193.511 310.423,193.979Z" style="fill:rgb(95,255,255);fill-rule:nonzero;"/>
        <path d="M69.789,302.601C69.789,303.069 70.168,303.449 70.635,303.449C71.103,303.449 71.482,303.069 71.482,302.601C71.482,302.134 71.103,301.754 70.635,301.754C70.168,301.754 69.789,302.134 69.789,302.601Z" style="fill:rgb(95,255,255);fill-rule:nonzero;"/>
        <path d="M74.407,334.422C74.407,334.888 74.786,335.268 75.254,335.268C75.722,335.268 76.101,334.888 76.101,334.422C76.101,333.953 75.722,333.573 75.254,333.573C74.786,333.573 74.407,333.953 74.407,334.422Z" style="fill:rgb(95,255,255);fill-rule:nonzero;"/>
        <path d="M64.624,234.077C64.624,234.543 65.002,234.924 65.471,234.924C65.939,234.924 66.318,234.543 66.318,234.077C66.318,233.609 65.939,233.227 65.471,233.227C65.002,233.227 64.624,233.609 64.624,234.077Z" style="fill:rgb(95,255,255);fill-rule:nonzero;"/>
        <path d="M163.915,175.637C163.915,176.104 164.294,176.485 164.763,176.485C165.23,176.485 165.609,176.104 165.609,175.637C165.609,175.17 165.23,174.789 164.763,174.789C164.294,174.789 163.915,175.17 163.915,175.637Z" style="fill:rgb(95,255,255);fill-rule:nonzero;"/>
        <path d="M58.979,101.152C58.979,101.619 59.358,101.998 59.826,101.998C60.293,101.998 60.672,101.619 60.672,101.152C60.672,100.683 60.293,100.304 59.826,100.304C59.358,100.304 58.979,100.683 58.979,101.152Z" style="fill:rgb(95,255,255);fill-rule:nonzero;"/>
        <path d="M143.179,133.452C143.179,133.92 143.558,134.299 144.025,134.299C144.494,134.299 144.873,133.92 144.873,133.452C144.873,132.984 144.494,132.605 144.025,132.605C143.558,132.605 143.179,132.984 143.179,133.452Z" style="fill:rgb(95,255,255);fill-rule:nonzero;"/>
        <path d="M70.751,60.576C70.751,61.042 71.129,61.422 71.597,61.422C72.066,61.422 72.445,61.042 72.445,60.576C72.445,60.107 72.066,59.727 71.597,59.727C71.129,59.727 70.751,60.107 70.751,60.576Z" style="fill:rgb(95,255,255);fill-rule:nonzero;"/>
        <path d="M13.929,146.956C13.929,147.422 14.308,147.802 14.776,147.802C15.245,147.802 15.624,147.422 15.624,146.956C15.624,146.487 15.245,146.107 14.776,146.107C14.308,146.107 13.929,146.487 13.929,146.956Z" style="fill:rgb(95,255,255);fill-rule:nonzero;"/>
        <path d="M80.833,166.207C80.833,166.674 81.211,167.053 81.679,167.053C82.148,167.053 82.527,166.674 82.527,166.207C82.527,165.738 82.148,165.359 81.679,165.359C81.211,165.359 80.833,165.738 80.833,166.207Z" style="fill:rgb(95,255,255);fill-rule:nonzero;"/>
        <path d="M124.583,199.61C124.583,200.076 124.962,200.456 125.43,200.456C125.898,200.456 126.277,200.076 126.277,199.61C126.277,199.141 125.898,198.76 125.43,198.76C124.962,198.76 124.583,199.141 124.583,199.61Z" style="fill:rgb(95,255,255);fill-rule:nonzero;"/>
        <path d="M124.235,161.206C124.235,161.672 124.614,162.051 125.082,162.051C125.551,162.051 125.93,161.672 125.93,161.206C125.93,160.737 125.551,160.356 125.082,160.356C124.614,160.356 124.235,160.737 124.235,161.206Z" style="fill:rgb(95,255,255);fill-rule:nonzero;"/>
        <path d="M259.734,119.956C259.734,120.422 260.114,120.801 260.582,120.801C261.051,120.801 261.43,120.422 261.43,119.956C261.43,119.487 261.051,119.106 260.582,119.106C260.114,119.106 259.734,119.487 259.734,119.956Z" style="fill:rgb(95,255,255);fill-rule:nonzero;"/>
        <path d="M203.735,154.956C203.735,155.422 204.114,155.801 204.582,155.801C205.051,155.801 205.43,155.422 205.43,154.956C205.43,154.487 205.051,154.106 204.582,154.106C204.114,154.106 203.735,154.487 203.735,154.956Z" style="fill:rgb(95,255,255);fill-rule:nonzero;"/>
        <path d="M439.083,214.61C439.083,215.076 439.462,215.456 439.93,215.456C440.398,215.456 440.777,215.076 440.777,214.61C440.777,214.141 440.398,213.76 439.93,213.76C439.462,213.76 439.083,214.141 439.083,214.61Z" style="fill:rgb(95,255,255);fill-rule:nonzero;"/>
        <path d="M512.735,267.956C512.735,268.422 513.114,268.801 513.581,268.801C514.051,268.801 514.43,268.422 514.43,267.956C514.43,267.487 514.051,267.106 513.581,267.106C513.114,267.106 512.735,267.487 512.735,267.956Z" style="fill:rgb(95,255,255);fill-rule:nonzero;"/>
        <path d="M359.583,244.11C359.583,244.576 359.962,244.956 360.43,244.956C360.898,244.956 361.277,244.576 361.277,244.11C361.277,243.641 360.898,243.26 360.43,243.26C359.962,243.26 359.583,243.641 359.583,244.11Z" style="fill:rgb(95,255,255);fill-rule:nonzero;"/>
        <path d="M390.748,296.969C390.748,297.435 391.127,297.815 391.595,297.815C392.063,297.815 392.442,297.435 392.442,296.969C392.442,296.501 392.063,296.12 391.595,296.12C391.127,296.12 390.748,296.501 390.748,296.969Z" style="fill:rgb(255,234,113);fill-rule:nonzero;"/>
        <path d="M95.594,276.12C95.594,276.586 95.973,276.966 96.441,276.966C96.91,276.966 97.289,276.586 97.289,276.12C97.289,275.651 96.91,275.27 96.441,275.27C95.973,275.27 95.594,275.651 95.594,276.12Z" style="fill:rgb(95,255,255);fill-rule:nonzero;"/>
        <path d="M11.583,183.11C11.583,183.576 11.961,183.956 12.429,183.956C12.898,183.956 13.277,183.576 13.277,183.11C13.277,182.641 12.898,182.26 12.429,182.26C11.961,182.26 11.583,182.641 11.583,183.11Z" style="fill:rgb(95,255,255);fill-rule:nonzero;"/>
        <path d="M142.088,12.788C142.088,13.255 142.467,13.635 142.936,13.635C143.403,13.635 143.782,13.255 143.782,12.788C143.782,12.32 143.403,11.94 142.936,11.94C142.467,11.94 142.088,12.32 142.088,12.788Z" style="fill:rgb(95,255,255);fill-rule:nonzero;"/>
        <path d="M463.009,143.717C463.009,144.397 463.561,144.949 464.241,144.949C464.922,144.949 465.474,144.397 465.474,143.717C465.474,143.036 464.922,142.484 464.241,142.484C463.561,142.484 463.009,143.036 463.009,143.717Z" style="fill:rgb(95,255,255);fill-rule:nonzero;"/>
        <path d="M405.015,180.154C405.015,180.835 405.566,181.386 406.247,181.386C406.928,181.386 407.479,180.835 407.479,180.154C407.479,179.473 406.928,178.921 406.247,178.921C405.566,178.921 405.015,179.473 405.015,180.154Z" style="fill:rgb(95,255,255);fill-rule:nonzero;"/>
        <path d="M116.587,242.766C116.587,243.447 117.139,244 117.819,244C118.5,244 119.053,243.447 119.053,242.766C119.053,242.086 118.5,241.534 117.819,241.534C117.139,241.534 116.587,242.086 116.587,242.766Z" style="fill:rgb(95,255,255);fill-rule:nonzero;"/>
        <path d="M27.799,329.801C27.799,330.482 28.352,331.034 29.033,331.034C29.713,331.034 30.265,330.482 30.265,329.801C30.265,329.121 29.713,328.568 29.033,328.568C28.352,328.568 27.799,329.121 27.799,329.801Z" style="fill:rgb(98,205,246);fill-rule:nonzero;"/>
        <path d="M408.607,313.891C408.607,314.572 409.159,315.125 409.84,315.125C410.521,315.125 411.072,314.572 411.072,313.891C411.072,313.211 410.521,312.659 409.84,312.659C409.159,312.659 408.607,313.211 408.607,313.891Z" style="fill:white;fill-rule:nonzero;"/>
        <path d="M339.731,217.62C339.731,218.83 340.712,219.811 341.923,219.811C343.133,219.811 344.113,218.83 344.113,217.62C344.113,216.41 343.133,215.428 341.923,215.428C340.712,215.428 339.731,216.41 339.731,217.62Z" style="fill:rgb(95,255,255);fill-rule:nonzero;"/>
        <g>
            <path d="M181.304,72.79C181.304,73.319 181.733,73.749 182.263,73.749C182.792,73.749 183.222,73.319 183.222,72.79C183.222,72.26 182.792,71.831 182.263,71.831C181.733,71.831 181.304,72.26 181.304,72.79Z" style="fill:rgb(223,109,93);fill-rule:nonzero;"/>
            <path d="M439.971,117.164C439.971,117.693 440.4,118.123 440.93,118.123C441.459,118.123 441.889,117.693 441.889,117.164C441.889,116.634 441.459,116.205 440.93,116.205C440.4,116.205 439.971,116.634 439.971,117.164Z" style="fill:rgb(223,109,93);fill-rule:nonzero;"/>
            <path d="M243.971,165.497C243.971,166.027 244.4,166.456 244.93,166.456C245.459,166.456 245.889,166.027 245.889,165.497C245.889,164.968 245.459,164.538 244.93,164.538C244.4,164.538 243.971,164.968 243.971,165.497Z" style="fill:rgb(223,109,93);fill-rule:nonzero;"/>
            <path d="M228.218,173.123C228.218,174.529 229.358,175.67 230.765,175.67C232.17,175.67 233.312,174.529 233.312,173.123C233.312,171.717 232.17,170.576 230.765,170.576C229.358,170.576 228.218,171.717 228.218,173.123Z" style="fill:rgb(223,109,93);fill-rule:nonzero;"/>
            <path d="M188.263,290.456C188.263,290.985 188.692,291.415 189.222,291.415C189.751,291.415 190.181,290.985 190.181,290.456C190.181,289.926 189.751,289.497 189.222,289.497C188.692,289.497 188.263,289.926 188.263,290.456Z" style="fill:rgb(223,109,93);fill-rule:nonzero;"/>
            <path d="M367.93,299.123C367.93,299.652 368.359,300.082 368.889,300.082C369.418,300.082 369.848,299.652 369.848,299.123C369.848,298.593 369.418,298.164 368.889,298.164C368.359,298.164 367.93,298.593 367.93,299.123Z" style="fill:rgb(223,109,93);fill-rule:nonzero;"/>
            <path d="M52.303,94.123C52.303,94.652 52.733,95.082 53.262,95.082C53.792,95.082 54.221,94.652 54.221,94.123C54.221,93.593 53.792,93.164 53.262,93.164C52.733,93.164 52.303,93.593 52.303,94.123Z" style="fill:rgb(223,109,93);fill-rule:nonzero;"/>
        </g>
        <g>
            <path d="M440.238,314.037C440.238,315.247 441.219,316.228 442.43,316.228C443.64,316.228 444.62,315.247 444.62,314.037C444.62,312.827 443.64,311.845 442.43,311.845C441.219,311.845 440.238,312.827 440.238,314.037Z" style="fill:rgb(95,255,255);fill-rule:nonzero;"/>
            <path d="M357.403,289.644C357.403,290.854 358.384,291.836 359.595,291.836C360.805,291.836 361.785,290.854 361.785,289.644C361.785,288.434 360.805,287.453 359.595,287.453C358.384,287.453 357.403,288.434 357.403,289.644Z" style="fill:rgb(95,255,255);fill-rule:nonzero;"/>
            <path d="M49.738,64.456C49.738,65.666 50.718,66.648 51.929,66.648C53.139,66.648 54.121,65.666 54.121,64.456C54.121,63.246 53.139,62.265 51.929,62.265C50.718,62.265 49.738,63.246 49.738,64.456Z" style="fill:rgb(95,255,255);fill-rule:nonzero;"/>
            <path d="M546.738,233.764C546.738,234.974 547.719,235.956 548.93,235.956C550.14,235.956 551.121,234.974 551.121,233.764C551.121,232.554 550.14,231.573 548.93,231.573C547.719,231.573 546.738,232.554 546.738,233.764Z" style="fill:rgb(95,255,255);fill-rule:nonzero;"/>
            <path d="M31.738,182.456C31.738,183.666 32.718,184.647 33.929,184.647C35.139,184.647 36.121,183.666 36.121,182.456C36.121,181.246 35.139,180.264 33.929,180.264C32.718,180.264 31.738,181.246 31.738,182.456Z" style="fill:rgb(95,255,255);fill-rule:nonzero;"/>
            <path d="M107.93,332.369C107.93,333.578 108.91,334.559 110.121,334.559C111.332,334.559 112.313,333.578 112.313,332.369C112.313,331.159 111.332,330.177 110.121,330.177C108.91,330.177 107.93,331.159 107.93,332.369Z" style="fill:rgb(95,255,255);fill-rule:nonzero;"/>
            <path d="M256.523,299.221C256.523,301.202 258.127,302.806 260.109,302.806C262.09,302.806 263.693,301.202 263.693,299.221C263.693,297.242 262.09,295.637 260.109,295.637C258.127,295.637 256.523,297.242 256.523,299.221Z" style="fill:rgb(95,255,255);fill-rule:nonzero;"/>
        </g>
        <g>
            <path d="M158.852,51.073C159.844,50.959 160.742,50.164 160.828,49.098C160.896,48.271 161.448,44.623 161.448,44.623C161.448,44.623 161.922,48.281 162.069,49.098C162.289,50.311 163.011,50.929 164.045,51.072C164.868,51.185 168.52,51.695 168.52,51.695C168.52,51.694 164.868,52.209 164.045,52.318C162.731,52.491 162.199,53.331 162.072,54.291C161.961,55.114 161.448,58.766 161.448,58.766C161.448,58.766 160.909,55.117 160.824,54.291C160.712,53.184 159.902,52.432 158.852,52.316C158.026,52.224 154.377,51.694 154.377,51.695C154.377,51.695 158.027,51.169 158.852,51.073Z" style="fill:white;fill-rule:nonzero;"/>
            <path d="M421.949,230.908C423.504,230.727 424.914,229.48 425.05,227.808C425.154,226.51 426.022,220.789 426.022,220.789C426.022,220.789 426.766,226.526 426.997,227.808C427.341,229.712 428.474,230.681 430.096,230.906C431.386,231.083 437.115,231.884 437.115,231.883C437.115,231.881 431.388,232.688 430.096,232.858C428.034,233.132 427.202,234.448 427,235.956C426.826,237.246 426.022,242.975 426.022,242.975C426.022,242.975 425.177,237.252 425.045,235.956C424.867,234.218 423.597,233.04 421.949,232.855C420.654,232.713 414.929,231.881 414.929,231.883C414.929,231.884 420.655,231.057 421.949,230.908Z" style="fill:white;fill-rule:nonzero;"/>
            <path d="M68.228,275.782C69.329,275.655 70.327,274.772 70.421,273.589C70.496,272.671 71.11,268.623 71.11,268.623C71.11,268.623 71.636,272.682 71.8,273.589C72.043,274.936 72.844,275.622 73.992,275.781C74.905,275.905 78.96,276.472 78.96,276.472C78.96,276.47 74.906,277.042 73.992,277.162C72.533,277.355 71.944,278.288 71.801,279.354C71.679,280.267 71.11,284.32 71.11,284.32C71.11,284.32 70.511,280.271 70.418,279.354C70.293,278.125 69.394,277.291 68.228,277.159C67.312,277.059 63.26,276.47 63.26,276.472C63.26,276.472 67.312,275.888 68.228,275.782Z" style="fill:white;fill-rule:nonzero;"/>
            <path d="M324.93,36.194C325.538,36.124 326.091,35.635 326.143,34.98C326.185,34.472 326.524,32.232 326.524,32.232C326.524,32.232 326.815,34.479 326.906,34.98C327.04,35.726 327.483,36.105 328.119,36.194C328.624,36.262 330.867,36.576 330.867,36.576C330.867,36.575 328.625,36.891 328.119,36.957C327.312,37.064 326.985,37.58 326.906,38.171C326.839,38.675 326.524,40.919 326.524,40.919C326.524,40.919 326.193,38.678 326.142,38.171C326.072,37.49 325.574,37.028 324.93,36.956C324.423,36.901 322.181,36.575 322.181,36.576C322.181,36.576 324.423,36.253 324.93,36.194Z" style="fill:white;fill-rule:nonzero;"/>
        </g>
        <g>
            <path d="M76.428,134.956C76.428,137.441 78.443,139.456 80.928,139.456C83.414,139.456 85.428,137.441 85.428,134.956C85.428,132.47 83.414,130.456 80.928,130.456C78.443,130.456 76.428,132.47 76.428,134.956Z" style="fill:rgb(28,65,105);fill-rule:nonzero;"/>
            <path d="M460.432,161.454C460.432,163.94 462.446,165.954 464.932,165.954C467.417,165.954 469.432,163.94 469.432,161.454C469.432,158.969 467.417,156.954 464.932,156.954C462.446,156.954 460.432,158.969 460.432,161.454Z" style="fill:rgb(28,65,105);fill-rule:nonzero;"/>
            <path d="M152.461,178.956C152.461,180.043 153.343,180.925 154.43,180.925C155.517,180.925 156.398,180.043 156.398,178.956C156.398,177.869 155.517,176.987 154.43,176.987C153.343,176.987 152.461,177.869 152.461,178.956Z" style="fill:rgb(28,65,105);fill-rule:nonzero;"/>
            <path d="M458.961,65.206C458.961,66.155 459.73,66.925 460.68,66.925C461.629,66.925 462.398,66.155 462.398,65.206C462.398,64.257 461.629,63.487 460.68,63.487C459.73,63.487 458.961,64.257 458.961,65.206Z" style="fill:rgb(28,65,105);fill-rule:nonzero;"/>
            <path d="M288.161,264.788C288.161,266.686 289.7,268.225 291.599,268.225C293.497,268.225 295.036,266.686 295.036,264.788C295.036,262.889 293.497,261.35 291.599,261.35C289.7,261.35 288.161,262.889 288.161,264.788Z" style="fill:rgb(28,65,105);fill-rule:nonzero;"/>
            <path d="M452.2,270.788C452.2,273.769 454.617,276.186 457.599,276.186C460.579,276.186 462.996,273.769 462.996,270.788C462.996,267.806 460.579,265.389 457.599,265.389C454.617,265.389 452.2,267.806 452.2,270.788Z" style="fill:rgb(28,65,105);fill-rule:nonzero;"/>
            <path d="M434.252,73.874C438.44,83.09 449.308,87.167 458.526,82.978C467.744,78.789 471.82,67.921 467.632,58.704C463.442,49.486 452.574,45.41 443.356,49.599C434.139,53.788 430.063,64.656 434.252,73.874Z" style="fill:rgb(39,63,95);fill-rule:nonzero;"/>
        </g>
        <g>
            <path d="M435.986,73.086C439.739,81.344 449.479,84.997 457.738,81.243C465.997,77.489 469.65,67.751 465.896,59.493C462.144,51.233 452.404,47.58 444.146,51.334C435.886,55.088 432.232,64.826 435.986,73.086Z" style="fill:rgb(163,186,204);fill-rule:nonzero;"/>
            <path d="M439.119,55.714C439.028,55.515 438.96,55.313 438.901,55.11C440.339,53.56 442.101,52.263 444.146,51.334C444.771,51.049 445.405,50.813 446.044,50.612C446.49,51.008 446.863,51.498 447.126,52.075C448.13,54.285 447.151,56.892 444.94,57.897C442.73,58.902 440.123,57.924 439.119,55.714Z" style="fill:rgb(97,121,138);fill-rule:nonzero;"/>
            <path d="M458.744,70.625C459.642,70.217 460.698,70.614 461.106,71.511C461.514,72.408 461.117,73.465 460.22,73.873C459.324,74.28 458.266,73.884 457.858,72.987C457.45,72.09 457.848,71.032 458.744,70.625Z" style="fill:rgb(97,121,138);fill-rule:nonzero;"/>
            <path d="M454.992,66.178C453.723,63.384 454.958,60.089 457.754,58.819C460.548,57.549 463.843,58.785 465.113,61.579C466.383,64.374 465.146,67.669 462.353,68.939C459.557,70.209 456.263,68.973 454.992,66.178Z" style="fill:rgb(97,121,138);fill-rule:nonzero;"/>
            <path d="M442.346,68.828C442.819,69.871 442.357,71.1 441.314,71.574C440.271,72.048 439.043,71.587 438.569,70.544C438.095,69.502 438.556,68.272 439.599,67.798C440.642,67.323 441.871,67.785 442.346,68.828Z" style="fill:rgb(97,121,138);fill-rule:nonzero;"/>
            <path d="M442.868,80.592C443.138,80.006 443.609,79.508 444.242,79.22C445.641,78.585 447.288,79.203 447.923,80.6C448.198,81.208 448.237,81.864 448.078,82.462C446.249,82.137 444.486,81.503 442.868,80.592Z" style="fill:rgb(97,121,138);fill-rule:nonzero;"/>
        </g>
        <g>
            <path d="M92.803,182.341C95.696,184.271 108.885,181.25 109.869,178.929C108.928,174.217 104.343,171.161 99.629,172.102C94.918,173.045 91.861,177.63 92.803,182.341Z" style="fill:rgb(89,114,133);fill-rule:nonzero;"/>
            <path d="M91.137,181.118C90.4,181.908 89.187,186.454 102,183.956C111.653,182.073 113.774,178.69 110.938,177.16C115.995,177.099 119.526,178.027 119.883,179.811C120.447,182.634 112.85,186.533 102.912,188.52C92.975,190.507 84.462,189.827 83.898,187.006C83.542,185.221 86.445,183.008 91.137,181.118Z" style="fill:rgb(163,186,204);fill-rule:nonzero;"/>
            <path d="M103.172,189.817C105.131,189.425 106.996,188.961 108.729,188.442C107.491,190.053 105.693,191.246 103.543,191.675C101.395,192.105 99.276,191.696 97.513,190.683C99.312,190.497 101.214,190.209 103.172,189.817Z" style="fill:rgb(89,114,133);fill-rule:nonzero;"/>
        </g>
    </g>
</svg>
