<?xml version="1.0" encoding="UTF-8" standalone="no"?>
<!DOCTYPE svg PUBLIC "-//W3C//DTD SVG 1.1//EN" "http://www.w3.org/Graphics/SVG/1.1/DTD/svg11.dtd">
<svg width="100%" height="100%" viewBox="0 0 409 435" version="1.1" xmlns="http://www.w3.org/2000/svg" xmlns:xlink="http://www.w3.org/1999/xlink" xml:space="preserve" xmlns:serif="http://www.serif.com/" style="fill-rule:evenodd;clip-rule:evenodd;stroke-linejoin:round;stroke-miterlimit:2;">
    <g transform="matrix(1,0,0,1,-226.568,-547.522)">
        <g transform="matrix(1,0,0,1,-109.011,89.9343)">
            <g transform="matrix(1,0,0,1,-856.752,-1141.04)">
                <path d="M1597.3,1716.39C1595.37,1717.87 1592.96,1718.48 1590.5,1718.55C1589.47,1718.59 1588.41,1718.52 1587.39,1718.39C1579.52,1717.4 1572.54,1712.97 1565,1710.5C1555.59,1707.42 1545.19,1707.46 1535.81,1710.63C1530.52,1712.42 1524.86,1716.2 1524.77,1721.81L1524.01,1721.24L1516.87,1715.85C1519.4,1703.76 1527.83,1693.22 1538.68,1687.29C1549.51,1681.36 1562.55,1679.91 1574.65,1682.41C1586.14,1684.78 1597.86,1691.88 1600.68,1703.27C1601.83,1707.91 1601.07,1713.46 1597.3,1716.39Z" style="fill:rgb(0,204,230);fill-rule:nonzero;"/>
            </g>
            <g transform="matrix(1,0,0,1,-856.752,-1141.04)">
                <path d="M1590.5,1718.55C1589.47,1718.59 1588.41,1718.52 1587.39,1718.39C1579.52,1717.4 1572.54,1712.97 1565,1710.5C1555.59,1707.42 1545.19,1707.46 1535.81,1710.63C1530.52,1712.42 1524.86,1716.2 1524.77,1721.81L1524.01,1721.24L1524.01,1712.8C1524.01,1712.8 1538.62,1694.62 1563.9,1700.68C1580.09,1704.57 1587.37,1713 1590.5,1718.55Z" style="fill:rgb(0,158,178);fill-rule:nonzero;"/>
            </g>
            <g transform="matrix(1,0,0,1,-856.752,-1141.04)">
                <path d="M1282.94,1703.36L1270.29,1710.67L1268.96,1711.44C1267.09,1702.43 1257.37,1696.66 1248.17,1696.69C1238.97,1696.71 1230.39,1701.29 1222.91,1706.65C1218.38,1709.91 1213.92,1713.57 1208.56,1715.09C1203.19,1716.62 1196.51,1715.32 1193.73,1710.48C1192.22,1707.84 1192.11,1704.61 1192.57,1701.6C1194.72,1688.07 1207.54,1678.47 1220.72,1674.71C1232.89,1671.24 1246.24,1671.53 1257.86,1676.5C1269.48,1681.48 1279.14,1691.32 1282.94,1703.36Z" style="fill:rgb(0,204,230);fill-rule:nonzero;"/>
            </g>
            <g transform="matrix(1,0,0,1,-856.752,-1141.04)">
                <path d="M1270.29,1703.89L1270.29,1710.67L1268.96,1711.44C1267.09,1702.43 1257.37,1696.66 1248.17,1696.69C1238.97,1696.71 1230.39,1701.29 1222.91,1706.65C1218.38,1709.91 1213.92,1713.57 1208.56,1715.09C1208.56,1715.09 1215.88,1689.61 1238.56,1687.66C1261.24,1685.72 1270.29,1703.89 1270.29,1703.89Z" style="fill:rgb(0,158,178);fill-rule:nonzero;"/>
            </g>
            <g transform="matrix(1,0,0,1,-856.752,-1141.04)">
                <path d="M1402.96,1679.64C1393.35,1663.68 1392.95,1642.58 1401.94,1626.27C1410.93,1609.95 1428.98,1599.03 1447.61,1598.64C1452.53,1598.53 1457.67,1599.19 1461.76,1601.93C1465.85,1604.67 1468.54,1609.93 1467.06,1614.63C1465.39,1619.97 1459.46,1622.53 1454.17,1624.36C1444.91,1627.58 1435.55,1630.61 1426.61,1634.66C1422.53,1636.51 1418.49,1638.6 1415.15,1641.6C1405.49,1650.28 1403.85,1666.5 1411.57,1676.94L1402.96,1679.64Z" style="fill:rgb(0,204,230);fill-rule:nonzero;"/>
            </g>
            <g transform="matrix(1,0,0,1,-856.752,-1141.04)">
                <path d="M1412.21,1682.95C1412.8,1672.78 1416.54,1662.66 1423.43,1655.15C1430.31,1647.63 1440.44,1642.95 1450.62,1643.46C1454.51,1643.66 1458.48,1644.64 1461.53,1647.06C1464.58,1649.48 1466.53,1653.52 1465.72,1657.33C1464.94,1660.98 1461.83,1663.77 1458.38,1665.18C1454.93,1666.58 1451.13,1666.83 1447.41,1667.06C1444.78,1667.22 1442.16,1667.38 1439.54,1667.55C1434.84,1667.84 1429.99,1668.17 1425.82,1670.34C1421.65,1672.5 1418.31,1677.02 1419.05,1681.67L1412.21,1682.95Z" style="fill:rgb(0,204,230);fill-rule:nonzero;"/>
            </g>
            <g transform="matrix(1,0,0,1,-856.752,-1141.04)">
                <path d="M1392.15,1679.15C1392.96,1673.74 1391.29,1668.29 1389.45,1663.14C1386.96,1656.16 1384.04,1649.18 1379.22,1643.56C1374.39,1637.93 1367.34,1633.8 1359.94,1634.08C1355.73,1634.23 1351.41,1635.98 1348.98,1639.42C1346.51,1642.94 1346.42,1647.9 1348.56,1651.63C1350.71,1655.36 1354.89,1657.76 1359.18,1657.99C1361.58,1658.11 1363.97,1657.62 1366.37,1657.67C1373.25,1657.84 1379.41,1662.68 1382.7,1668.74C1385.99,1674.79 1386.81,1681.88 1386.8,1688.77L1392.15,1679.15Z" style="fill:rgb(0,204,230);fill-rule:nonzero;"/>
            </g>
            <g transform="matrix(1,0,0,1,-856.752,-1141.04)">
                <path d="M1540.59,1921.21C1538.8,1922.4 1536.83,1923.32 1534.8,1923.92C1526.25,1926.43 1516.89,1924.23 1508.95,1920.18C1495.84,1913.51 1485.4,1901.74 1480.35,1887.91L1486.35,1872.47C1490.56,1873.6 1494.05,1876.21 1497.37,1879.08C1499.34,1880.78 1501.26,1882.57 1503.22,1884.21C1513.99,1893.17 1527.97,1898.19 1541.98,1898.11C1543.92,1898.1 1546.04,1898.05 1547.6,1899.2C1549.17,1900.34 1549.77,1902.4 1549.92,1904.34C1550.42,1911.12 1546.35,1917.47 1540.59,1921.21Z" style="fill:rgb(0,204,230);fill-rule:nonzero;"/>
            </g>
            <g transform="matrix(1,0,0,1,-856.752,-1141.04)">
                <path d="M1540.59,1921.21C1538.8,1922.4 1536.83,1923.32 1534.8,1923.92C1526.25,1926.43 1516.89,1924.23 1508.95,1920.18C1495.84,1913.51 1485.4,1901.74 1480.35,1887.91L1484.58,1870.6C1488.79,1871.73 1494.05,1876.21 1497.37,1879.08C1497.9,1891.98 1503.14,1922.14 1540.59,1921.21Z" style="fill:rgb(0,142,160);fill-rule:nonzero;"/>
            </g>
            <g transform="matrix(1,0,0,1,-856.752,-1141.04)">
                <path d="M1302.04,1896.35C1295.74,1907.53 1292.83,1921.27 1282.84,1929.35C1276.03,1934.84 1267.02,1936.73 1258.32,1937.52C1252.43,1938.05 1246.11,1938.06 1241.07,1934.95C1240.15,1934.38 1239.29,1933.68 1238.56,1932.86C1235.21,1929.25 1233.82,1923.69 1236.65,1919.76C1238.98,1916.53 1243.2,1915.43 1247.03,1914.31C1260.38,1910.33 1272.78,1903.22 1283.07,1893.8C1288.74,1888.63 1293.76,1882.75 1297.96,1876.3L1302.04,1896.35Z" style="fill:rgb(0,204,230);fill-rule:nonzero;"/>
            </g>
            <g transform="matrix(1,0,0,1,-856.752,-1141.04)">
                <path d="M1302.04,1896.35C1295.74,1907.53 1292.83,1921.27 1282.84,1929.35C1276.03,1934.84 1267.02,1936.73 1258.32,1937.52C1252.43,1938.05 1246.11,1938.06 1241.07,1934.95C1240.15,1934.38 1239.29,1933.68 1238.56,1932.86C1266.03,1934.98 1278.6,1907.29 1283.07,1893.8C1288.74,1888.63 1297.44,1875.85 1301.64,1869.4L1302.04,1896.35Z" style="fill:rgb(0,142,160);fill-rule:nonzero;"/>
            </g>
            <g transform="matrix(1,0,0,1,-856.752,-1141.04)">
                <path d="M1508.22,2009.36C1505.63,2016.87 1496.85,2020.35 1488.92,2020.71C1481.2,2021.06 1472.81,2018.96 1468.02,2012.89C1459.27,2001.83 1465.93,1983.01 1455.69,1973.32C1450.7,1968.59 1442.36,1967.91 1436.68,1971.75C1433.5,1973.89 1431.31,1977.33 1430.44,1981.05L1430.43,1981.06C1429.9,1983.35 1429.86,1985.77 1430.39,1988.06C1430.54,1988.7 1430.74,1989.34 1430.99,1989.96C1432.54,1993.89 1435.53,1996.89 1438.77,1999.7C1440.45,2001.18 1442.21,2002.6 1443.84,2004.08C1445.14,2005.25 1446.39,2006.56 1447.51,2007.99C1450.49,2011.82 1452.38,2016.38 1450.97,2020.86C1449.43,2025.7 1444.45,2028.63 1439.55,2029.94C1429.49,2032.61 1418.2,2030.05 1410.3,2023.27C1406.46,2020 1403.49,2015.77 1401.57,2011.11C1400.09,2007.54 1398.51,2003.32 1398.94,1999.38C1399.2,1997.08 1400.15,1994.9 1400.73,1992.65C1401.98,1987.71 1400.95,1982.96 1397.53,1979.16C1395.78,1977.22 1393.24,1975.67 1390.63,1976.02C1387.96,1976.39 1385.87,1978.71 1385.01,1981.28C1384.16,1983.84 1384.3,1986.62 1384.54,1989.33C1385.5,2000.46 1387.39,2013.01 1380.28,2021.63C1377.98,2024.4 1374.96,2026.46 1371.82,2028.23C1367.04,2030.93 1361.83,2033.07 1356.36,2033.41C1350.89,2033.75 1345.12,2032.05 1341.38,2028.05C1339,2025.5 1337.55,2021.71 1338.88,2018.48C1339.68,2016.53 1341.35,2015.09 1342.83,2013.59C1343.6,2012.81 1344.35,2011.98 1345.03,2011.11C1346.49,2009.29 1347.76,2007.32 1348.82,2005.25C1351.53,1999.94 1352.89,1993.93 1352.66,1987.98C1352.6,1986.73 1352.48,1985.47 1352.29,1984.22C1351.88,1981.66 1351.14,1979.05 1349.86,1976.8L1349.86,1976.78C1349.07,1975.4 1348.1,1974.16 1346.86,1973.13C1343.64,1970.43 1338.44,1969.79 1335.3,1972.58C1331.48,1975.96 1332.3,1981.94 1332.4,1987.03C1332.69,1999.97 1325.43,2013.05 1313.8,2018.68C1302.16,2024.32 1286.7,2021.47 1278.63,2011.37C1275.76,2007.77 1274.11,2001.99 1277.56,1998.96C1278.87,1997.81 1280.65,1997.36 1282.35,1996.91C1286.91,1995.73 1291.49,1994.28 1295.5,1991.86C1296.63,1991.19 1297.7,1990.44 1298.72,1989.6C1302.73,1986.29 1305.68,1981.26 1305.69,1976.13C1305.69,1975.33 1305.62,1974.53 1305.48,1973.73C1304.99,1971.03 1303.7,1968.64 1302.07,1966.41C1301.35,1965.42 1300.56,1964.47 1299.75,1963.52C1299.73,1963.51 1299.72,1963.5 1299.72,1963.5C1298.44,1962 1297.1,1960.55 1295.85,1959.07C1286.45,1947.93 1281.55,1933.05 1282.52,1918.49C1283.23,1907.85 1287.04,1897.46 1293.27,1888.82C1295.41,1885.85 1297.18,1882.47 1298.63,1878.87C1306.6,1859.12 1305.01,1832.94 1304.32,1832.4L1444.81,1834.75L1483.04,1833.36C1483.53,1834.05 1484.79,1834.62 1484.53,1835.43C1483.33,1839.21 1477.93,1867.91 1492.27,1886.96C1494.4,1889.8 1495.79,1893.12 1497.21,1896.38C1500.84,1904.66 1502.68,1913.98 1500.73,1922.79C1498.94,1930.84 1494.18,1937.84 1490.43,1945.16C1488.1,1949.69 1486.11,1954.66 1485.48,1959.67L1485.48,1959.7C1485.38,1960.52 1485.32,1961.35 1485.29,1962.17L1485.29,1962.18C1485.23,1964.43 1485.47,1966.67 1486.12,1968.88C1486.27,1969.39 1486.45,1969.89 1486.64,1970.38L1486.64,1970.39C1489.29,1977.29 1495.42,1982.36 1500.54,1987.82C1501.41,1988.74 1502.25,1989.72 1503.05,1990.75C1504.08,1992.05 1505.04,1993.44 1505.87,1994.86C1508.52,1999.42 1509.89,2004.5 1508.22,2009.36Z" style="fill:rgb(0,188,212);fill-rule:nonzero;"/>
                <clipPath id="_clip1">
                    <path d="M1508.22,2009.36C1505.63,2016.87 1496.85,2020.35 1488.92,2020.71C1481.2,2021.06 1472.81,2018.96 1468.02,2012.89C1459.27,2001.83 1465.93,1983.01 1455.69,1973.32C1450.7,1968.59 1442.36,1967.91 1436.68,1971.75C1433.5,1973.89 1431.31,1977.33 1430.44,1981.05L1430.43,1981.06C1429.9,1983.35 1429.86,1985.77 1430.39,1988.06C1430.54,1988.7 1430.74,1989.34 1430.99,1989.96C1432.54,1993.89 1435.53,1996.89 1438.77,1999.7C1440.45,2001.18 1442.21,2002.6 1443.84,2004.08C1445.14,2005.25 1446.39,2006.56 1447.51,2007.99C1450.49,2011.82 1452.38,2016.38 1450.97,2020.86C1449.43,2025.7 1444.45,2028.63 1439.55,2029.94C1429.49,2032.61 1418.2,2030.05 1410.3,2023.27C1406.46,2020 1403.49,2015.77 1401.57,2011.11C1400.09,2007.54 1398.51,2003.32 1398.94,1999.38C1399.2,1997.08 1400.15,1994.9 1400.73,1992.65C1401.98,1987.71 1400.95,1982.96 1397.53,1979.16C1395.78,1977.22 1393.24,1975.67 1390.63,1976.02C1387.96,1976.39 1385.87,1978.71 1385.01,1981.28C1384.16,1983.84 1384.3,1986.62 1384.54,1989.33C1385.5,2000.46 1387.39,2013.01 1380.28,2021.63C1377.98,2024.4 1374.96,2026.46 1371.82,2028.23C1367.04,2030.93 1361.83,2033.07 1356.36,2033.41C1350.89,2033.75 1345.12,2032.05 1341.38,2028.05C1339,2025.5 1337.55,2021.71 1338.88,2018.48C1339.68,2016.53 1341.35,2015.09 1342.83,2013.59C1343.6,2012.81 1344.35,2011.98 1345.03,2011.11C1346.49,2009.29 1347.76,2007.32 1348.82,2005.25C1351.53,1999.94 1352.89,1993.93 1352.66,1987.98C1352.6,1986.73 1352.48,1985.47 1352.29,1984.22C1351.88,1981.66 1351.14,1979.05 1349.86,1976.8L1349.86,1976.78C1349.07,1975.4 1348.1,1974.16 1346.86,1973.13C1343.64,1970.43 1338.44,1969.79 1335.3,1972.58C1331.48,1975.96 1332.3,1981.94 1332.4,1987.03C1332.69,1999.97 1325.43,2013.05 1313.8,2018.68C1302.16,2024.32 1286.7,2021.47 1278.63,2011.37C1275.76,2007.77 1274.11,2001.99 1277.56,1998.96C1278.87,1997.81 1280.65,1997.36 1282.35,1996.91C1286.91,1995.73 1291.49,1994.28 1295.5,1991.86C1296.63,1991.19 1297.7,1990.44 1298.72,1989.6C1302.73,1986.29 1305.68,1981.26 1305.69,1976.13C1305.69,1975.33 1305.62,1974.53 1305.48,1973.73C1304.99,1971.03 1303.7,1968.64 1302.07,1966.41C1301.35,1965.42 1300.56,1964.47 1299.75,1963.52C1299.73,1963.51 1299.72,1963.5 1299.72,1963.5C1298.44,1962 1297.1,1960.55 1295.85,1959.07C1286.45,1947.93 1281.55,1933.05 1282.52,1918.49C1283.23,1907.85 1287.04,1897.46 1293.27,1888.82C1295.41,1885.85 1297.18,1882.47 1298.63,1878.87C1306.6,1859.12 1305.01,1832.94 1304.32,1832.4L1444.81,1834.75L1483.04,1833.36C1483.53,1834.05 1484.79,1834.62 1484.53,1835.43C1483.33,1839.21 1477.93,1867.91 1492.27,1886.96C1494.4,1889.8 1495.79,1893.12 1497.21,1896.38C1500.84,1904.66 1502.68,1913.98 1500.73,1922.79C1498.94,1930.84 1494.18,1937.84 1490.43,1945.16C1488.1,1949.69 1486.11,1954.66 1485.48,1959.67L1485.48,1959.7C1485.38,1960.52 1485.32,1961.35 1485.29,1962.17L1485.29,1962.18C1485.23,1964.43 1485.47,1966.67 1486.12,1968.88C1486.27,1969.39 1486.45,1969.89 1486.64,1970.38L1486.64,1970.39C1489.29,1977.29 1495.42,1982.36 1500.54,1987.82C1501.41,1988.74 1502.25,1989.72 1503.05,1990.75C1504.08,1992.05 1505.04,1993.44 1505.87,1994.86C1508.52,1999.42 1509.89,2004.5 1508.22,2009.36Z" clip-rule="nonzero"/>
                </clipPath>
                <g clip-path="url(#_clip1)">
                    <g transform="matrix(1,0,0,1,3.5115,-41.5528)">
                        <path d="M1459,1898.72L1419.67,1907.04C1354.83,1920.55 1303.05,1894.24 1293.27,1888.82C1295.55,1885.61 1298.19,1882.65 1301.1,1880.01L1444.81,1874.75L1484.24,1875.36C1484.24,1875.36 1484.34,1875.39 1484.53,1875.43C1487.21,1879.21 1489.87,1883.01 1492.27,1886.96C1483.24,1893.59 1459,1898.72 1459,1898.72Z" style="fill:rgb(0,142,160);fill-rule:nonzero;"/>
                    </g>
                </g>
            </g>
            <g transform="matrix(1,0,0,1,-856.752,-1141.04)">
                <path d="M1538.52,1756.2C1536.98,1767.43 1533.44,1778.27 1531.1,1789.35C1528.59,1801.23 1527.25,1813.89 1520.19,1823.76C1511.68,1835.68 1496.72,1840.9 1482.51,1844.42C1421.28,1859.63 1356.13,1855.86 1295.5,1838.39C1285.12,1835.4 1274.39,1831.75 1266.86,1824.02C1259.62,1816.61 1256.22,1806.36 1253.31,1796.42C1249.27,1782.56 1245.77,1768.35 1245.77,1753.91C1245.75,1746.64 1246.72,1739.25 1248.85,1732.3L1248.86,1732.27C1250.2,1727.86 1252.04,1723.61 1254.39,1719.68C1255.67,1717.52 1257.13,1715.44 1258.74,1713.48C1259.49,1712.58 1260.32,1711.68 1261.23,1710.8L1261.27,1710.76C1267.65,1704.64 1277.94,1699.05 1289.31,1694.23C1297.51,1690.77 1306.26,1687.71 1314.53,1685.15C1318.75,1683.83 1322.86,1682.65 1326.69,1681.61C1335.78,1679.12 1343.36,1677.44 1347.55,1676.71C1348.77,1676.49 1350.17,1676.28 1351.71,1676.08C1366.69,1674.05 1395.51,1672.33 1409.77,1673.87L1402.29,1672.84C1414.77,1673.81 1427.42,1675.99 1439.86,1678.59C1445.93,1679.87 1451.94,1681.24 1457.88,1682.64C1461.32,1683.45 1464.76,1684.32 1468.18,1685.26C1483.12,1689.36 1497.71,1694.78 1511.17,1702.52C1519.69,1707.41 1527.91,1713.46 1533.06,1721.78C1533.07,1721.8 1533.09,1721.81 1533.09,1721.81C1533.36,1722.24 1533.62,1722.69 1533.87,1723.15C1534.28,1723.89 1534.66,1724.62 1535.01,1725.38C1539.49,1734.8 1539.94,1745.82 1538.52,1756.2Z" style="fill:rgb(0,188,212);fill-rule:nonzero;"/>
            </g>
            <g transform="matrix(1,0,0,1,-856.752,-1141.04)">
                <path d="M1538.52,1756.2C1536.98,1767.43 1533.44,1778.27 1531.1,1789.35C1528.59,1801.23 1527.25,1813.89 1520.19,1823.76C1511.68,1835.68 1496.72,1840.9 1482.51,1844.42C1421.28,1861.93 1356.13,1857.65 1295.5,1838.39C1285.2,1835.12 1274.39,1831.75 1266.86,1824.02C1259.62,1816.61 1256.22,1806.36 1253.31,1796.42C1249.27,1782.56 1245.77,1768.35 1245.77,1753.91C1245.75,1746.64 1246.72,1739.25 1248.85,1732.3L1248.86,1732.27C1249.72,1753.53 1252.55,1775.55 1261.78,1794.96C1271,1814.35 1287.67,1825.9 1308.11,1831.37C1321.18,1834.86 1334.74,1835.93 1348.23,1836.98C1370.18,1838.66 1392.17,1840.25 1414.2,1839.95C1435.36,1839.67 1458.18,1838.5 1478.26,1831.36C1483.43,1829.51 1488.47,1827.22 1493.19,1824.4C1507.65,1815.75 1516.61,1801.67 1522.99,1786.42C1528.12,1774.15 1531.59,1761.14 1533.59,1748.01C1534.66,1740.89 1535.95,1732.78 1535.01,1725.38C1539.49,1734.8 1539.94,1745.82 1538.52,1756.2Z" style="fill:rgb(0,158,178);fill-rule:nonzero;"/>
            </g>
            <g transform="matrix(1,0,0,1,-856.752,-1141.04)">
                <path d="M1382.47,1691.88C1379.97,1689.97 1376.76,1689.07 1373.63,1689.1C1369.96,1689.12 1366.46,1690.37 1363.16,1691.89C1360.34,1693.2 1356.95,1694.69 1355.44,1697.6C1354.47,1699.48 1354.62,1701.46 1355.47,1703.13C1355.6,1703.51 1355.76,1703.88 1355.97,1704.22C1357.85,1707.32 1361.65,1708.2 1365.03,1707.85C1368.9,1707.44 1372.81,1706.54 1376.55,1705.51C1379.55,1704.68 1383.55,1703.39 1385.38,1700.66C1387.49,1697.51 1385.03,1693.84 1382.47,1691.88Z" style="fill:rgb(0,150,136);fill-rule:nonzero;"/>
            </g>
            <g transform="matrix(1,0,0,1,-856.752,-1141.04)">
                <path d="M1429.19,1694.09C1425.66,1690.33 1419.25,1688.22 1415.01,1692.11C1413.37,1693.62 1412.5,1696.07 1412.95,1698.28C1412.5,1698.78 1412.27,1699.5 1412.5,1700.15C1414.24,1705.09 1420.65,1707.26 1425.47,1706.54C1428.05,1706.15 1430.41,1704.49 1431.33,1702.01C1432.37,1699.2 1431.13,1696.16 1429.19,1694.09Z" style="fill:rgb(0,150,136);fill-rule:nonzero;"/>
            </g>
            <g transform="matrix(1,0,0,1,-856.752,-1141.04)">
                <path d="M1403.44,1678.93C1402.6,1678.66 1401.73,1678.45 1400.86,1678.32C1399.75,1678.15 1398.55,1677.94 1397.46,1678.33C1395.4,1679.06 1394.31,1681.38 1394.9,1683.47C1395.41,1685.29 1397.09,1686.64 1398.91,1687.05C1400.33,1687.9 1402.1,1688.13 1403.7,1687.58C1404.7,1687.23 1405.56,1686.7 1406.35,1686C1407.2,1685.24 1408.02,1684.24 1408.04,1683.05C1408.1,1680.58 1405.37,1679.56 1403.44,1678.93Z" style="fill:rgb(0,150,136);fill-rule:nonzero;"/>
            </g>
            <g transform="matrix(1,0,0,1,-856.752,-1141.04)">
                <path d="M1398.86,1682.14L1398.86,1682.16L1398.86,1682.14Z" style="fill:rgb(0,150,136);fill-rule:nonzero;"/>
            </g>
            <g transform="matrix(1,0,0,1,-856.752,-1141.04)">
                <path d="M1407.73,1712.85C1406.44,1711.1 1404.7,1709.95 1402.69,1709.17C1400.67,1708.37 1398.35,1707.98 1396.21,1708.44C1394.07,1708.9 1392.06,1710.55 1391.56,1712.73C1391.09,1714.81 1391.52,1717.42 1392.69,1719.22C1393.85,1721.03 1395.75,1722.06 1397.79,1722.54C1398.37,1722.84 1398.97,1723.09 1399.57,1723.27C1401.66,1723.88 1404.05,1723.94 1406.02,1722.88C1409.55,1720.97 1409.98,1715.89 1407.73,1712.85Z" style="fill:rgb(0,150,136);fill-rule:nonzero;"/>
            </g>
            <g transform="matrix(1,0,0,1,-856.752,-1141.04)">
                <path d="M1351.71,1676.08C1351.79,1677.4 1351.67,1678.73 1351.39,1679.95C1350.17,1685.49 1343.66,1687.37 1338.66,1687.29C1335.26,1687.22 1331.52,1686.17 1328.86,1683.91C1328.01,1683.27 1327.25,1682.5 1326.69,1681.61C1335.78,1679.12 1343.36,1677.44 1347.55,1676.71C1348.77,1676.49 1350.17,1676.28 1351.71,1676.08Z" style="fill:rgb(0,150,136);fill-rule:nonzero;"/>
            </g>
            <g transform="matrix(1,0,0,1,-856.752,-1141.04)">
                <path d="M1468.18,1685.26C1467.08,1690.31 1459.82,1691.24 1455.46,1690.96C1450.26,1690.62 1444.37,1688.41 1441.17,1684.12C1439.95,1682.49 1439.34,1680.44 1439.86,1678.59C1445.93,1679.87 1451.94,1681.24 1457.88,1682.64C1461.32,1683.45 1464.76,1684.32 1468.18,1685.26Z" style="fill:rgb(0,150,136);fill-rule:nonzero;"/>
            </g>
            <g transform="matrix(1,0,0,1,-856.752,-1141.04)">
                <path d="M1314.53,1685.15C1314.53,1685.6 1314.49,1686.04 1314.42,1686.52C1313.97,1689.44 1312.03,1692.14 1309.94,1694.15C1307.73,1696.25 1305.03,1697.27 1302.04,1697.62C1297.66,1698.16 1292.31,1697.51 1289.31,1694.23C1297.51,1690.77 1306.26,1687.71 1314.53,1685.15Z" style="fill:rgb(0,150,136);fill-rule:nonzero;"/>
            </g>
            <g transform="matrix(1,0,0,1,-856.752,-1141.04)">
                <path d="M1337.33,1695.25C1335.73,1693.38 1333.24,1692.68 1330.88,1692.41C1328.43,1692.14 1325.78,1692.81 1324.42,1695.04C1323.29,1696.89 1323.78,1698.96 1325.07,1700.46C1325.87,1702.12 1328.39,1702.96 1330.09,1703.21C1332.47,1703.55 1334.84,1703.26 1337.03,1702.22C1339.95,1700.83 1339.02,1697.22 1337.33,1695.25Z" style="fill:rgb(0,150,136);fill-rule:nonzero;"/>
            </g>
            <g transform="matrix(1,0,0,1,-856.752,-1141.04)">
                <path d="M1454.25,1698.17C1453.18,1696.03 1450.93,1694.27 1448.54,1693.91C1448.15,1693.85 1447.72,1693.77 1447.32,1693.79C1446.59,1693.84 1445.93,1694.09 1445.39,1694.6C1444.76,1695.2 1444.47,1696.19 1444.57,1697.05C1444.61,1697.37 1444.68,1697.69 1444.78,1698C1444.74,1698.17 1444.73,1698.34 1444.73,1698.52C1444.75,1699.07 1444.91,1699.59 1445.17,1700.08C1445.49,1700.67 1445.96,1701.22 1446.43,1701.69C1447.43,1702.68 1448.66,1703.41 1450,1703.84C1451.58,1704.36 1453.65,1704.43 1454.65,1702.81C1455.52,1701.41 1454.93,1699.54 1454.25,1698.17Z" style="fill:rgb(0,150,136);fill-rule:nonzero;"/>
            </g>
            <g transform="matrix(1,0,0,1,-856.752,-1141.04)">
                <path d="M1282.35,1996.91C1288.18,1995.39 1294.07,1993.44 1298.72,1989.6C1303.37,1985.76 1306.56,1979.65 1305.48,1973.73C1304.99,1971.03 1303.7,1968.64 1302.07,1966.41C1305.35,1969.96 1312.23,1975.63 1323.34,1976.95C1339.76,1978.9 1302.61,2010.19 1282.35,1996.91Z" style="fill:rgb(0,158,178);fill-rule:nonzero;"/>
            </g>
            <g transform="matrix(1,0,0,1,-856.752,-1141.04)">
                <path d="M1368.71,2010.08C1360.6,2014.75 1350.1,2012.6 1345.03,2011.11C1351.01,2003.66 1353.76,1993.66 1352.29,1984.22C1351.88,1981.66 1351.14,1979.05 1349.86,1976.8C1349.86,1976.8 1358.56,1986.5 1371.5,1985.31C1384.44,1984.1 1379.86,2003.67 1368.71,2010.08Z" style="fill:rgb(0,158,178);fill-rule:nonzero;"/>
            </g>
            <g transform="matrix(1,0,0,1,-856.752,-1141.04)">
                <path d="M1447.51,2007.99C1402.95,2012.03 1400.72,1984.87 1411.32,1987.25C1421.62,1989.56 1429.97,1981.51 1430.43,1981.06C1429.75,1984 1429.87,1987.14 1430.99,1989.96C1433.34,1995.95 1439.08,1999.76 1443.84,2004.08C1445.14,2005.25 1446.39,2006.56 1447.51,2007.99Z" style="fill:rgb(0,158,178);fill-rule:nonzero;"/>
            </g>
            <g transform="matrix(1,0,0,1,-856.752,-1141.04)">
                <path d="M1505.87,1994.86L1505.86,1994.86C1477.61,2007.76 1453.09,1976.68 1470.07,1973.05C1481.58,1970.59 1484.56,1965.31 1485.29,1962.18C1485.23,1964.43 1485.47,1966.67 1486.12,1968.88C1488.4,1976.57 1495.05,1981.97 1500.54,1987.82C1502.51,1989.92 1504.39,1992.31 1505.87,1994.86Z" style="fill:rgb(0,158,178);fill-rule:nonzero;"/>
            </g>
            <g transform="matrix(1,0,0,1,-856.752,-1141.04)">
                <path d="M1293.27,1922.98C1293.27,1922.98 1286.59,1956.07 1338.51,1960.8C1390.44,1965.53 1398.34,1958.97 1405.25,1948.47C1412.15,1937.97 1376.79,1948.83 1336.98,1941.31C1297.16,1933.79 1301.77,1909.29 1300.44,1905.67C1299.11,1902.05 1293.27,1912.44 1293.27,1922.98Z" style="fill:rgb(154,255,246);fill-rule:nonzero;"/>
            </g>
            <g transform="matrix(1,0,0,1,-856.752,-1141.04)">
                <path d="M1503.05,1990.75C1484.28,1996.18 1465,1980.08 1473.69,1980.08C1482.67,1980.08 1486.52,1970.68 1486.64,1970.39C1489.29,1977.29 1495.42,1982.36 1500.54,1987.82C1501.41,1988.74 1502.25,1989.72 1503.05,1990.75Z" style="fill:rgb(0,150,136);fill-rule:nonzero;"/>
            </g>
            <g transform="matrix(1,0,0,1,-856.752,-1141.04)">
                <path d="M1438.77,1999.7C1436.81,1999.98 1434.3,2000.18 1431.08,2000.18C1418.55,2000.18 1412.3,1990.94 1420.96,1990.94C1425.23,1990.94 1428.34,1989.52 1430.39,1988.06C1430.54,1988.7 1430.74,1989.34 1430.99,1989.96C1432.54,1993.89 1435.53,1996.89 1438.77,1999.7Z" style="fill:rgb(0,150,136);fill-rule:nonzero;"/>
            </g>
            <g transform="matrix(1,0,0,1,-856.752,-1141.04)">
                <path d="M1368.22,1997.97C1366.37,2003.44 1354.56,2007.65 1348.82,2005.25C1351.53,1999.94 1352.89,1993.93 1352.66,1987.98C1353.91,1989.24 1355.9,1990.7 1359.05,1991.86C1366.15,1994.5 1370.32,1991.86 1368.22,1997.97Z" style="fill:rgb(0,150,136);fill-rule:nonzero;"/>
            </g>
            <g transform="matrix(1,0,0,1,-856.752,-1141.04)">
                <path d="M1295.5,1991.86C1296.63,1991.19 1297.7,1990.44 1298.72,1989.6C1302.73,1986.29 1305.68,1981.26 1305.69,1976.13C1308.27,1978.29 1312.53,1981.06 1317.49,1981.06C1325.63,1981.06 1309.02,1997.37 1295.5,1991.86Z" style="fill:rgb(0,150,136);fill-rule:nonzero;"/>
            </g>
            <g transform="matrix(0.340872,0,0,0.340872,352.015,338.772)">
                <g transform="matrix(1,0,0,1,0,11.7346)">
                    <g>
                        <g transform="matrix(1,0,0,1,-1333.53,1.71283)">
                            <path d="M1942.11,750.862C1942.11,789.276 1910.97,820.417 1872.56,820.417C1834.14,820.417 1803,789.276 1803,750.862C1803,712.448 1834.14,681.307 1872.56,681.307C1910.97,681.307 1942.11,712.448 1942.11,750.862Z" style="fill:rgb(0,158,178);fill-rule:nonzero;"/>
                        </g>
                        <g transform="matrix(1,0,0,1,-1333.53,1.71283)">
                            <path d="M1934.46,743.208C1934.46,777.395 1906.74,805.109 1872.56,805.109C1838.37,805.109 1810.66,777.395 1810.66,743.208C1810.66,709.021 1838.37,681.307 1872.56,681.307C1906.74,681.307 1934.46,709.021 1934.46,743.208Z" style="fill:white;fill-rule:nonzero;"/>
                        </g>
                        <g transform="matrix(1,0,0,1,-1333.53,1.71283)">
                            <path d="M1916.79,760.881C1916.79,785.307 1896.98,805.109 1872.56,805.109C1848.13,805.109 1828.33,785.307 1828.33,760.881C1828.33,736.455 1848.13,716.654 1872.56,716.654C1896.98,716.654 1916.79,736.455 1916.79,760.881Z" style="fill:rgb(0,190,214);fill-rule:nonzero;"/>
                        </g>
                        <g transform="matrix(1,0,0,1,-1333.53,1.71283)">
                            <path d="M1903.49,763.977C1903.49,781.06 1889.64,794.909 1872.56,794.909C1855.47,794.909 1841.63,781.06 1841.63,763.977C1841.63,746.894 1855.47,733.045 1872.56,733.045C1889.64,733.045 1903.49,746.894 1903.49,763.977Z" style="fill:rgb(0,56,63);fill-rule:nonzero;"/>
                        </g>
                        <g transform="matrix(1,0,0,1,-1333.53,1.71283)">
                            <path d="M1864.85,733.045C1864.85,740.876 1858.5,747.224 1850.67,747.224C1842.84,747.224 1836.49,740.876 1836.49,733.045C1836.49,725.215 1842.84,718.867 1850.67,718.867C1858.5,718.867 1864.85,725.215 1864.85,733.045Z" style="fill:white;fill-rule:nonzero;"/>
                        </g>
                        <g transform="matrix(1,0,0,1,-1333.53,1.71283)">
                            <path d="M1890.1,790.497C1890.1,794.732 1886.66,798.164 1882.43,798.164C1878.19,798.164 1874.76,794.732 1874.76,790.497C1874.76,786.263 1878.19,782.83 1882.43,782.83C1886.66,782.83 1890.1,786.263 1890.1,790.497Z" style="fill:white;fill-rule:nonzero;"/>
                        </g>
                        <g transform="matrix(1,0,0,1,-1333.53,1.71283)">
                            <path d="M1858.87,789.504C1860.37,788.014 1862.8,788.025 1864.29,789.528C1865.78,791.032 1865.77,793.459 1864.26,794.95C1862.76,796.44 1860.33,796.429 1858.84,794.925C1857.35,793.421 1857.36,790.994 1858.87,789.504Z" style="fill:white;fill-rule:nonzero;"/>
                        </g>
                    </g>
                </g>
                <g transform="matrix(1.04436,0,0,1.04436,-38.199,-38.2042)">
                    <g transform="matrix(1,0,0,1,81.243,0)">
                        <g>
                            <g transform="matrix(1,0,0,1,-1333.53,1.71283)">
                                <path d="M2047.58,784.612C2047.58,809.152 2027.68,829.046 2003.14,829.046C1978.6,829.046 1958.71,809.152 1958.71,784.612C1958.71,760.071 1978.6,740.178 2003.14,740.178C2027.68,740.178 2047.58,760.071 2047.58,784.612Z" style="fill:rgb(0,142,160);fill-rule:nonzero;"/>
                            </g>
                            <g transform="matrix(1,0,0,1,-1333.53,1.71283)">
                                <path d="M2043.26,780.297C2043.26,802.455 2025.3,820.417 2003.14,820.417C1980.98,820.417 1963.02,802.455 1963.02,780.297C1963.02,758.14 1980.98,740.178 2003.14,740.178C2025.3,740.178 2043.26,758.14 2043.26,780.297Z" style="fill:white;fill-rule:nonzero;"/>
                            </g>
                            <g transform="matrix(1,0,0,1,-1333.53,1.71283)">
                                <path d="M2027.21,774.449C2027.21,789.599 2014.93,801.881 1999.78,801.881C1984.63,801.881 1972.34,789.599 1972.34,774.449C1972.34,759.299 1984.63,747.017 1999.78,747.017C2014.93,747.017 2027.21,759.299 2027.21,774.449Z" style="fill:rgb(0,109,93);fill-rule:nonzero;"/>
                            </g>
                            <g transform="matrix(1,0,0,1,-1333.53,1.71283)">
                                <path d="M2020.24,774.449C2020.24,785.749 2011.08,794.909 1999.78,794.909C1988.48,794.909 1979.32,785.749 1979.32,774.449C1979.32,763.15 1988.48,753.99 1999.78,753.99C2011.08,753.99 2020.24,763.15 2020.24,774.449Z" style="fill:rgb(0,68,57);fill-rule:nonzero;"/>
                            </g>
                            <g transform="matrix(1,0,0,1,-1333.53,1.71283)">
                                <path d="M2025.94,759.014C2025.94,764.808 2021.24,769.504 2015.45,769.504C2009.66,769.504 2004.96,764.808 2004.96,759.014C2004.96,753.221 2009.66,748.525 2015.45,748.525C2021.24,748.525 2025.94,753.221 2025.94,759.014Z" style="fill:white;fill-rule:nonzero;"/>
                            </g>
                            <g transform="matrix(1,0,0,1,-1333.53,1.71283)">
                                <path d="M1993.54,785.511C1993.54,788.805 1990.87,791.475 1987.58,791.475C1984.28,791.475 1981.61,788.805 1981.61,785.511C1981.61,782.217 1984.28,779.546 1987.58,779.546C1990.87,779.546 1993.54,782.217 1993.54,785.511Z" style="fill:white;fill-rule:nonzero;"/>
                            </g>
                        </g>
                    </g>
                    <g transform="matrix(1,0,0,1,-55.8379,0)">
                        <g>
                            <g transform="matrix(1,0,0,1,-1333.53,1.71283)">
                                <path d="M1738.34,740.53C1713.99,743.613 1696.76,765.848 1699.84,790.193C1702.93,814.537 1725.16,831.773 1749.51,828.689C1773.85,825.606 1791.09,803.371 1788,779.026C1784.92,754.682 1762.68,737.446 1738.34,740.53Z" style="fill:rgb(0,142,160);fill-rule:nonzero;"/>
                            </g>
                            <g transform="matrix(1,0,0,1,-1333.53,1.71283)">
                                <path d="M1738.88,740.496C1716.9,743.28 1701.34,763.357 1704.12,785.339C1706.91,807.321 1726.98,822.884 1748.96,820.099C1770.95,817.315 1786.51,797.238 1783.72,775.256C1780.94,753.274 1760.86,737.711 1738.88,740.496Z" style="fill:white;fill-rule:nonzero;"/>
                            </g>
                            <g transform="matrix(1,0,0,1,-1333.53,1.71283)">
                                <path d="M1746.7,755.687C1731.67,757.59 1721.03,771.318 1722.93,786.348C1724.84,801.378 1738.56,812.019 1753.59,810.115C1768.62,808.212 1779.27,794.484 1777.36,779.454C1775.46,764.424 1761.73,753.783 1746.7,755.687Z" style="fill:rgb(0,109,93);fill-rule:nonzero;"/>
                            </g>
                            <g transform="matrix(1,0,0,1,-1333.53,1.71283)">
                                <path d="M1747.58,762.604C1736.37,764.024 1728.43,774.262 1729.85,785.472C1731.27,796.682 1741.51,804.618 1752.72,803.198C1763.93,801.778 1771.86,791.54 1770.44,780.33C1769.02,769.12 1758.79,761.184 1747.58,762.604Z" style="fill:rgb(0,68,57);fill-rule:nonzero;"/>
                            </g>
                            <g transform="matrix(1,0,0,1,-1333.53,1.71283)">
                                <path d="M1731.89,755.55C1726.14,756.278 1722.07,761.528 1722.8,767.275C1723.52,773.023 1728.77,777.092 1734.52,776.364C1740.27,775.636 1744.34,770.386 1743.61,764.639C1742.88,758.892 1737.63,754.822 1731.89,755.55Z" style="fill:white;fill-rule:nonzero;"/>
                            </g>
                            <g transform="matrix(1,0,0,1,-1333.53,1.71283)">
                                <path d="M1754.66,788.991C1751.4,789.405 1749.08,792.39 1749.5,795.658C1749.91,798.926 1752.9,801.24 1756.16,800.826C1759.43,800.412 1761.74,797.427 1761.33,794.159C1760.92,790.891 1757.93,788.577 1754.66,788.991Z" style="fill:white;fill-rule:nonzero;"/>
                            </g>
                        </g>
                    </g>
                </g>
            </g>
            <g transform="matrix(0.388397,0,0,0.388397,447.998,610.354)">
                <g transform="matrix(1,0,0,1,-656.958,-904.867)">
                    <path d="M1058.49,951.115L1019.45,1041.18C1014.28,1053.17 1007.13,1063.95 998.515,1073.15C977.583,1095.66 947.927,1109.04 916.108,1109.04L847.925,1109.04C812.733,1109.04 780.218,1092.69 759.213,1065.82C753.018,1057.9 747.812,1049.06 743.817,1039.46L707.306,951.115C707.306,951.115 717.423,956.577 735.092,963.615C747.152,968.417 762.769,973.953 781.134,979.011C782.454,979.414 783.81,979.745 785.167,980.111C803.459,984.987 824.317,989.312 846.972,991.915C849.061,992.172 851.224,992.391 853.35,992.611C872.045,994.481 891.914,995.141 912.479,994.004C915.009,993.821 917.574,993.674 920.14,993.454C935.977,992.245 952.216,989.899 968.638,986.16C971.901,985.463 975.164,984.656 978.426,983.813C994.776,979.598 1011.27,973.953 1027.8,966.658C1038.03,962.149 1048.3,956.98 1058.49,951.115Z" style="fill:rgb(153,2,71);fill-rule:nonzero;"/>
                </g>
                <g transform="matrix(1,0,0,1,-656.958,-904.867)">
                    <path d="M998.515,1073.15C977.583,1095.66 947.927,1109.04 916.108,1109.04L847.925,1109.04C812.733,1109.04 780.218,1092.69 759.213,1065.82C802.469,1056.36 886.195,1046.53 998.515,1073.15Z" style="fill:rgb(198,23,81);fill-rule:nonzero;"/>
                </g>
                <g transform="matrix(1,0,0,1,-656.958,-904.867)">
                    <path d="M781.134,979.011C780.841,982.42 780.511,985.793 780.108,989.165C779.118,997.707 777.725,1006.17 775.966,1014.61C775.342,1017.69 774.426,1021.06 771.75,1022.74C766.581,1026.01 760.459,1020.36 757.233,1015.19C749.829,1003.39 743.817,990.742 739.308,977.582C737.695,972.999 736.302,968.307 735.092,963.615C747.152,968.417 762.769,973.953 781.134,979.011Z" style="fill:white;fill-rule:nonzero;"/>
                </g>
                <g transform="matrix(1,0,0,1,-656.958,-904.867)">
                    <path d="M846.972,991.915C846.092,994.994 845.139,998 844.076,1000.97C840.703,1010.06 836.121,1018.53 829.156,1025.31C825.967,1028.39 822.154,1031.18 817.755,1031.62C809.837,1032.42 803.239,1025.79 799.023,1019.04C793.598,1010.35 790.079,1000.82 787.549,990.925C786.633,987.369 785.863,983.74 785.167,980.111C803.459,984.987 824.317,989.312 846.972,991.915Z" style="fill:white;fill-rule:nonzero;"/>
                </g>
                <g transform="matrix(1,0,0,1,-656.958,-904.867)">
                    <path d="M912.479,994.004C911.966,997.597 911.306,1001.15 910.536,1004.71C909.326,1009.99 907.823,1015.23 906.064,1020.32C903.938,1026.45 901.335,1032.53 897.009,1037.37C892.72,1042.21 886.489,1045.69 880,1045.33C872.742,1044.92 866.437,1039.75 862.771,1033.45C859.069,1027.18 857.639,1019.88 856.393,1012.74C855.806,1009.22 855.22,1005.7 854.706,1002.18C854.23,998.99 853.753,995.8 853.35,992.611C872.045,994.481 891.914,995.141 912.479,994.004Z" style="fill:white;fill-rule:nonzero;"/>
                </g>
                <g transform="matrix(1,0,0,1,-656.958,-904.867)">
                    <path d="M968.638,986.16C968.638,990.522 968.382,994.884 967.795,999.173C966.952,1005.77 965.45,1012.3 963.25,1018.56C961.014,1024.98 957.898,1031.4 952.729,1035.83C947.56,1040.27 939.899,1042.32 933.74,1039.39C925.09,1035.24 923.073,1024.06 922.157,1014.5C921.826,1011.12 921.533,1007.75 921.203,1004.38C920.837,1000.75 920.507,997.083 920.14,993.454C935.977,992.245 952.216,989.899 968.638,986.16Z" style="fill:white;fill-rule:nonzero;"/>
                </g>
                <g transform="matrix(1,0,0,1,-656.958,-904.867)">
                    <path d="M1027.8,966.658C1027.03,971.936 1026.08,977.178 1024.91,982.347C1023.63,987.993 1022.12,993.564 1020.36,999.063C1017.54,1007.93 1013.95,1016.84 1007.28,1023.33C1002.18,1028.28 994.225,1031.54 987.957,1028.13C983.595,1025.79 981.249,1020.76 980.552,1015.85C979.856,1010.94 980.479,1005.95 980.552,1001.01C980.589,999.54 980.552,998.037 980.442,996.57C980.222,992.281 979.526,987.993 978.426,983.813C994.776,979.598 1011.27,973.953 1027.8,966.658Z" style="fill:white;fill-rule:nonzero;"/>
                </g>
                <g transform="matrix(1,0,0,1,-656.958,-904.867)">
                    <path d="M735.092,963.615C747.152,968.417 762.769,973.953 781.134,979.011C780.841,982.42 780.511,985.793 780.108,989.165C761.889,984.73 747.702,980.368 739.308,977.582C737.695,972.999 736.302,968.307 735.092,963.615Z" style="fill:rgb(232,232,232);fill-rule:nonzero;"/>
                </g>
                <g transform="matrix(1,0,0,1,-656.958,-904.867)">
                    <path d="M785.167,980.111C803.459,984.987 824.317,989.312 846.972,991.915C846.092,994.994 845.139,998 844.076,1000.97C823.181,998.367 803.972,994.701 787.549,990.925C786.633,987.369 785.863,983.74 785.167,980.111Z" style="fill:rgb(232,232,232);fill-rule:nonzero;"/>
                </g>
                <g transform="matrix(1,0,0,1,-656.958,-904.867)">
                    <path d="M912.479,994.004C911.966,997.597 911.306,1001.15 910.536,1004.71C891.291,1005.04 872.485,1004.05 854.706,1002.18C854.23,998.99 853.753,995.8 853.35,992.611C872.045,994.481 891.914,995.141 912.479,994.004Z" style="fill:rgb(232,232,232);fill-rule:nonzero;"/>
                </g>
                <g transform="matrix(1,0,0,1,-656.958,-904.867)">
                    <path d="M920.14,993.454C935.977,992.245 952.216,989.899 968.638,986.16C968.638,990.522 968.382,994.884 967.795,999.173C952.289,1002.03 936.636,1003.68 921.203,1004.38C920.837,1000.75 920.507,997.083 920.14,993.454Z" style="fill:rgb(232,232,232);fill-rule:nonzero;"/>
                </g>
                <g transform="matrix(1,0,0,1,-656.958,-904.867)">
                    <path d="M1027.8,966.658C1027.03,971.936 1026.08,977.178 1024.91,982.347C1010.47,988.506 995.546,993.161 980.442,996.57C980.222,992.281 979.526,987.993 978.426,983.813C994.776,979.598 1011.27,973.953 1027.8,966.658Z" style="fill:rgb(232,232,232);fill-rule:nonzero;"/>
                </g>
            </g>
        </g>
    </g>
</svg>
